
<svg class="svgButton" width="100%" height="100%" viewBox="0 0 1001 1001" version="1.1" xmlns="http://www.w3.org/2000/svg" xmlns:xlink="http://www.w3.org/1999/xlink" xml:space="preserve" xmlns:serif="http://www.serif.com/" style="fill-rule:evenodd;clip-rule:evenodd;stroke-miterlimit:10;">
    <g transform="matrix(1,0,0,1,7.53144e-05,7.53144e-05)">
        <g id="spin-button">
            <path id="blue-circle" d="M500.27,0C776.23,0.15 1000.15,224.31 1000,500.27C999.85,776.23 775.69,1000.15 499.73,1000C223.78,999.85 -0.15,775.69 0,499.73C0.15,223.78 224.31,-0.15 500.27,0Z" style="fill:rgb(27,25,78);"/>
            <circle id="outline-stroke" cx="500" cy="500" r="462.96" style="fill:none;stroke:white;stroke-width:3px;"/>
            <g id="spin-text" transform="matrix(1,0,0,1,122.81,603.39)">
                <path d="M25.403,0L1.477,-30.424L9.452,-67.642L51.248,-67.642L47.556,-50.805L54.645,-41.796L111.358,-41.796L122.287,-50.805L127.161,-73.55L120.072,-82.559L43.864,-82.559L19.938,-112.983L33.378,-176.342L70.3,-206.766L164.084,-206.766L188.009,-176.342L180.034,-139.124L138.238,-139.124L141.93,-155.961L134.841,-164.97L81.82,-164.97L70.744,-155.961L65.87,-133.364L73.107,-124.355L149.315,-124.355L173.24,-93.931L159.801,-30.424L122.878,0L25.403,0ZM34.903,-13.735L118.2,-13.735L146.755,-37.266L157.733,-88.958L140.749,-110.62L63.606,-110.62L50.706,-126.866L58.338,-162.803L77.932,-178.804L145.278,-178.804L157.241,-163.788L154.731,-151.777L168.761,-151.777L172.698,-170.287L154.975,-192.835L74.288,-192.835L45.735,-169.301L35.346,-120.416L54.154,-96.442L131.049,-96.442L142.325,-82.658L134.054,-43.765L114.508,-27.766L44.602,-27.766L32.54,-42.782L35.15,-54.989L21.12,-54.989L17.084,-36.283L34.903,-13.735Z" style="fill:white;fill-rule:nonzero;"/>
                <path d="M188.748,0L232.759,-206.766L355.49,-206.766L379.416,-176.342L362.136,-94.965L321.817,-61.734L243.689,-61.734L230.544,0L188.748,0ZM204.945,-11.963L218.976,-11.963L232.612,-76.06L318.616,-76.06L350.468,-102.349L364.794,-169.696L346.185,-193.227L243.442,-193.227L204.945,-11.963ZM252.55,-103.531L310.297,-103.531L324.77,-115.346L333.484,-155.961L326.395,-164.97L265.694,-164.97L252.55,-103.531ZM235.566,-90.091L254.47,-179.196L336.537,-179.196L349.386,-163.197L337.815,-108.799L314.875,-90.091L235.566,-90.091Z" style="fill:white;fill-rule:nonzero;"/>
                <path d="M373.065,0L381.926,-41.796L422.393,-41.796L448.682,-164.97L408.215,-164.97L417.077,-206.766L539.512,-206.766L530.65,-164.97L490.331,-164.97L464.042,-41.796L504.361,-41.796L495.5,0L373.065,0ZM389.754,-13.735L484.818,-13.735L487.82,-27.766L446.319,-27.766L478.416,-179.196L519.917,-179.196L522.922,-193.227L427.858,-193.227L424.856,-179.196L464.437,-179.196L432.337,-27.766L392.756,-27.766L389.754,-13.735Z" style="fill:white;fill-rule:nonzero;"/>
                <path d="M547.535,-13.341L561.566,-13.341L596.716,-178.361L627.634,-178.361L644.568,-13.834L699.707,-13.834L737.811,-193.227L723.78,-193.227L688.778,-28.209L657.959,-28.209L641.074,-192.735L585.639,-192.735L547.535,-13.341ZM530.946,0L574.957,-206.766L655.153,-206.766L669.774,-42.387L677.602,-42.387L712.604,-206.766L754.401,-206.766L710.389,0L630.193,0L615.277,-164.822L607.744,-164.822L572.742,0L530.946,0Z" style="fill:white;fill-rule:nonzero;"/>
            </g>
            <path id="blue-area" d="M636.39,242.56C636.05,238.31 635.44,234.06 635.42,229.8C635.38,220.67 641.05,214.51 649.26,214.39C657.55,214.26 663.49,220.62 663.53,229.88C663.6,245.4 663.6,260.92 663.53,276.44C663.48,286.51 657.92,292.09 647.96,292.12C632.44,292.17 616.92,292.17 601.4,292.12C592.16,292.09 585.71,286.14 585.79,277.89C585.87,269.53 592.15,263.97 601.63,263.93C605.77,263.91 609.91,263.98 614.05,264C614.27,263.6 614.49,263.19 614.71,262.79C607.87,256.65 601.36,250.08 594.12,244.44C563.04,220.23 527.71,207.51 488.26,207.03C448.34,206.55 412.21,218.19 380.37,242.44C374.22,247.12 368.47,252.36 362.75,257.58C356.03,263.73 347.56,263.91 341.67,257.72C336.1,251.85 336.66,243.22 343.3,237.11C406.92,178.58 479.61,164.02 560.79,193.16C587.86,202.87 610.89,219.41 631.17,239.75C632.23,240.81 633.38,241.78 634.49,242.79C635.12,242.71 635.75,242.63 636.38,242.56L636.39,242.56Z" style="fill:rgb(85,173,221);fill-rule:nonzero;"/>
            <path id="red-arrow" d="M365.08,757.44C365.42,761.69 366.03,765.94 366.05,770.2C366.09,779.33 360.42,785.49 352.21,785.61C343.92,785.74 337.98,779.38 337.94,770.12C337.87,754.6 337.87,739.08 337.94,723.56C337.99,713.49 343.55,707.91 353.51,707.88C369.03,707.83 384.55,707.83 400.07,707.88C409.31,707.91 415.76,713.86 415.68,722.11C415.6,730.47 409.32,736.03 399.84,736.07C395.7,736.09 391.56,736.02 387.42,736C387.2,736.4 386.98,736.81 386.76,737.21C393.6,743.35 400.11,749.92 407.35,755.56C438.43,779.77 473.76,792.49 513.21,792.97C553.13,793.45 589.26,781.81 621.1,757.56C627.25,752.88 633,747.64 638.72,742.42C645.44,736.27 653.91,736.09 659.8,742.28C665.37,748.15 664.81,756.78 658.17,762.89C594.55,821.42 521.86,835.98 440.68,806.84C413.61,797.13 390.58,780.59 370.3,760.25C369.24,759.19 368.09,758.22 366.98,757.21C366.35,757.29 365.72,757.37 365.09,757.44L365.08,757.44Z" style="fill:rgb(234,81,154);fill-rule:nonzero;"/>
        </g>
    </g>
</svg>
