
<svg width="100%" height="100%" viewBox="0 0 410 119" style="fill-rule:evenodd;clip-rule:evenodd;stroke-linejoin:round;stroke-miterlimit:2;">
    <g transform="matrix(1,0,0,1,-577.201,-231.31)">
        <g transform="matrix(5.82,0,0,2.49,-2488.84,-202.52)">
            <g transform="matrix(0.352783,0,0,0.824578,344.163,32.1183)">
                <path d="M526.22,230L517.736,221.516L517.736,211.138L529.391,211.138L529.391,215.833L531.903,218.345L547.718,218.345L550.23,215.833L550.23,209.491L547.718,206.978L526.467,206.978L517.983,198.495L517.983,180.827L526.467,172.343L552.618,172.343L561.102,180.827L561.102,191.205L549.447,191.205L549.447,186.51L546.935,183.998L532.15,183.998L529.597,186.51L529.597,192.811L532.15,195.324L553.401,195.324L561.885,203.807L561.885,221.516L553.401,230L526.22,230ZM526.673,228.888L552.948,228.888L560.773,221.063L560.773,204.26L552.948,196.353L531.656,196.353L528.526,193.306L528.526,186.057L531.656,182.886L547.388,182.886L550.559,186.057L550.559,190.093L559.99,190.093L559.99,181.28L552.165,173.455L526.92,173.455L519.095,181.28L519.095,198.042L526.92,205.908L548.171,205.908L551.342,208.873L551.342,216.286L548.171,219.457L531.45,219.457L528.279,216.286L528.279,212.25L518.848,212.25L518.848,221.063L526.673,228.888Z" style="fill:rgb(27,27,27);fill-rule:nonzero;"/>
                <path d="M571.769,230L571.769,172.343L605.992,172.343L614.476,180.827L614.476,203.519L605.21,212.785L583.424,212.785L583.424,230L571.769,230ZM572.881,228.888L582.312,228.888L582.312,211.673L604.757,211.673L613.364,203.025L613.364,181.28L605.539,173.455L572.881,173.455L572.881,228.888ZM583.424,201.13L599.526,201.13L602.862,197.836L602.862,186.51L600.35,183.998L583.424,183.998L583.424,201.13ZM582.312,202.242L582.312,182.886L600.803,182.886L603.974,186.057L603.974,198.289L599.979,202.242L582.312,202.242Z" style="fill:rgb(27,27,27);fill-rule:nonzero;"/>
                <path d="M623.166,230L623.166,218.345L634.45,218.345L634.45,183.998L623.166,183.998L623.166,172.343L657.307,172.343L657.307,183.998L646.063,183.998L646.063,218.345L657.307,218.345L657.307,230L623.166,230ZM624.277,228.888L656.195,228.888L656.195,219.457L644.952,219.457L644.952,182.886L656.195,182.886L656.195,173.455L624.277,173.455L624.277,182.886L635.562,182.886L635.562,219.457L624.277,219.457L624.277,228.888Z" style="fill:rgb(27,27,27);fill-rule:nonzero;"/>
                <path d="M668.302,228.888L677.733,228.888L677.733,182.845L681.316,182.845L695.772,228.888L716.116,228.888L716.116,173.455L706.685,173.455L706.685,219.334L702.938,219.334L688.688,173.455L668.302,173.455L668.302,228.888ZM667.191,230L667.191,172.343L689.553,172.343L703.803,218.18L705.573,218.18L705.573,172.343L717.228,172.343L717.228,230L694.866,230L680.534,184.039L678.845,184.039L678.845,230L667.191,230Z" style="fill:rgb(27,27,27);fill-rule:nonzero;"/>
            </g>
        </g>
    </g>
</svg>
