<?xml version="1.0" encoding="UTF-8" standalone="no"?>
<!DOCTYPE svg PUBLIC "-//W3C//DTD SVG 1.1//EN" "http://www.w3.org/Graphics/SVG/1.1/DTD/svg11.dtd">
<svg class="j-svg" viewBox="0 0 1025 1839" version="1.1" xmlns="http://www.w3.org/2000/svg" xmlns:xlink="http://www.w3.org/1999/xlink" xml:space="preserve" xmlns:serif="http://www.serif.com/" style="fill-rule:evenodd;clip-rule:evenodd;stroke-linejoin:round;stroke-miterlimit:2;">
    <g transform="matrix(1,0,0,1,-3.18594,0.00140615)">
        <g transform="matrix(5.27473,0,0,4.59574,-1524.17,86.87)">
            <g id="j-webdev" transform="matrix(1.29924,0,0,1.49119,-114.109,14.1213)">
                <path id="j-letter" d="M460.158,-22.146L406.885,-22.146L406.885,166.53C406.885,180.588 405.343,191.008 402.26,197.791C399.177,204.573 392.826,207.964 383.208,207.964C373.589,207.964 367.238,204.573 364.155,197.791C361.072,191.008 359.531,180.588 359.531,166.53L359.531,158.391L310.697,158.391L310.697,169.859C310.697,180.218 311.683,190.083 313.657,199.455C315.63,208.828 319.268,217.028 324.57,224.057C329.873,231.086 337.025,236.512 346.027,240.335C355.03,244.158 366.56,246.069 380.618,246.069C407.501,246.069 427.479,240.089 440.55,228.127C453.622,216.165 460.158,196.126 460.158,168.01L460.158,-22.146Z" style="fill-rule:nonzero;"/>
                <g transform="matrix(0.789887,0,0,0.854718,310.608,156.948)">
                    <g id="webdev-word">
                        <g>
                            <text x="0px" y="0px" style="font-family:'Newsreader16pt-Regular', 'Newsreader';font-size:18.908px;fill:rgb(233,159,85);">w<tspan x="13.075px " y="0px ">e</tspan>bde<tspan x="49.397px " y="0px ">v</tspan></text>
                        </g>
                    </g>
                </g>
                <a class="svg-link-container" href="about/index.html">
                <g id="svg-link-about" transform="matrix(8.93493e-18,0.145919,-0.145919,8.93496e-18,430.891,-64.8491)">
                    <text x="675px" y="139px" style="font-family:'Newsreader16pt-Regular', 'Newsreader', sans-serif;font-size:75.387px;">about</text>
                </g>
                </a>

                <a class="svg-link-container" href="projects/index.html">
                    <g id="svg-link-projects" serif:id="svg-link" transform="matrix(8.93493e-18,0.145919,-0.145919,8.93496e-18,430.891,-24.6267)">
                        <text x="675px" y="139px" style="font-family:'Newsreader16pt-Regular', 'Newsreader', sans-serif;font-size:75.387px;">projects</text>
                    </g>
                </a>
            </g>
        </g>
    </g>
</svg>
