<?xml version="1.0" encoding="utf-8"?>
<!-- Generator: Adobe Illustrator 26.2.1, SVG Export Plug-In . SVG Version: 6.00 Build 0)  -->
<svg version="1.1" id="Layer_1" xmlns="http://www.w3.org/2000/svg" xmlns:xlink="http://www.w3.org/1999/xlink" x="0px" y="0px"
	 viewBox="0 0 130.1 96.4" style="enable-background:new 0 0 130.1 96.4;" xml:space="preserve">
<style type="text/css">
	.st0{fill-rule:evenodd;clip-rule:evenodd;}
</style>
<path d="M29.1,41c-1-1.5-1.9-3-2.7-4.5c-1,0.3-2.1,0.7-3,1c-5.3,2-9.5,4.2-12.3,6.7C8.3,46.6,7,49.1,7,51.5s1.3,4.8,4.1,7.3
	c2.8,2.5,7,4.7,12.3,6.7l0.3,0.1c1.5-3.2,3.3-6.5,5.4-9.8l2.3,2.3c-1.8,3-3.4,5.8-4.7,8.6c5,1.6,10.7,2.9,17,3.8l4,4
	c-8.3-0.9-15.9-2.5-22.4-4.6c-1.6,4-2.5,7.6-2.7,10.6c-0.2,3.7,0.6,6.4,2.3,8.1c1.7,1.7,4.4,2.5,8.1,2.3c3.7-0.2,8.2-1.5,13.2-3.8
	c2.9-1.3,6-3,9.2-5l2.3,2.3c-3.5,2.2-6.9,4.1-10.2,5.5c-5.2,2.4-10.1,3.8-14.3,4.1c-4.2,0.3-7.9-0.7-10.5-3.2
	c-2.6-2.6-3.5-6.3-3.2-10.5c0.2-3.4,1.2-7.3,2.8-11.5l-0.2-0.1c-5.5-2-10.1-4.5-13.3-7.3c-3.2-2.8-5.3-6.2-5.3-9.9
	c0-3.7,2.1-7.1,5.3-9.9c3.2-2.8,7.8-5.3,13.3-7.3c0.8-0.3,1.7-0.6,2.6-0.9c-0.4-0.9-0.8-1.7-1.2-2.6c-2.4-5.2-3.8-10.1-4.1-14.3
	c-0.3-4.2,0.7-7.9,3.2-10.5c2.6-2.6,6.3-3.5,10.5-3.2c4.2,0.3,9.1,1.7,14.3,4.1c3.2,1.5,6.7,3.3,10.2,5.5l-2.3,2.3
	c-3.2-2-6.3-3.6-9.2-5c-5-2.3-9.5-3.6-13.2-3.8c-3.7-0.2-6.4,0.6-8.1,2.3c-1.7,1.7-2.5,4.4-2.3,8.1c0.2,3.7,1.5,8.2,3.8,13.2
	c0.4,1,0.9,1.9,1.4,2.9c3.9-1.1,8.1-2.1,12.6-2.8l-4.3,4.3c-2.3,0.5-4.6,1-6.7,1.6c0.4,0.7,0.8,1.4,1.2,2.1c0.2,0.3,0.4,0.7,0.6,1
	L29.1,41z"/>
<path d="M82.6,89.8c-3.2-1.5-6.7-3.3-10.2-5.5l2.3-2.3c3.2,2,6.3,3.6,9.2,5c5,2.3,9.5,3.6,13.2,3.8c3.7,0.2,6.4-0.6,8.1-2.3
	c1.7-1.7,2.5-4.4,2.3-8.1c-0.2-3-1.1-6.6-2.7-10.6c-6.4,2.1-14,3.6-22.4,4.6l4-4c6.3-0.9,12-2.2,17-3.8c-1.3-2.7-2.8-5.6-4.7-8.6
	l2.3-2.3c2.1,3.4,3.9,6.7,5.4,9.8l0.3-0.1c5.3-2,9.5-4.2,12.3-6.7c2.8-2.5,4.1-4.9,4.1-7.3s-1.3-4.8-4.1-7.3
	c-2.8-2.5-7-4.7-12.3-6.7c-1-0.4-2-0.7-3-1c-0.8,1.5-1.7,3-2.7,4.5l-2.3-2.3c0.7-1.1,1.3-2.1,1.9-3.2c-1.2-0.3-2.5-0.7-3.8-1
	c-0.9-0.2-1.9-0.4-2.9-0.6l-4.3-4.3c4.5,0.7,8.8,1.7,12.6,2.8c0.5-1,1-2,1.4-2.9c2.3-5,3.6-9.5,3.8-13.2c0.2-3.7-0.6-6.4-2.3-8.1
	c-1.7-1.7-4.4-2.5-8.1-2.3c-3.7,0.2-8.2,1.5-13.2,3.8c-2.9,1.3-6,3-9.2,5l-2.3-2.3c3.5-2.2,6.9-4.1,10.2-5.5
	c5.2-2.4,10.1-3.8,14.3-4.1c4.2-0.3,7.9,0.7,10.5,3.2c2.6,2.6,3.5,6.3,3.2,10.5c-0.3,4.2-1.7,9.1-4.1,14.3c-0.2,0.4-0.4,0.8-0.6,1.2
	c-0.2,0.4-0.4,0.9-0.7,1.3c0.9,0.3,1.8,0.6,2.6,0.9c5.5,2,10.1,4.5,13.3,7.3c3.2,2.8,5.3,6.2,5.3,9.9c0,3.7-2.1,7.1-5.3,9.9
	c-3.2,2.8-7.8,5.3-13.3,7.3l-0.2,0.1c1.6,4.2,2.6,8,2.8,11.5c0.3,4.2-0.7,7.9-3.2,10.5c-2.6,2.6-6.3,3.5-10.5,3.2
	C92.7,93.6,87.9,92.2,82.6,89.8z"/>
<path class="st0" d="M102.4,46.4L67,11c-1.1-1.1-2.9-1.1-4,0L27.7,46.4c-1.1,1.1-1.1,2.9,0,4l20.8,20.8c5.7,0.7,10.1,0.7,16.6,0.7
	c6.8,0,10.7-0.1,16.8-0.9l20.6-20.6C103.5,49.2,103.5,47.5,102.4,46.4z M68.9,48.3c0,2.1-1.7,3.8-3.8,3.8c-2.1,0-3.8-1.7-3.8-3.8
	c0-2.1,1.7-3.8,3.8-3.8C67.2,44.6,68.9,46.3,68.9,48.3z M83.7,52.1c2.1,0,3.8-1.7,3.8-3.8c0-2.1-1.7-3.8-3.8-3.8
	c-2.1,0-3.8,1.7-3.8,3.8C79.9,50.4,81.6,52.1,83.7,52.1z M50.2,48.3c0,2.1-1.7,3.8-3.8,3.8c-2.1,0-3.8-1.7-3.8-3.8
	c0-2.1,1.7-3.8,3.8-3.8C48.5,44.6,50.2,46.3,50.2,48.3z"/>
<path d="M77.9,74.8c-4.1,0.4-7.7,0.4-12.9,0.4c-4.9,0-8.7,0-12.8-0.3l10.8,10.8c1.1,1.1,2.9,1.1,4,0L77.9,74.8z"/>
</svg>
