<?xml version="1.0" encoding="UTF-8" standalone="no"?>
<!DOCTYPE svg PUBLIC "-//W3C//DTD SVG 1.1//EN" "http://www.w3.org/Graphics/SVG/1.1/DTD/svg11.dtd">
<svg width="100%" height="100%" viewBox="0 0 126 213" version="1.1" xmlns="http://www.w3.org/2000/svg" xmlns:xlink="http://www.w3.org/1999/xlink" xml:space="preserve" xmlns:serif="http://www.serif.com/" style="fill-rule:evenodd;clip-rule:evenodd;stroke-linecap:round;stroke-miterlimit:10;">
    <g transform="matrix(1,0,0,1,-67915.7,-34964.2)">
        <g transform="matrix(4.40635,-2.28227e-32,0,0.853088,50131.3,29796.8)">
            <g id="io-processing">
                <g id="cog1" transform="matrix(0.22403,0.187274,-0.0362571,1.15716,-2108.34,-1930.3)">
                    <path d="M27932.8,2463.11C27931.3,2462.96 27929.7,2462.96 27928.2,2463.11L27927.5,2466.76C27926,2466.98 27924.6,2467.36 27923.2,2467.89L27920.8,2465.11C27919.4,2465.74 27918.1,2466.5 27916.8,2467.38L27918,2470.91C27916.9,2471.83 27915.8,2472.87 27914.9,2474.01L27911.4,2472.84C27910.5,2474.07 27909.7,2475.39 27909.1,2476.77L27911.9,2479.24C27911.4,2480.61 27911,2482.03 27910.8,2483.48L27907.1,2484.23C27907,2485.74 27907,2487.26 27907.1,2488.77L27910.8,2489.52C27911,2490.97 27911.4,2492.39 27911.9,2493.76L27909.1,2496.23C27909.7,2497.61 27910.5,2498.93 27911.4,2500.16L27914.9,2498.99C27915.8,2500.13 27916.9,2501.17 27918,2502.09L27916.8,2505.62C27918.1,2506.5 27919.4,2507.26 27920.8,2507.89L27923.2,2505.11C27924.6,2505.64 27926,2506.02 27927.5,2506.24L27928.2,2509.89C27929.7,2510.04 27931.3,2510.04 27932.8,2509.89L27933.5,2506.24C27935,2506.02 27936.4,2505.64 27937.8,2505.11L27940.2,2507.89C27941.6,2507.26 27942.9,2506.5 27944.2,2505.62L27943,2502.09C27944.1,2501.17 27945.2,2500.13 27946.1,2498.99L27949.6,2500.16C27950.5,2498.93 27951.3,2497.61 27951.9,2496.23L27949.1,2493.76C27949.6,2492.39 27950,2490.97 27950.2,2489.52L27953.9,2488.77C27954,2487.26 27954,2485.74 27953.9,2484.23L27950.2,2483.48C27950,2482.03 27949.6,2480.61 27949.1,2479.24L27951.9,2476.77C27951.3,2475.39 27950.5,2474.07 27949.6,2472.84L27946.1,2474.01C27945.2,2472.87 27944.1,2471.83 27943,2470.91L27944.2,2467.38C27942.9,2466.5 27941.6,2465.74 27940.2,2465.11L27937.8,2467.89C27936.4,2467.36 27935,2466.98 27933.5,2466.76L27932.8,2463.11ZM27930.5,2481.8C27933.1,2481.8 27935.2,2483.91 27935.2,2486.5C27935.2,2489.09 27933.1,2491.2 27930.5,2491.2C27927.9,2491.2 27925.8,2489.09 27925.8,2486.5C27925.8,2483.91 27927.9,2481.8 27930.5,2481.8Z" style="fill:rgb(229,180,131);"/>
                </g>
                <g id="cog2" transform="matrix(0.226346,-0.0850986,0.0164755,1.16912,-2312.4,5677.36)">
                    <path d="M27932.8,2463.11C27931.3,2462.96 27929.7,2462.96 27928.2,2463.11L27927.5,2466.76C27926,2466.98 27924.6,2467.36 27923.2,2467.89L27920.8,2465.11C27919.4,2465.74 27918.1,2466.5 27916.8,2467.38L27918,2470.91C27916.9,2471.83 27915.8,2472.87 27914.9,2474.01L27911.4,2472.84C27910.5,2474.07 27909.7,2475.39 27909.1,2476.77L27911.9,2479.24C27911.4,2480.61 27911,2482.03 27910.8,2483.48L27907.1,2484.23C27907,2485.74 27907,2487.26 27907.1,2488.77L27910.8,2489.52C27911,2490.97 27911.4,2492.39 27911.9,2493.76L27909.1,2496.23C27909.7,2497.61 27910.5,2498.93 27911.4,2500.16L27914.9,2498.99C27915.8,2500.13 27916.9,2501.17 27918,2502.09L27916.8,2505.62C27918.1,2506.5 27919.4,2507.26 27920.8,2507.89L27923.2,2505.11C27924.6,2505.64 27926,2506.02 27927.5,2506.24L27928.2,2509.89C27929.7,2510.04 27931.3,2510.04 27932.8,2509.89L27933.5,2506.24C27935,2506.02 27936.4,2505.64 27937.8,2505.11L27940.2,2507.89C27941.6,2507.26 27942.9,2506.5 27944.2,2505.62L27943,2502.09C27944.1,2501.17 27945.2,2500.13 27946.1,2498.99L27949.6,2500.16C27950.5,2498.93 27951.3,2497.61 27951.9,2496.23L27949.1,2493.76C27949.6,2492.39 27950,2490.97 27950.2,2489.52L27953.9,2488.77C27954,2487.26 27954,2485.74 27953.9,2484.23L27950.2,2483.48C27950,2482.03 27949.6,2480.61 27949.1,2479.24L27951.9,2476.77C27951.3,2475.39 27950.5,2474.07 27949.6,2472.84L27946.1,2474.01C27945.2,2472.87 27944.1,2471.83 27943,2470.91L27944.2,2467.38C27942.9,2466.5 27941.6,2465.74 27940.2,2465.11L27937.8,2467.89C27936.4,2467.36 27935,2466.98 27933.5,2466.76L27932.8,2463.11ZM27930.5,2481.8C27933.1,2481.8 27935.2,2483.91 27935.2,2486.5C27935.2,2489.09 27933.1,2491.2 27930.5,2491.2C27927.9,2491.2 27925.8,2489.09 27925.8,2486.5C27925.8,2483.91 27927.9,2481.8 27930.5,2481.8Z" style="fill:rgb(229,180,131);"/>
                </g>
                <g id="cog3" transform="matrix(0.221185,-0.262416,0.0508049,1.14246,-2244.91,10721.4)">
                    <path d="M27932.8,2463.11C27931.3,2462.96 27929.7,2462.96 27928.2,2463.11L27927.5,2466.76C27926,2466.98 27924.6,2467.36 27923.2,2467.89L27920.8,2465.11C27919.4,2465.74 27918.1,2466.5 27916.8,2467.38L27918,2470.91C27916.9,2471.83 27915.8,2472.87 27914.9,2474.01L27911.4,2472.84C27910.5,2474.07 27909.7,2475.39 27909.1,2476.77L27911.9,2479.24C27911.4,2480.61 27911,2482.03 27910.8,2483.48L27907.1,2484.23C27907,2485.74 27907,2487.26 27907.1,2488.77L27910.8,2489.52C27911,2490.97 27911.4,2492.39 27911.9,2493.76L27909.1,2496.23C27909.7,2497.61 27910.5,2498.93 27911.4,2500.16L27914.9,2498.99C27915.8,2500.13 27916.9,2501.17 27918,2502.09L27916.8,2505.62C27918.1,2506.5 27919.4,2507.26 27920.8,2507.89L27923.2,2505.11C27924.6,2505.64 27926,2506.02 27927.5,2506.24L27928.2,2509.89C27929.7,2510.04 27931.3,2510.04 27932.8,2509.89L27933.5,2506.24C27935,2506.02 27936.4,2505.64 27937.8,2505.11L27940.2,2507.89C27941.6,2507.26 27942.9,2506.5 27944.2,2505.62L27943,2502.09C27944.1,2501.17 27945.2,2500.13 27946.1,2498.99L27949.6,2500.16C27950.5,2498.93 27951.3,2497.61 27951.9,2496.23L27949.1,2493.76C27949.6,2492.39 27950,2490.97 27950.2,2489.52L27953.9,2488.77C27954,2487.26 27954,2485.74 27953.9,2484.23L27950.2,2483.48C27950,2482.03 27949.6,2480.61 27949.1,2479.24L27951.9,2476.77C27951.3,2475.39 27950.5,2474.07 27949.6,2472.84L27946.1,2474.01C27945.2,2472.87 27944.1,2471.83 27943,2470.91L27944.2,2467.38C27942.9,2466.5 27941.6,2465.74 27940.2,2465.11L27937.8,2467.89C27936.4,2467.36 27935,2466.98 27933.5,2466.76L27932.8,2463.11ZM27930.5,2481.8C27933.1,2481.8 27935.2,2483.91 27935.2,2486.5C27935.2,2489.09 27933.1,2491.2 27930.5,2491.2C27927.9,2491.2 27925.8,2489.09 27925.8,2486.5C27925.8,2483.91 27927.9,2481.8 27930.5,2481.8Z" style="fill:rgb(229,180,131);"/>
                </g>
                <g id="input" transform="matrix(0.0989249,2.64654e-33,0,0.568345,1292.75,4740.59)">
                    <g transform="matrix(2.29412,-6.47501e-48,-0,2.0625,27731.5,2316.85)">
                        <path d="M81.429,57.183L76.323,61.614L70.269,58.604" style="fill:none;stroke:black;stroke-width:2.5px;"/>
                        <path d="M25.512,15.104C25.512,15.104 70.618,21.02 76.323,61.614" style="fill:none;stroke:black;stroke-width:2.5px;stroke-miterlimit:5;"/>
                    </g>
                </g>
                <g id="output" transform="matrix(-0.0176975,0.341149,-0.0912015,-0.126223,4756.56,-2923.88)">
                    <g transform="matrix(-0.859018,-2.3217,3.2059,-0.622099,27290,2604.31)">
                        <path d="M19.407,202.875L16.587,196.73L21.175,191.764" style="fill:none;stroke:black;stroke-width:2.5px;"/>
                        <path d="M64.012,173.104C64.012,173.104 51.093,201.786 16.587,196.73" style="fill:none;stroke:black;stroke-width:2.5px;stroke-miterlimit:5;"/>
                    </g>
                </g>
            </g>
        </g>
    </g>
</svg>
