<?xml version="1.0" encoding="UTF-8" standalone="no"?>
<!DOCTYPE svg PUBLIC "-//W3C//DTD SVG 1.1//EN" "http://www.w3.org/Graphics/SVG/1.1/DTD/svg11.dtd">
<svg width="100%" height="100%" viewBox="0 0 50 10" version="1.1" xmlns="http://www.w3.org/2000/svg" xmlns:xlink="http://www.w3.org/1999/xlink" xml:space="preserve" xmlns:serif="http://www.serif.com/" style="fill-rule:evenodd;clip-rule:evenodd;stroke-linejoin:round;stroke-miterlimit:2;">
    <g transform="matrix(1,0,0,1,-1.3029,-75.651)">
        <g transform="matrix(4.16667,0,0,4.16667,0,0)">
            <g transform="matrix(1,0,0,1,-0.24,0)">
                <path d="M11.5,20.245C11.503,20.244 11.508,20.244 11.511,20.243C11.512,20.244 11.513,20.244 11.514,20.244C11.509,20.244 11.504,20.245 11.5,20.245ZM10.7,20.269L10.705,20.269C10.703,20.27 10.701,20.27 10.7,20.271L10.7,20.269ZM8.127,20.329L8.132,20.329L8.127,20.329ZM6.932,20.353C6.931,20.354 6.931,20.355 6.93,20.356C6.929,20.355 6.927,20.354 6.924,20.353L6.932,20.353C7.006,20.352 7.082,20.352 7.156,20.351C7.081,20.335 7.005,20.335 6.932,20.353ZM0.632,20.087C0.638,20.088 0.64,20.09 0.645,20.091C0.64,20.091 0.637,20.09 0.632,20.09L0.632,20.087ZM1.905,19.379C1.909,19.379 1.913,19.38 1.917,19.38C1.914,19.382 1.905,19.381 1.901,19.382C1.902,19.381 1.904,19.38 1.905,19.379ZM3.515,18.361C3.513,18.362 3.509,18.362 3.507,18.362L3.5,18.362C3.505,18.362 3.511,18.36 3.515,18.361ZM5.822,18.241L5.816,18.241L5.822,18.241ZM11.454,18.397L11.458,18.397C11.457,18.398 11.455,18.397 11.454,18.397C11.422,18.385 11.379,18.391 11.34,18.391C11.379,18.387 11.418,18.384 11.454,18.397ZM11.985,19.223L11.982,19.223L11.991,19.223C11.989,19.222 11.987,19.224 11.985,19.223ZM12.102,19.803C12.108,19.806 12.109,19.808 12.118,19.811C12.098,19.808 12.082,19.809 12.062,19.807C12.077,19.806 12.095,19.805 12.102,19.803ZM10.39,20.22C10.389,20.221 10.39,20.221 10.389,20.222C10.388,20.221 10.388,20.221 10.387,20.22L10.39,20.22ZM3.474,20.385C3.475,20.386 3.476,20.387 3.477,20.388L3.472,20.388C3.474,20.387 3.472,20.386 3.474,20.385ZM2.76,19.369C2.761,19.369 2.761,19.368 2.761,19.368L2.761,19.369L2.76,19.369C2.761,19.369 2.762,19.37 2.763,19.371C2.755,19.371 2.747,19.372 2.74,19.372C2.747,19.371 2.753,19.37 2.76,19.369ZM2.098,19.404L2.099,19.404C2.098,19.404 2.097,19.405 2.096,19.405C2.096,19.404 2.097,19.404 2.098,19.404ZM4.548,18.289L4.609,18.289C4.588,18.285 4.568,18.285 4.548,18.289ZM10.98,20.172L10.966,20.172L10.967,20.172C10.971,20.173 10.975,20.172 10.98,20.172ZM8.528,20.245C8.529,20.245 8.53,20.245 8.531,20.246C8.529,20.245 8.528,20.245 8.527,20.245L8.528,20.245ZM5.555,18.42C5.554,18.419 5.554,18.419 5.553,18.418C5.555,18.418 5.555,18.419 5.557,18.419C5.556,18.419 5.557,18.42 5.555,18.42ZM8.49,18.237C8.487,18.238 8.484,18.237 8.481,18.238C8.48,18.237 8.483,18.236 8.482,18.235C8.486,18.236 8.487,18.237 8.49,18.237ZM10.704,18.275C10.694,18.274 10.684,18.274 10.674,18.273L10.695,18.273C10.696,18.275 10.703,18.274 10.704,18.275ZM12.026,18.967C12.037,18.967 12.045,18.965 12.055,18.963C12.043,18.964 12.036,18.966 12.026,18.967ZM7.504,20.089C7.501,20.089 7.501,20.09 7.499,20.091C7.498,20.09 7.5,20.09 7.499,20.089L7.504,20.089ZM3.608,20.224L3.607,20.224L3.608,20.224ZM2.858,20.159C2.839,20.161 2.835,20.165 2.824,20.166C2.818,20.164 2.807,20.16 2.798,20.157C2.819,20.157 2.838,20.157 2.858,20.159ZM1.876,19.981L1.876,19.982C1.872,19.981 1.869,19.983 1.864,19.983C1.868,19.982 1.873,19.982 1.876,19.981ZM3.383,19.651C3.395,19.658 3.394,19.662 3.416,19.669C3.39,19.663 3.373,19.664 3.352,19.661C3.362,19.658 3.374,19.655 3.383,19.651ZM2.805,19.188L2.805,19.185C2.837,19.185 2.864,19.181 2.894,19.179C2.864,19.182 2.828,19.18 2.805,19.188ZM4.032,18.414C4.033,18.422 4.032,18.43 4.04,18.437C4.033,18.43 4.027,18.423 4.02,18.416L4.032,18.414ZM6.266,18.517C6.265,18.517 6.266,18.517 6.265,18.516C6.266,18.517 6.267,18.517 6.267,18.517L6.266,18.517ZM11.321,18.612L11.321,18.606C11.32,18.608 11.32,18.61 11.323,18.612L11.321,18.612ZM9.052,20.099C9.054,20.1 9.058,20.1 9.06,20.1C9.06,20.101 9.059,20.101 9.06,20.101C9.057,20.099 9.051,20.1 9.048,20.099L9.052,20.099ZM5.422,19.98C5.421,19.981 5.421,19.981 5.42,19.981C5.42,19.981 5.419,19.981 5.418,19.98C5.42,19.98 5.421,19.981 5.422,19.98ZM5.114,19.981C5.113,19.981 5.113,19.981 5.112,19.98C5.115,19.98 5.117,19.981 5.12,19.981L5.114,19.981ZM3.492,20.042C3.501,20.043 3.511,20.044 3.52,20.045C3.506,20.045 3.496,20.045 3.492,20.042ZM7.194,18.492C7.203,18.488 7.203,18.488 7.216,18.483C7.215,18.488 7.221,18.491 7.222,18.495C7.213,18.494 7.207,18.492 7.194,18.492ZM8.927,18.311C8.929,18.312 8.93,18.312 8.931,18.312L8.926,18.312C8.926,18.312 8.927,18.312 8.927,18.311ZM9.489,18.389C9.493,18.389 9.495,18.39 9.499,18.39C9.496,18.391 9.491,18.389 9.489,18.389ZM11.018,18.568C11.015,18.567 11.015,18.565 11.011,18.565C11.016,18.565 11.019,18.566 11.023,18.567C11.022,18.567 11.02,18.568 11.018,18.568ZM10.346,19.153L10.356,19.153L10.346,19.153ZM9.548,19.978C9.543,19.972 9.543,19.968 9.577,19.974L9.583,19.974C9.571,19.975 9.56,19.976 9.548,19.978ZM5.953,20.04C5.95,20.038 5.944,20.036 5.958,20.032C6.002,20.04 6.06,20.039 6.112,20.04L5.953,20.04ZM5.698,18.601C5.697,18.602 5.699,18.602 5.699,18.603C5.696,18.602 5.691,18.602 5.688,18.6C5.692,18.6 5.695,18.601 5.698,18.601ZM6.831,18.688C6.845,18.69 6.861,18.689 6.875,18.69C6.854,18.691 6.837,18.691 6.831,18.688ZM8.107,18.404C8.116,18.404 8.125,18.404 8.133,18.403C8.124,18.404 8.116,18.404 8.107,18.404ZM10.637,18.455C10.62,18.45 10.607,18.455 10.591,18.453C10.604,18.452 10.614,18.451 10.625,18.45C10.627,18.452 10.634,18.452 10.637,18.455ZM10.197,19.716L10.215,19.716L10.212,19.716C10.212,19.717 10.213,19.717 10.213,19.717C10.208,19.716 10.203,19.717 10.198,19.717C10.198,19.717 10.197,19.717 10.197,19.716ZM4.625,18.468L4.615,18.468C4.618,18.467 4.621,18.467 4.624,18.466L4.624,18.468L4.625,18.468ZM7.56,18.672C7.547,18.669 7.536,18.67 7.523,18.668C7.531,18.669 7.54,18.667 7.547,18.668C7.551,18.67 7.556,18.671 7.56,18.672ZM7.919,18.679C7.796,18.687 7.677,18.687 7.6,18.675C7.623,18.678 7.645,18.681 7.68,18.676C7.687,18.675 7.684,18.674 7.689,18.673C7.765,18.677 7.84,18.682 7.919,18.679ZM7.554,18.516C7.552,18.517 7.549,18.518 7.547,18.519C7.549,18.518 7.552,18.517 7.554,18.516ZM10.306,18.637C10.305,18.637 10.303,18.636 10.302,18.636L10.316,18.636C10.313,18.637 10.309,18.636 10.306,18.637ZM10.834,18.924L10.835,18.924L10.834,18.924ZM5.211,18.59C5.208,18.59 5.204,18.589 5.201,18.588L5.207,18.588C5.208,18.589 5.21,18.59 5.211,18.59ZM7.745,18.616C7.782,18.619 7.821,18.62 7.859,18.622L7.86,18.622C7.825,18.616 7.785,18.616 7.745,18.616ZM9.626,19.589C9.622,19.596 9.626,19.6 9.625,19.606C9.615,19.605 9.613,19.597 9.6,19.598C9.609,19.595 9.619,19.593 9.626,19.589ZM3.781,19.525L3.78,19.525L3.781,19.525ZM7.767,18.789C7.87,18.79 7.971,18.79 8.073,18.788C7.973,18.792 7.871,18.792 7.767,18.789ZM9.786,19.169C9.786,19.169 9.784,19.169 9.784,19.168C9.785,19.168 9.786,19.169 9.787,19.169L9.786,19.169ZM5.868,19.642C5.86,19.639 5.852,19.636 5.844,19.633C5.855,19.635 5.862,19.639 5.868,19.642ZM5.661,19.607C5.666,19.609 5.674,19.61 5.68,19.611C5.665,19.611 5.648,19.613 5.631,19.614C5.641,19.613 5.654,19.604 5.661,19.607ZM4.105,18.958C4.12,18.956 4.135,18.952 4.145,18.953C4.155,18.954 4.166,18.953 4.177,18.954C4.154,18.956 4.133,18.953 4.11,18.958L4.105,18.958ZM8.4,18.654C8.396,18.655 8.396,18.656 8.392,18.657C8.391,18.656 8.388,18.656 8.387,18.656C8.392,18.655 8.396,18.654 8.4,18.654ZM8.926,18.649C8.923,18.647 8.918,18.648 8.916,18.647L8.925,18.647C8.925,18.648 8.926,18.648 8.926,18.649ZM9.634,18.746L9.63,18.746L9.634,18.746C9.645,18.748 9.655,18.75 9.666,18.753C9.659,18.749 9.654,18.746 9.634,18.746ZM9.301,19.128C9.31,19.128 9.319,19.127 9.328,19.127C9.322,19.128 9.317,19.131 9.31,19.129C9.308,19.128 9.304,19.128 9.301,19.128ZM6.989,19.58C7.066,19.59 7.147,19.591 7.229,19.589C7.15,19.589 7.07,19.586 6.989,19.58ZM4.624,18.972C4.579,18.973 4.535,18.969 4.489,18.973C4.452,18.976 4.475,18.966 4.461,18.965L4.457,18.965C4.512,18.968 4.568,18.97 4.624,18.972ZM7.654,19.286C7.666,19.29 7.67,19.287 7.68,19.29C7.66,19.289 7.641,19.29 7.622,19.29C7.632,19.288 7.645,19.289 7.654,19.286ZM8.582,19.093C8.587,19.092 8.592,19.09 8.602,19.088C8.606,19.089 8.612,19.089 8.616,19.09C8.605,19.091 8.591,19.09 8.582,19.093ZM5.244,19.102C5.244,19.103 5.245,19.104 5.245,19.104C5.239,19.104 5.234,19.103 5.228,19.102C5.233,19.102 5.239,19.103 5.244,19.102ZM6.917,19.353C6.893,19.346 6.859,19.348 6.829,19.347C6.861,19.347 6.896,19.347 6.926,19.351C6.924,19.352 6.919,19.352 6.917,19.353ZM5.75,19.372C5.742,19.371 5.73,19.372 5.724,19.37C5.732,19.371 5.741,19.371 5.75,19.372ZM7.198,19.148C7.287,19.148 7.368,19.155 7.443,19.167C7.371,19.153 7.291,19.144 7.198,19.148ZM5.758,19.266C5.758,19.269 5.751,19.271 5.751,19.274C5.74,19.271 5.738,19.271 5.73,19.269C5.74,19.268 5.748,19.266 5.758,19.266ZM6.534,19.141L6.541,19.141C6.54,19.141 6.54,19.142 6.539,19.142C6.538,19.141 6.535,19.141 6.534,19.141ZM4.89,19.128C4.89,19.127 4.894,19.128 4.894,19.127C4.898,19.128 4.905,19.128 4.91,19.129C4.903,19.129 4.897,19.128 4.89,19.128ZM4.319,18.654C4.301,18.651 4.314,18.639 4.341,18.631C4.343,18.632 4.345,18.633 4.348,18.633C4.333,18.64 4.328,18.647 4.323,18.655C4.321,18.655 4.321,18.655 4.319,18.654ZM6.132,19.825L6.131,19.825L6.132,19.825ZM2.982,18.672L2.983,18.672C2.982,18.673 2.981,18.673 2.981,18.674C2.981,18.673 2.982,18.673 2.982,18.672ZM11.942,18.937L11.939,18.937C11.94,18.936 11.941,18.936 11.941,18.936C11.942,18.936 11.942,18.936 11.942,18.937ZM10.212,18.229C10.211,18.229 10.21,18.228 10.209,18.228C10.21,18.228 10.209,18.228 10.21,18.227C10.21,18.228 10.211,18.228 10.212,18.229ZM12.355,19.238C12.348,19.233 12.342,19.229 12.336,19.224C12.367,19.195 12.315,19.173 12.245,19.154C12.223,19.141 12.23,19.127 12.246,19.115C12.23,19.087 12.213,19.06 12.197,19.033C12.21,19.001 12.22,18.971 12.123,18.948C12.043,18.924 12.007,18.892 11.9,18.875C11.881,18.854 11.967,18.846 11.98,18.829C11.983,18.792 11.986,18.756 11.989,18.72C12.001,18.675 11.989,18.633 11.855,18.6C11.918,18.587 11.894,18.569 11.894,18.552C11.895,18.544 11.895,18.537 11.896,18.528C11.92,18.502 11.867,18.481 11.849,18.457C11.804,18.435 11.8,18.404 11.678,18.396C11.452,18.344 11.359,18.26 11.098,18.217C10.996,18.206 10.894,18.194 10.793,18.182C10.775,18.182 10.758,18.182 10.741,18.181L10.74,18.181C10.56,18.158 10.369,18.152 10.171,18.159C10.185,18.163 10.199,18.165 10.213,18.169L10.211,18.169C10.2,18.165 10.189,18.161 10.171,18.159C10.094,18.163 10.018,18.166 9.941,18.17C9.889,18.166 9.836,18.163 9.783,18.158C9.718,18.166 9.645,18.161 9.578,18.165C9.647,18.165 9.721,18.173 9.783,18.158C9.705,18.158 9.626,18.157 9.547,18.157C9.473,18.161 9.388,18.151 9.323,18.168C9.191,18.158 9.059,18.151 8.926,18.168C8.734,18.146 8.537,18.17 8.343,18.165C8.138,18.163 7.934,18.161 7.729,18.165L7.729,18.169C7.642,18.191 7.544,18.162 7.458,18.172C7.19,18.208 6.901,18.185 6.624,18.195C6.52,18.202 6.416,18.205 6.312,18.195C6.232,18.19 6.158,18.195 6.084,18.203C6.012,18.197 5.939,18.196 5.868,18.204C5.822,18.205 5.776,18.206 5.73,18.207C5.694,18.205 5.661,18.206 5.645,18.216C5.394,18.225 5.143,18.234 4.892,18.242C4.847,18.245 4.801,18.248 4.755,18.25C4.695,18.231 4.635,18.208 4.58,18.251C4.568,18.252 4.556,18.253 4.543,18.253C4.528,18.256 4.529,18.26 4.531,18.264C4.531,18.264 4.531,18.263 4.53,18.263C4.506,18.265 4.481,18.267 4.457,18.268C4.48,18.266 4.506,18.266 4.53,18.263C4.535,18.26 4.54,18.257 4.543,18.253C4.467,18.248 4.39,18.247 4.313,18.252C4.107,18.288 3.856,18.292 3.643,18.323C3.538,18.33 3.459,18.357 3.338,18.35C3.214,18.368 3.107,18.392 2.962,18.403C2.883,18.409 2.764,18.421 2.764,18.457C2.745,18.466 2.709,18.468 2.674,18.469C2.584,18.481 2.496,18.536 2.54,18.54L2.539,18.54C2.51,18.556 2.48,18.573 2.451,18.588C2.365,18.607 2.358,18.633 2.362,18.661C2.307,18.668 2.361,18.678 2.408,18.697C2.393,18.701 2.377,18.706 2.362,18.709C2.2,18.717 2.096,18.889 2.14,18.901C2.126,18.905 2.111,18.909 2.097,18.913C2.033,18.911 1.977,18.916 1.924,18.926C1.864,18.925 1.804,18.925 1.744,18.924C1.689,18.932 1.699,18.947 1.696,18.959L1.702,18.961C1.642,18.961 1.635,18.983 1.646,18.987C1.678,18.998 1.626,19.008 1.654,19.009C1.738,19.019 1.781,19.04 1.833,19.058C1.687,19.085 1.64,19.145 1.426,19.151C1.319,19.165 1.179,19.168 1.169,19.211C1.187,19.227 1.223,19.242 1.202,19.259C1.07,19.305 1.304,19.322 1.307,19.357C1.302,19.369 1.297,19.379 1.291,19.391C1.289,19.397 1.312,19.395 1.321,19.398C1.311,19.396 1.301,19.393 1.291,19.391C1.274,19.396 1.236,19.405 1.241,19.407C1.274,19.423 1.335,19.415 1.385,19.415L1.519,19.415C1.554,19.418 1.588,19.422 1.625,19.418C1.621,19.419 1.611,19.418 1.607,19.42C1.58,19.416 1.559,19.405 1.519,19.415C1.516,19.422 1.513,19.429 1.509,19.436C1.541,19.434 1.572,19.431 1.603,19.429C1.678,19.431 1.48,19.483 1.638,19.499C1.631,19.504 1.625,19.508 1.619,19.512C1.558,19.518 1.586,19.54 1.662,19.537C1.814,19.529 1.81,19.615 1.746,19.631C1.548,19.645 1.857,19.669 1.743,19.717C1.549,19.739 1.451,19.79 1.294,19.824C1.223,19.844 1.089,19.855 1.158,19.895L1.164,19.896C1.035,19.938 0.781,19.941 0.718,20.002C0.639,20.006 0.63,20.022 0.628,20.04C0.57,20.064 0.491,20.089 0.631,20.114C0.624,20.15 0.676,20.185 0.689,20.219C0.707,20.265 0.85,20.308 0.802,20.363C0.8,20.365 0.86,20.372 0.892,20.375C0.968,20.374 1.051,20.383 1.118,20.366C1.148,20.369 1.178,20.372 1.208,20.374C1.3,20.376 1.392,20.375 1.476,20.363C1.536,20.362 1.596,20.361 1.655,20.36C1.757,20.361 1.859,20.361 1.96,20.362C2.017,20.37 2.075,20.375 2.141,20.373C2.171,20.374 2.2,20.375 2.23,20.376C2.284,20.383 2.319,20.374 2.354,20.366C2.312,20.369 2.271,20.373 2.23,20.376C2.364,20.404 2.524,20.397 2.676,20.401L2.717,20.401C2.919,20.43 3.134,20.407 3.342,20.411C3.384,20.411 3.427,20.411 3.47,20.41C3.707,20.41 3.944,20.409 4.181,20.409C4.311,20.422 4.421,20.403 4.539,20.394C4.547,20.396 4.556,20.397 4.563,20.399C4.672,20.398 4.784,20.409 4.887,20.391C5.239,20.372 5.603,20.401 5.951,20.372C6.182,20.385 6.416,20.368 6.646,20.375C6.648,20.374 6.649,20.375 6.65,20.375C6.649,20.375 6.648,20.374 6.647,20.375C6.756,20.373 6.87,20.385 6.973,20.367C7.088,20.366 7.203,20.365 7.318,20.364C7.411,20.362 7.509,20.373 7.594,20.354C7.651,20.353 7.708,20.352 7.765,20.352C7.776,20.348 7.764,20.345 7.761,20.342L7.787,20.342C7.78,20.345 7.772,20.348 7.765,20.352C7.901,20.349 8.041,20.362 8.172,20.343C8.245,20.336 8.332,20.345 8.395,20.329C8.585,20.329 8.775,20.329 8.965,20.328C9.051,20.315 9.147,20.328 9.234,20.32C9.485,20.311 9.741,20.318 9.99,20.302C10.083,20.307 10.171,20.304 10.255,20.292C10.265,20.288 10.253,20.284 10.245,20.281C10.249,20.28 10.253,20.281 10.258,20.281C10.257,20.285 10.256,20.289 10.255,20.292C10.326,20.291 10.396,20.291 10.465,20.29C10.559,20.29 10.657,20.301 10.743,20.283C10.729,20.281 10.714,20.28 10.7,20.279L10.7,20.278C10.711,20.282 10.723,20.285 10.743,20.283C10.89,20.273 11.047,20.288 11.19,20.269L11.18,20.266C11.182,20.265 11.182,20.264 11.183,20.264C11.185,20.266 11.188,20.267 11.19,20.269C11.484,20.264 11.781,20.279 12.071,20.256C12.136,20.256 12.189,20.252 12.201,20.232C12.215,20.224 12.23,20.216 12.244,20.208C12.26,20.188 12.393,20.17 12.258,20.148C12.301,20.129 12.296,20.109 12.301,20.089L12.294,20.088L12.294,20.087C12.296,20.088 12.299,20.088 12.301,20.089C12.388,20.033 12.341,19.976 12.298,19.92C12.296,19.92 12.293,19.921 12.291,19.922L12.298,19.92C12.276,19.9 12.268,19.877 12.211,19.861C12.216,19.852 12.221,19.843 12.226,19.835C12.253,19.799 12.273,19.764 12.216,19.73C12.219,19.73 12.221,19.729 12.222,19.725C12.222,19.722 12.216,19.719 12.204,19.717C12.147,19.693 12.09,19.668 12.034,19.644C12.025,19.603 11.964,19.573 11.811,19.559C11.782,19.545 11.738,19.539 11.681,19.536C11.665,19.532 11.649,19.528 11.633,19.524C11.647,19.516 11.661,19.508 11.674,19.5C11.69,19.499 11.706,19.498 11.722,19.498C11.774,19.488 11.833,19.485 11.895,19.485C11.968,19.487 12.027,19.479 12.078,19.465C12.112,19.464 12.145,19.462 12.161,19.453L12.162,19.453C12.262,19.431 12.254,19.393 12.332,19.369C12.337,19.344 12.343,19.32 12.349,19.295C12.354,19.295 12.356,19.294 12.357,19.29L12.356,19.29C12.397,19.273 12.397,19.255 12.355,19.238Z" style="fill-rule:nonzero;"/>
            </g>
        </g>
    </g>
</svg>
