<?xml version="1.0" encoding="UTF-8" standalone="no"?>
<!DOCTYPE svg PUBLIC "-//W3C//DTD SVG 1.1//EN" "http://www.w3.org/Graphics/SVG/1.1/DTD/svg11.dtd">
<svg width="100%" height="100%" viewBox="0 0 700 700" version="1.1" xmlns="http://www.w3.org/2000/svg" xmlns:xlink="http://www.w3.org/1999/xlink" xml:space="preserve" xmlns:serif="http://www.serif.com/" style="fill-rule:evenodd;clip-rule:evenodd;stroke-linejoin:round;stroke-miterlimit:2;">
    <g transform="matrix(1.58947,0,0,1.58947,-206.321,-95.0631)">
        <path d="M477.05,169.43L221.6,169.43C215.456,169.43 209.596,172.016 205.459,176.555C201.322,181.094 199.287,187.168 199.854,193.285L226.463,480.385L226.463,480.381C226.963,485.803 229.47,490.838 233.494,494.506C237.517,498.174 242.763,500.205 248.205,500.205L451.405,500.205C456.87,500.217 462.135,498.178 466.167,494.494C470.202,490.811 472.706,485.752 473.19,480.31L498.792,193.21C499.335,187.109 497.288,181.058 493.155,176.534C489.019,172.011 483.175,169.433 477.046,169.429L477.05,169.43ZM284.12,428.58C280.296,428.896 276.503,427.678 273.577,425.197C270.647,422.721 268.827,419.178 268.511,415.353L254.909,251.003C254.909,250.597 254.862,250.203 254.862,249.789C254.893,244.781 257.514,240.144 261.788,237.531C266.061,234.921 271.381,234.703 275.854,236.96C280.322,239.214 283.311,243.62 283.752,248.612L297.354,412.962C297.393,413.369 297.409,413.763 297.409,414.177L297.405,414.177C297.401,417.806 296.03,421.302 293.569,423.97C291.108,426.634 287.737,428.279 284.12,428.579L284.12,428.58ZM364.464,414.443C364.468,418.279 362.945,421.962 360.23,424.673C357.519,427.388 353.835,428.911 350,428.904L349.336,428.904C345.617,428.736 342.109,427.142 339.539,424.45C336.968,421.759 335.535,418.181 335.535,414.458L335.535,249.518C335.531,245.795 336.964,242.217 339.535,239.526C342.105,236.835 345.617,235.237 349.336,235.069L350,235.069C353.835,235.069 357.515,236.592 360.23,239.303C362.941,242.018 364.464,245.698 364.464,249.533L364.464,414.443ZM445.097,251.003L431.495,415.353C431.058,420.341 428.069,424.751 423.597,427.005C419.124,429.263 413.804,429.044 409.531,426.435C405.257,423.821 402.64,419.185 402.609,414.177C402.609,413.778 402.609,413.376 402.663,412.962L416.265,248.612C416.703,243.62 419.691,239.213 424.16,236.96C428.633,234.702 433.953,234.921 438.226,237.53C442.499,240.143 445.12,244.78 445.152,249.788C445.144,250.194 445.128,250.597 445.097,251.003L445.097,251.003ZM522.372,128.433L522.366,128.433C522.366,134.96 519.772,141.226 515.155,145.843C510.538,150.46 504.272,153.054 497.741,153.054L202.261,153.054C193.46,153.054 185.331,148.363 180.933,140.745C176.535,133.124 176.535,123.737 180.933,116.12C185.332,108.499 193.46,103.808 202.261,103.808L286.562,103.808C287.859,91.722 293.578,80.542 302.617,72.421C311.66,64.296 323.387,59.804 335.539,59.808L364.469,59.808C376.621,59.804 388.348,64.296 397.391,72.421C406.43,80.542 412.149,91.722 413.446,103.808L497.747,103.808C504.282,103.804 510.548,106.398 515.165,111.015C519.786,115.632 522.376,121.898 522.372,128.433Z" style="fill-rule:nonzero;"/>
    </g>
</svg>
