<?xml version="1.0" encoding="UTF-8" standalone="no"?>
<!DOCTYPE svg PUBLIC "-//W3C//DTD SVG 1.1//EN" "http://www.w3.org/Graphics/SVG/1.1/DTD/svg11.dtd">
<svg width="100%" height="100%" viewBox="0 0 492 441" version="1.1" xmlns="http://www.w3.org/2000/svg" xmlns:xlink="http://www.w3.org/1999/xlink" xml:space="preserve" xmlns:serif="http://www.serif.com/" style="fill-rule:evenodd;clip-rule:evenodd;stroke-linejoin:round;stroke-miterlimit:2;">
    <g transform="matrix(1,0,0,1,-19403.5,-26549.5)">
        <g transform="matrix(5.33178,0,0,5.2001,-266994,-172189)">
            <g>
                <g transform="matrix(0.0101452,-4.26047e-18,3.70012e-18,-0.0314969,53733,38274.1)">
                    <path d="M1550,1720C1550,1700 1557,1700 1860,1700C2163,1700 2170,1700 2170,1720C2170,1740 2163,1740 1860,1740C1557,1740 1550,1740 1550,1720Z" style="fill-rule:nonzero;"/>
                </g>
                <g transform="matrix(0.0101452,-4.26047e-18,3.70012e-18,-0.0314969,53742.5,38274.1)">
                    <path d="M1550,1720C1550,1700 1557,1700 1860,1700C2163,1700 2170,1700 2170,1720C2170,1740 2163,1740 1860,1740C1557,1740 1550,1740 1550,1720Z" style="fill-rule:nonzero;"/>
                </g>
                <g transform="matrix(0.0101452,-4.26047e-18,3.70012e-18,-0.0314969,53752,38274.1)">
                    <path d="M1550,1720C1550,1700 1557,1700 1860,1700C2163,1700 2170,1700 2170,1720C2170,1740 2163,1740 1860,1740C1557,1740 1550,1740 1550,1720Z" style="fill-rule:nonzero;"/>
                </g>
            </g>
            <g transform="matrix(0.0440459,0,0,0.0451612,51386.5,35988.1)">
                <g transform="matrix(0.120837,2.90738e-18,-3.04911e-16,-1.84975,53432,54020.1)">
                    <path d="M1550,1720C1550,1700 1557,1700 1860,1700C2163,1700 2170,1700 2170,1720C2170,1740 2163,1740 1860,1740C1557,1740 1550,1740 1550,1720Z" style="fill:rgb(125,37,33);fill-rule:nonzero;"/>
                </g>
                <g transform="matrix(0.120837,2.90738e-18,-3.04911e-16,-1.84975,53536.8,54020.1)">
                    <path d="M1550,1720C1550,1700 1557,1700 1860,1700C2163,1700 2170,1700 2170,1720C2170,1740 2163,1740 1860,1740C1557,1740 1550,1740 1550,1720Z" style="fill:rgb(125,37,33);fill-rule:nonzero;"/>
                </g>
                <g transform="matrix(0.120837,2.90738e-18,-3.04911e-16,-1.84975,53641.6,54020.1)">
                    <path d="M1550,1720C1550,1700 1557,1700 1860,1700C2163,1700 2170,1700 2170,1720C2170,1740 2163,1740 1860,1740C1557,1740 1550,1740 1550,1720Z" style="fill:rgb(125,37,33);fill-rule:nonzero;"/>
                </g>
                <g transform="matrix(0.120837,2.90738e-18,-3.04911e-16,-1.84975,53746.3,54020.1)">
                    <path d="M1550,1720C1550,1700 1557,1700 1860,1700C2163,1700 2170,1700 2170,1720C2170,1740 2163,1740 1860,1740C1557,1740 1550,1740 1550,1720Z" style="fill:rgb(125,37,33);fill-rule:nonzero;"/>
                </g>
                <g transform="matrix(0.120837,2.90738e-18,-3.04911e-16,-1.84975,53851.1,54020.1)">
                    <path d="M1550,1720C1550,1700 1557,1700 1860,1700C2163,1700 2170,1700 2170,1720C2170,1740 2163,1740 1860,1740C1557,1740 1550,1740 1550,1720Z" style="fill:rgb(125,37,33);fill-rule:nonzero;"/>
                </g>
                <g transform="matrix(0.120837,2.90738e-18,-3.04911e-16,-1.84975,53955.9,54020.1)">
                    <path d="M1550,1720C1550,1700 1557,1700 1860,1700C2163,1700 2170,1700 2170,1720C2170,1740 2163,1740 1860,1740C1557,1740 1550,1740 1550,1720Z" style="fill:rgb(125,37,33);fill-rule:nonzero;"/>
                </g>
            </g>
            <g>
                <g transform="matrix(0.030719,0,0,-0.0314969,53650.3,38335)">
                    <path d="M2520,1515C2520,1502 2566,1500 2853,1498L3185,1495L3182,1375C3178,1243 3171,1203 3133,1118C3109,1064 3105,1060 3074,1060C3047,1060 3040,1056 3040,1040C3040,1020 3047,1020 3700,1020L4360,1020L4400,1060L4120,1060L4095,1110C4057,1184 4040,1272 4040,1393L4040,1500L4110,1500C4166,1500 4180,1503 4180,1515C4180,1528 4081,1530 3350,1530C2622,1530 2520,1528 2520,1515ZM3465,1495L3720,1500L3997,1500L4003,1370C4008,1268 4015,1225 4035,1168C4049,1128 4063,1087 4067,1078C4072,1061 4046,1060 3615,1060C3183,1060 3158,1061 3166,1078C3213,1184 3224,1238 3226,1365C3228,1437 3229,1496 3229,1498C3230,1499 3283,1499 3348,1498L3465,1495ZM3682,1490L3508,1490L3682,1490Z" style="fill-rule:nonzero;"/>
                </g>
                <g transform="matrix(0.0507302,-1.13742e-33,-1.10933e-33,-0.0520148,53703.6,38355.9)">
                    <path d="M237,2643C233,2640 230,2343 230,1984C230,1348 231,1330 249,1320C280,1304 2011,1306 2033,1323C2049,1334 2050,1383 2048,1990L2045,2645L1144,2648C649,2649 240,2647 237,2643ZM2009.58,2633.47C2022.58,2625.47 2035,2540 2035,1993C2035,1648 2023.32,1357.87 2019.32,1348.87C2012.32,1331.87 1969,1330 1141,1330C281,1330 268.682,1330.87 258.682,1349.87C244.682,1376.87 242.946,2591.39 256.946,2618.39C266.946,2637.39 281,2640 1133,2640C1665,2640 2000.58,2639.47 2009.58,2633.47Z" style="fill-rule:nonzero;"/>
                </g>
            </g>
            <g transform="matrix(1,0,0,1,0.191641,-0.0887341)">
                <g transform="matrix(0.17613,0,0,0.18059,50516.2,33538.9)">
                    <circle cx="18186.6" cy="25921.4" r="4.411" style="fill:rgb(229,181,132);"/>
                </g>
                <g transform="matrix(0.17613,0,0,0.18059,50518.3,33538.9)">
                    <circle cx="18186.6" cy="25921.4" r="4.411" style="fill:rgb(125,38,34);"/>
                </g>
                <g transform="matrix(0.17613,0,0,0.18059,50520.3,33538.9)">
                    <circle cx="18186.6" cy="25921.4" r="4.411" style="fill:rgb(175,23,25);"/>
                </g>
            </g>
        </g>
    </g>
</svg>
