<?xml version="1.0" encoding="UTF-8" standalone="no"?>
<!DOCTYPE svg PUBLIC "-//W3C//DTD SVG 1.1//EN" "http://www.w3.org/Graphics/SVG/1.1/DTD/svg11.dtd">
<svg width="100%" height="100%" viewBox="0 0 861 686" version="1.1" xmlns="http://www.w3.org/2000/svg" xmlns:xlink="http://www.w3.org/1999/xlink" xml:space="preserve" xmlns:serif="http://www.serif.com/" style="fill-rule:evenodd;clip-rule:evenodd;stroke-linejoin:round;stroke-miterlimit:2;">
    <g transform="matrix(1,0,0,1,-18160.1,-25890.5)">
        <g transform="matrix(5.33178,0,0,5.2001,-266994,-172189)">
            <g id="laptop" transform="matrix(0.101732,0,0,0.114508,47924.8,32337.3)">
                <g transform="matrix(0.95529,-2.08896e-32,-2.08896e-32,-0.95529,52210.2,52476.5)">
                    <path d="M2550,2310C2531,2291 2530,2277 2530,1765C2530,1253 2531,1239 2550,1220C2570,1200 2583,1200 3358,1200C4055,1200 4148,1202 4168,1216L4190,1231L4190,2299L4168,2314C4148,2328 4055,2330 3358,2330C2583,2330 2570,2330 2550,2310ZM4158,2298C4175,2281 4175,1249 4158,1232C4142,1216 2599,1215 2569,1230C2551,1240 2550,1257 2550,1763C2550,2157 2553,2289 2562,2298C2579,2315 4141,2315 4158,2298Z" style="fill-rule:nonzero;"/>
                </g>
                <g transform="matrix(0.867355,-9.80976e-18,1.18221e-17,-0.95529,52504.8,52435.5)">
                    <path d="M2447,1128C2445.79,1127.31 2451.48,1114.61 2451.48,1114.61C2451.48,1114.61 2939.09,1107.11 3360,1107.11C3773.56,1107.11 4275.13,1082.39 4275.13,1082.39C4275.13,1082.39 4275.12,1125.62 4274,1126C4255,1134 2459,1135 2447,1128Z" style="fill-rule:nonzero;"/>
                </g>
            </g>
            <g transform="matrix(0.012345,-5.69125e-18,4.50243e-18,-0.0420744,53572.6,38174.6)">
                <path d="M1550,1720C1550,1700 1557,1700 1860,1700C2163,1700 2170,1700 2170,1720C2170,1740 2163,1740 1860,1740C1557,1740 1550,1740 1550,1720Z" style="fill-rule:nonzero;"/>
            </g>
            <g transform="matrix(0.121418,-6.90516e-17,2.49694e-16,-0.0420744,53299.2,38174.6)">
                <path d="M1550,1720C1550,1700 1557,1700 1860,1700C2163,1700 2170,1700 2170,1720C2170,1740 2163,1740 1860,1740C1557,1740 1550,1740 1550,1720Z" style="fill:rgb(229,181,132);fill-rule:nonzero;"/>
            </g>
            <g transform="matrix(0.012345,-5.69125e-18,4.50243e-18,-0.0420744,53584.1,38174.6)">
                <path d="M1550,1720C1550,1700 1557,1700 1860,1700C2163,1700 2170,1700 2170,1720C2170,1740 2163,1740 1860,1740C1557,1740 1550,1740 1550,1720Z" style="fill-rule:nonzero;"/>
            </g>
            <g transform="matrix(0.012345,-5.69125e-18,4.50243e-18,-0.0420744,53595.6,38174.6)">
                <path d="M1550,1720C1550,1700 1557,1700 1860,1700C2163,1700 2170,1700 2170,1720C2170,1740 2163,1740 1860,1740C1557,1740 1550,1740 1550,1720Z" style="fill-rule:nonzero;"/>
            </g>
            <g transform="matrix(0.0644864,-3.59802e-17,1.21714e-16,-0.0420744,53442.8,38281.4)">
                <path d="M1550,1720C1550,1700 1557,1700 1860,1700C2163,1700 2170,1700 2170,1720C2170,1740 2163,1740 1860,1740C1557,1740 1550,1740 1550,1720Z" style="fill-rule:nonzero;"/>
            </g>
            <g transform="matrix(0.00994091,4.89035e-19,-2.88047e-17,-0.13709,53610.3,38338.1)">
                <path d="M1550,1720C1550,1700 1557,1700 1860,1700C2163,1700 2170,1700 2170,1720C2170,1740 2163,1740 1860,1740C1557,1740 1550,1740 1550,1720Z" style="fill:rgb(125,37,33);fill-rule:nonzero;"/>
            </g>
            <g transform="matrix(0.17613,0,0,0.18059,50285,33417)">
                <circle cx="18186.6" cy="25921.4" r="4.411" style="fill:rgb(229,181,132);"/>
            </g>
            <g transform="matrix(0.17613,0,0,0.18059,50287.1,33417)">
                <circle cx="18186.6" cy="25921.4" r="4.411" style="fill:rgb(125,38,34);"/>
            </g>
            <g transform="matrix(0.17613,0,0,0.18059,50289.1,33417)">
                <circle cx="18186.6" cy="25921.4" r="4.411" style="fill:rgb(175,23,25);"/>
            </g>
        </g>
    </g>
</svg>
