<?xml version="1.0" encoding="UTF-8" standalone="no"?>
<!DOCTYPE svg PUBLIC "-//W3C//DTD SVG 1.1//EN" "http://www.w3.org/Graphics/SVG/1.1/DTD/svg11.dtd">
<svg width="100%" height="100%" viewBox="0 0 300 629" version="1.1" xmlns="http://www.w3.org/2000/svg" xmlns:xlink="http://www.w3.org/1999/xlink" xml:space="preserve" xmlns:serif="http://www.serif.com/" style="fill-rule:evenodd;clip-rule:evenodd;stroke-linejoin:round;stroke-miterlimit:2;">
    <g transform="matrix(1,0,0,1,-20667.3,-26406.8)">
        <g transform="matrix(6.94257,0,0,7.81638,-353372,-271332)">
            <g transform="matrix(1,0,0,1,64.6205,19.0384)">
                <g transform="matrix(0.040332,0,0,-0.0453971,53757.9,38191.9)">
                    <path d="M1419,2607C1401,2595 1333.6,2550.75 1333.6,2550.75L1333.6,985.17C1333.6,985.17 1378,903 1415,880C1446,861 1464,860 1865,860C2334,860 2329,859 2378,933C2385.74,945.27 2392.23,952.566 2405,970.423L2405,2518.5L2381,2553C2369,2574 2341,2599 2319,2610C2283,2629 2259,2630 1867,2630L1453,2630L1419,2607ZM2271,2590C2290,2585 2319,2566 2336,2549L2365,2519L2368,1759C2371,900 2375,949 2295,910C2253,890 2240,889 1855,892L1459,895L1419,937L1380,979L1380,1740C1380,2563 1379,2541 1433,2572C1449,2582 1545,2586 1795,2590C1982,2593 2158,2597 2185,2598C2213,2599 2251,2595 2271,2590Z" style="fill-rule:nonzero;"/>
                </g>
                <g transform="matrix(0.0477559,-2.50799e-17,5.5224e-17,-0.109018,53744.4,38262.9)">
                    <path d="M1558.34,1727.88C1558.34,1707.88 1557,1700 1860,1700C2163,1700 2163.52,1714.34 2163.52,1734.34C2163.52,1754.34 2163,1740 1860,1740C1557,1740 1558.34,1747.88 1558.34,1727.88Z" style="fill-rule:nonzero;"/>
                </g>
            </g>
        </g>
    </g>
</svg>
