<?xml version="1.0" encoding="UTF-8" standalone="no"?>
<!DOCTYPE svg PUBLIC "-//W3C//DTD SVG 1.1//EN" "http://www.w3.org/Graphics/SVG/1.1/DTD/svg11.dtd">
<svg width="100%" height="100%" viewBox="0 0 420 584" version="1.1" xmlns="http://www.w3.org/2000/svg" xmlns:xlink="http://www.w3.org/1999/xlink" xml:space="preserve" xmlns:serif="http://www.serif.com/" style="fill-rule:evenodd;clip-rule:evenodd;stroke-linejoin:round;stroke-miterlimit:2;">
    <g transform="matrix(1,0,0,1,-20165.6,-25658.9)">
        <g transform="matrix(5.33178,0,0,5.2001,-266994,-172189)">
            <g id="tablet" transform="matrix(0.0734098,0,0,0.0826291,50065.7,33984.6)">
                <g transform="matrix(1.15176,-2.51859e-32,-2.51859e-32,-1.15176,46191.4,51811)">
                    <path d="M4762,2288C4745,2271 4745,1149 4762,1132C4771,1123 4885,1120 5211,1120L5649,1120L5664,1142C5678,1162 5680,1232 5680,1710C5680,2188 5678,2258 5664,2278L5649,2300L5211,2300C4885,2300 4771,2297 4762,2288ZM5654,2264C5664,2238 5661,1166 5650,1150C5642,1137 5582,1135 5225,1132C4945,1130 4803,1133 4790,1140C4770,1150 4770,1162 4770,1709C4770,2016 4773,2270 4777,2273C4780,2277 4978,2280 5216,2280C5601,2280 5649,2278 5654,2264Z" style="fill-rule:nonzero;"/>
                </g>
                <g transform="matrix(0.980044,0,0,-0.935968,50402.5,52065.7)">
                    <path d="M1550,1720C1550,1700 1557,1700 1860,1700C2163,1700 2170,1700 2170,1720C2170,1740 2163,1740 1860,1740C1557,1740 1550,1740 1550,1720Z" style="fill-rule:nonzero;"/>
                </g>
                <g transform="matrix(0.610813,-2.05794e-16,4.39581e-16,-1.64053,50937.7,52072.1)">
                    <path d="M1550,1720C1550,1700 1557,1700 1860,1700C2163,1700 2170,1700 2170,1720C2170,1740 2163,1740 1860,1740C1557,1740 1550,1740 1550,1720Z" style="fill-rule:nonzero;"/>
                </g>
                <g transform="matrix(0.122852,5.50709e-17,-6.9153e-16,-1.64053,51565.5,52072.1)">
                    <path d="M1550,1720C1550,1700 1557,1700 1860,1700C2163,1700 2170,1700 2170,1720C2170,1740 2163,1740 1860,1740C1557,1740 1550,1740 1550,1720Z" style="fill:rgb(125,37,33);fill-rule:nonzero;"/>
                </g>
                <g transform="matrix(0.122852,5.50709e-17,-6.9153e-16,-1.64053,52145.9,52072.1)">
                    <path d="M1550,1720C1550,1700 1557,1700 1860,1700C2163,1700 2170,1700 2170,1720C2170,1740 2163,1740 1860,1740C1557,1740 1550,1740 1550,1720Z" style="fill-rule:nonzero;"/>
                </g>
                <g transform="matrix(0.122852,5.50709e-17,-6.9153e-16,-1.64053,52289.6,52072.1)">
                    <path d="M1550,1720C1550,1700 1557,1700 1860,1700C2163,1700 2170,1700 2170,1720C2170,1740 2163,1740 1860,1740C1557,1740 1550,1740 1550,1720Z" style="fill-rule:nonzero;"/>
                </g>
            </g>
        </g>
    </g>
</svg>
