<?xml version="1.0" encoding="UTF-8" standalone="no"?>
<!DOCTYPE svg PUBLIC "-//W3C//DTD SVG 1.1//EN" "http://www.w3.org/Graphics/SVG/1.1/DTD/svg11.dtd">
<svg width="100%" height="100%" viewBox="0 0 1920 1080" version="1.1" xmlns="http://www.w3.org/2000/svg" xmlns:xlink="http://www.w3.org/1999/xlink" xml:space="preserve" xmlns:serif="http://www.serif.com/" style="fill-rule:evenodd;clip-rule:evenodd;stroke-linecap:round;stroke-linejoin:round;stroke-miterlimit:1.5;">
    <path d="M1798,133C1623.33,106.333 1286.83,-34.833 1274,53C1261.17,140.833 1799.5,588.167 1721,660C1642.5,731.833 905.333,571.833 803,484C700.667,396.167 1199,199.167 1107,133C1015,66.833 242.667,-30 251,87C259.333,204 1120,694.833 1157,835C1194,975.167 623.833,1003.17 473,928C322.167,852.833 233.833,506.833 252,384C270.167,261.167 472,255.333 582,191C692,126.667 1273.83,308.667 1411,434C1536.26,548.456 1407,773.333 1405,943" style="fill:none;stroke:rgb(220,222,226);stroke-width:3.5px;stroke-dasharray:7,17.5,3.5,0;"/>
</svg>
