<?xml version="1.0" encoding="UTF-8" standalone="no"?>
<!DOCTYPE svg PUBLIC "-//W3C//DTD SVG 1.1//EN" "http://www.w3.org/Graphics/SVG/1.1/DTD/svg11.dtd">
<svg width="100%" height="100%" viewBox="0 0 800 600" version="1.1" xmlns="http://www.w3.org/2000/svg" xmlns:xlink="http://www.w3.org/1999/xlink" xml:space="preserve" xmlns:serif="http://www.serif.com/" style="fill-rule:evenodd;clip-rule:evenodd;stroke-linejoin:round;stroke-miterlimit:2;">
    <g transform="matrix(0.046875,-1.33496e-21,1.33496e-21,-0.0468859,148.562,600)">
        <path d="M1065,12786C600,12696 167,12227 36,11670C-27,11402 0,11046 100,10832C163,10697 347,10460 495,10323C652,10178 752,10138 813,10194C877,10253 868,10315 730,10748C702,10838 676,10918 674,10925C670,10935 679,10935 722,10925C759,10916 787,10901 818,10873C882,10813 947,10796 1079,10803C1172,10808 1302,10836 1374,10866C1392,10873 1393,10870 1387,10827C1383,10801 1362,10725 1339,10657C1302,10548 1297,10525 1297,10440C1296,10278 1337,10163 1499,9870C1690,9526 1714,9465 1714,9330C1714,9256 1710,9238 1686,9191C1655,9131 1570,9037 1509,8995C1477,8972 1470,8962 1470,8933C1470,8835 1408,8618 1260,8200C1171,7948 1140,7819 1133,7680C1124,7499 1159,7394 1266,7281C1332,7209 1349,7172 1375,7036C1397,6921 1394,6778 1364,6579C1333,6371 1335,6214 1370,6091C1388,6026 1453,5883 1491,5822C1502,5804 1501,5798 1485,5779C1451,5742 1392,5710 1302,5681C1254,5665 1183,5632 1145,5609L1075,5565L1135,5559C1168,5555 1266,5552 1353,5551L1510,5550L1554,5510C1613,5456 1663,5355 1745,5130C1816,4934 1899,4749 1948,4678C1965,4654 2025,4587 2082,4530C2158,4453 2195,4406 2223,4353C2316,4176 2329,4092 2340,3635C2348,3299 2350,3269 2373,3179C2416,3014 2503,2873 2613,2790L2659,2755L2660,1797L2660,839L2622,792C2452,585 2466,304 2650,249C2723,227 2828,271 2914,359L2954,400L2982,350C3013,296 3070,248 3127,229C3255,187 3462,292 3616,478C3905,827 4007,1253 3849,1452C3799,1515 3732,1705 3694,1890C3674,1988 3667,2056 3663,2205C3656,2431 3664,2518 3730,2980C3757,3170 3782,3352 3786,3385L3792,3446L3723,3515C3572,3667 3451,3917 3419,4141C3407,4232 3416,4296 3445,4320C3476,4346 3584,4285 3695,4179C3731,4145 3792,4108 3919,4045C4015,3997 4100,3952 4108,3943C4122,3930 4116,3929 4058,3932L3992,3935L3985,3886C3982,3860 3981,3836 3983,3833C3986,3831 4017,3825 4054,3819C4090,3814 4150,3806 4187,3800C4269,3789 4394,3730 4472,3667C4690,3488 4821,3118 4859,2574C4866,2487 4878,2353 4887,2276C4906,2111 4901,1995 4865,1818C4827,1628 4808,1566 4641,1120C4581,958 4516,773 4497,710C4402,396 4410,158 4518,113C4576,89 4630,103 4800,185C4885,226 4970,263 4987,266C5052,279 5090,221 5090,113C5090,85 5093,48 5096,31C5102,5 5107,0 5131,0C5147,0 5191,15 5228,34C5554,199 5773,565 5825,1033C5837,1137 5831,1394 5815,1501C5799,1607 5782,1680 5735,1830C5654,2094 5667,2386 5775,2675C5815,2782 5927,3012 6032,3201C6073,3275 6101,3339 6108,3375C6130,3484 6201,3566 6322,3623C6486,3701 6694,3699 6784,3619C6855,3557 6869,3433 6820,3295C6800,3237 6800,3233 6816,3161C6829,3104 6831,3057 6827,2951C6820,2761 6788,2628 6673,2305C6632,2190 6587,2064 6574,2025C6496,1793 6473,1595 6505,1431C6515,1381 6525,1340 6529,1341C6532,1341 6566,1377 6603,1421C6640,1464 6692,1512 6718,1527C6759,1551 6775,1555 6845,1555C6915,1554 6933,1550 6987,1522C7021,1505 7094,1456 7149,1415C7267,1326 7243,1322 7390,1457C7556,1610 7656,1740 7735,1905C7830,2102 7855,2223 7855,2475C7855,2721 7834,2839 7740,3135C7684,3311 7675,3377 7675,3610C7675,3813 7681,3866 7717,4000C7749,4115 7804,4190 7857,4190C7890,4190 7947,4152 8008,4086C8066,4025 8079,4021 8261,4005C8426,3990 8451,4068 8308,4151C8268,4174 8204,4211 8166,4233C8081,4282 8000,4358 8000,4389C8000,4402 8013,4424 8029,4439C8070,4477 8334,4606 8422,4630C8509,4654 8619,4656 8683,4634C8779,4601 8854,4505 8893,4366C8908,4312 8914,4248 8919,4095C8922,3985 8928,3890 8933,3883C8956,3847 8982,3674 8987,3520C8991,3380 8988,3319 8964,3115C8926,2788 8924,2490 8958,2324L8981,2213L8940,2148C8894,2074 8839,1946 8813,1850C8800,1803 8795,1747 8795,1645C8795,1480 8809,1427 8871,1357C8966,1249 9092,1259 9230,1386L9288,1440L9328,1372C9451,1164 9613,1145 9756,1319C9860,1444 9979,1727 10041,1995C10062,2084 10064,2119 10064,2305C10062,2599 10046,2758 9955,3375C9870,3952 9866,4003 9843,4787C9838,4956 9851,5065 9884,5143L9899,5180L9952,5174C9982,5171 10024,5173 10047,5179C10089,5190 10091,5190 10141,5150C10185,5116 10199,5110 10241,5110C10278,5110 10294,5115 10310,5132C10321,5144 10330,5158 10330,5162C10330,5187 10295,5231 10238,5277C10157,5343 10083,5422 10070,5456C10062,5476 10063,5488 10075,5506C10093,5534 10102,5535 10135,5514C10148,5506 10185,5496 10217,5493C10252,5489 10289,5478 10310,5464C10420,5392 10526,5395 10544,5472C10552,5507 10507,5560 10433,5602C10404,5618 10380,5638 10380,5645C10380,5653 10401,5714 10426,5782C10527,6053 10543,6118 10544,6265C10544,6353 10539,6402 10526,6447C10494,6557 10521,6587 10641,6575L10707,6569L10719,6616C10732,6669 10732,6669 10670,6695C10645,6705 10621,6717 10617,6720C10613,6724 10616,6758 10624,6796C10674,7018 10672,7191 10615,7865C10606,7970 10600,8090 10603,8133C10608,8202 10613,8218 10644,8266L10680,8320L10598,8320C10443,8320 10413,8352 10340,8594C10317,8671 10287,8756 10273,8783C10241,8847 10162,8931 10106,8961C10067,8981 10061,8989 10050,9037C10025,9152 9957,9289 9876,9392C9787,9503 9675,9588 9356,9785C9161,9905 9026,10013 8940,10115C8868,10201 8785,10262 8645,10332C8407,10452 8130,10501 7826,10480C7554,10460 7368,10422 6915,10290C6767,10247 6614,10207 6575,10201C6453,10183 6281,10177 6108,10185L5942,10192L5960,10235C5995,10316 6030,10441 6057,10578C6082,10706 6084,10733 6084,10995C6085,11282 6078,11356 6034,11535C5980,11754 5868,12001 5753,12155C5617,12337 5426,12494 5222,12591C5121,12640 4817,12741 4715,12761C4610,12782 4309,12779 4195,12756C3889,12695 3562,12543 3292,12337L3185,12255L3020,12255C2719,12256 2570,12303 2365,12460C2321,12494 2249,12549 2205,12582C2073,12683 1931,12740 1725,12776C1600,12798 1162,12805 1065,12786ZM1470,11831C1497,11826 1510,11815 1527,11785C1556,11734 1556,11730 1521,11730C1491,11730 1353,11795 1310,11830L1285,11850L1360,11844C1401,11840 1451,11835 1470,11831ZM4810,11819C4746,11789 4547,11710 4544,11713C4543,11714 4553,11731 4565,11750C4584,11780 4599,11789 4661,11808C4752,11835 4765,11837 4815,11839L4855,11840L4810,11819ZM5410,10855C5425,10715 5468,10499 5513,10348C5547,10232 5547,10230 5526,10230C5515,10230 5408,10240 5290,10252C5150,10266 5004,10273 4872,10273L4669,10274L4749,10354C4793,10399 4833,10446 4838,10460C4876,10563 4856,10685 4772,10853C4739,10917 4715,10970 4717,10970C4719,10970 4775,10952 4842,10929C4984,10881 5039,10880 5133,10923C5196,10952 5291,11036 5348,11115L5385,11165L5392,11065C5396,11010 5404,10916 5410,10855ZM5740,10085C5728,10070 5710,10073 5710,10091C5710,10096 5720,10100 5731,10100C5749,10100 5750,10098 5740,10085ZM10222,5536C10233,5517 10232,5516 10209,5531C10196,5540 10179,5550 10171,5554C10160,5561 10160,5564 10171,5571C10186,5580 10206,5567 10222,5536ZM10050,5214L10075,5201L10051,5200C10015,5200 9950,5222 9956,5232C9963,5243 10015,5233 10050,5214ZM4832,3663C4846,3651 4847,3643 4839,3627C4828,3608 4827,3608 4804,3636C4791,3652 4775,3673 4770,3682C4760,3698 4762,3699 4787,3689C4802,3683 4823,3672 4832,3663Z" style="fill-rule:nonzero;"/>
    </g>
</svg>
