<?xml version="1.0" encoding="UTF-8" standalone="no"?>
<!DOCTYPE svg PUBLIC "-//W3C//DTD SVG 1.1//EN" "http://www.w3.org/Graphics/SVG/1.1/DTD/svg11.dtd">
<svg width="100%" height="100%" viewBox="0 0 34 41" version="1.1" xmlns="http://www.w3.org/2000/svg" xmlns:xlink="http://www.w3.org/1999/xlink" xml:space="preserve" xmlns:serif="http://www.serif.com/" style="fill-rule:evenodd;clip-rule:evenodd;stroke-linejoin:round;stroke-miterlimit:2;">
    <g transform="matrix(1,0,0,1,-1023.74,-975.591)">
        <g transform="matrix(1.07728,0,0,1.72663,114,968.369)">
            <g transform="matrix(-0.424329,0,0,0.264749,372.984,-252.192)">
                <g transform="matrix(0.00481748,7.56399e-35,7.1601e-35,-0.00481748,-1185.28,1029.89)">
                    <path d="M6361,12713C6266,12523 6077,11710 6035,11308L6028,11241L5985,11288C5932,11346 5919,11342 5872,11249C5807,11120 5762,10933 5758,10770C5755,10673 5755,10671 5735,10685C5682,10723 5629,10750 5620,10745C5575,10717 5519,10212 5538,10008C5543,9949 5542,9924 5535,9928C5530,9931 5498,9953 5465,9976C5385,10032 5324,10061 5306,10054C5280,10044 5268,9974 5269,9820C5269,9606 5304,9397 5364,9248C5378,9214 5388,9185 5387,9184C5386,9182 5333,9215 5271,9256C5102,9367 5088,9366 5076,9239C5057,9046 5111,8743 5190,8601C5207,8571 5218,8545 5216,8542C5213,8540 5180,8555 5143,8576C5024,8642 5006,8650 4978,8650C4937,8650 4927,8621 4933,8521C4942,8364 5021,8107 5120,7908C5152,7843 5174,7790 5168,7790C5162,7790 5121,7812 5076,7839C4933,7924 4931,7925 4906,7901C4887,7881 4885,7869 4886,7762C4886,7662 4891,7633 4914,7560C4961,7418 5035,7291 5132,7185C5178,7135 5180,7130 5159,7130C5146,7130 5108,7137 5075,7145C4983,7167 4953,7165 4933,7134C4917,7109 4917,7103 4934,7021C4956,6913 5022,6750 5106,6596C5142,6531 5169,6476 5167,6474C5166,6472 5138,6487 5106,6506C5028,6552 4998,6558 4971,6531C4929,6489 4950,6339 5024,6156C5066,6051 5122,5953 5197,5853L5250,5780L5200,5780C5143,5780 5083,5759 5074,5735C5062,5705 5092,5626 5200,5395C5260,5267 5312,5150 5316,5135C5327,5091 5299,5108 5269,5164C5255,5190 5234,5221 5222,5232C5204,5251 5198,5252 5172,5241C5156,5234 5130,5215 5114,5199C5080,5164 5070,5163 5070,5193C5070,5233 5032,5367 4996,5457C4930,5618 4823,5760 4767,5760C4733,5760 4714,5733 4700,5665C4686,5597 4690,5591 4634,5745C4558,5954 4449,6130 4395,6130C4369,6130 4341,6097 4300,6023C4271,5971 4260,5969 4260,6014C4260,6097 4213,6259 4160,6358C4079,6510 3934,6625 3902,6563C3897,6553 3887,6516 3881,6480C3874,6444 3864,6400 3858,6381L3847,6347L3819,6426C3757,6596 3620,6827 3521,6928C3439,7011 3413,6997 3379,6852C3368,6801 3355,6760 3351,6760C3348,6760 3336,6784 3326,6813C3288,6924 3161,7092 3033,7203C2900,7317 2896,7315 2860,7082L2848,7008L2821,7062C2806,7091 2782,7133 2768,7155C2686,7284 2482,7495 2395,7541C2351,7564 2348,7564 2335,7547C2321,7527 2300,7424 2300,7372C2300,7354 2297,7340 2293,7340C2288,7340 2260,7365 2230,7396C2097,7533 1793,7750 1736,7750C1726,7750 1717,7731 1709,7691L1697,7633L1618,7695C1489,7797 1291,7890 1204,7890L1168,7890L1175,7840C1179,7813 1179,7790 1176,7790C1173,7790 1100,7837 1013,7894C651,8132 192,8377 49,8409C-7,8422 -10,8406 33,8316C119,8135 481,7621 698,7373C749,7314 751,7310 727,7310C714,7310 688,7307 671,7304C641,7298 639,7295 645,7266C655,7219 713,7099 761,7029C784,6995 836,6932 877,6890C917,6847 950,6810 950,6806C950,6803 943,6800 934,6800C894,6800 840,6776 840,6759C840,6705 1137,6380 1284,6274L1313,6253L1244,6236C1153,6214 1100,6190 1100,6172C1100,6088 1463,5812 1654,5750C1701,5735 1693,5729 1590,5705C1492,5682 1443,5662 1436,5643C1427,5621 1544,5504 1649,5429C1750,5357 1870,5296 1946,5279C1975,5272 1997,5264 1995,5259C1992,5255 1953,5239 1907,5225C1766,5178 1756,5143 1864,5066C1994,4973 2201,4879 2373,4835C2478,4809 2480,4812 2330,4764C2233,4733 2226,4728 2234,4696C2244,4657 2294,4606 2367,4560C2486,4484 2626,4443 2783,4438C2831,4436 2870,4433 2870,4430C2870,4427 2853,4414 2833,4400C2724,4327 2707,4291 2761,4245C2827,4190 3001,4122 3183,4080C3236,4068 3280,4056 3280,4055C3280,4053 3251,4042 3215,4030C3117,3997 3107,3962 3180,3896C3265,3819 3476,3741 3659,3719L3757,3707L3723,3658C3655,3556 3654,3557 4050,3436C4149,3405 4167,3397 4177,3374C4184,3359 4188,3345 4186,3343C4184,3340 4156,3352 4124,3368C4036,3412 3920,3451 3872,3453C3824,3455 3806,3439 3815,3401C3818,3388 3824,3364 3827,3347L3833,3316L3789,3352C3688,3435 3514,3492 3430,3470C3409,3464 3388,3455 3385,3449C3381,3444 3394,3412 3414,3379C3434,3346 3450,3317 3450,3315C3450,3313 3417,3326 3378,3345C3281,3390 3142,3430 3054,3437C2989,3442 2981,3441 2971,3422C2962,3406 2966,3392 2990,3346C3007,3316 3020,3289 3020,3286C3020,3284 2994,3293 2963,3306C2833,3358 2570,3368 2570,3320C2570,3316 2590,3282 2615,3245C2644,3201 2653,3180 2642,3185C2521,3232 2253,3252 2188,3218C2162,3205 2166,3189 2204,3131L2239,3080L2152,3080C2056,3080 1866,3057 1814,3040C1776,3027 1773,3020 1796,2984C1805,2971 1811,2958 1809,2957C1807,2955 1765,2948 1717,2941C1589,2924 1450,2868 1450,2834C1450,2827 1460,2814 1472,2806C1498,2787 1493,2785 1390,2770C1207,2744 838,2652 710,2601C628,2568 623,2550 687,2522C792,2477 1100,2409 1355,2374C1427,2364 1487,2355 1489,2353C1491,2351 1486,2342 1477,2332C1467,2322 1460,2309 1460,2303C1460,2272 1665,2210 1767,2210C1801,2210 1830,2208 1830,2206C1830,2203 1821,2185 1809,2166L1788,2130L1816,2120C1864,2102 1991,2088 2126,2087L2258,2085L2231,2045C2167,1951 2177,1940 2322,1940C2435,1940 2549,1958 2633,1990L2681,2009L2667,1987C2623,1917 2599,1868 2603,1855C2622,1807 2875,1836 3034,1905C3050,1912 3048,1904 3021,1857C2985,1794 2986,1765 3025,1758C3087,1746 3275,1797 3403,1862L3482,1901L3444,1835C3411,1774 3409,1767 3423,1753C3446,1730 3544,1733 3624,1760C3683,1779 3759,1824 3834,1881C3860,1902 3862,1902 3857,1884C3841,1828 3839,1798 3850,1785C3878,1751 3981,1777 4136,1859C4229,1908 4230,1908 4215,1880C4195,1842 4196,1804 4216,1796C4282,1771 4465,1834 4582,1923L4628,1958L4634,1920C4641,1875 4662,1859 4701,1870C4719,1875 4735,1874 4746,1865C4761,1854 4755,1851 4695,1841C4613,1826 4542,1792 4505,1748L4478,1716L4500,1698C4512,1688 4531,1680 4541,1680C4573,1680 4562,1663 4525,1656C4479,1647 4319,1566 4295,1540C4271,1514 4283,1491 4328,1476L4360,1465L4287,1428C4209,1387 4120,1312 4120,1286C4120,1275 4135,1266 4165,1258C4206,1247 4226,1230 4199,1230C4157,1230 3953,1066 3962,1039C3964,1032 3984,1020 4007,1013L4047,999L3978,932C3863,821 3819,750 3866,750C3886,750 3884,745 3839,688C3767,596 3736,510 3776,510C3790,510 3791,508 3779,492C3771,481 3722,416 3670,347C3562,203 3474,68 3465,28C3459,4 3461,0 3478,0C3508,0 3737,117 3875,203C3979,268 3995,276 3998,259C4004,223 4082,245 4183,311C4214,332 4240,343 4240,337C4241,304 4257,298 4291,316C4332,337 4420,401 4471,447L4508,480L4519,435C4525,410 4536,390 4544,390C4577,390 4701,513 4747,591L4765,621L4775,573C4782,540 4791,524 4803,522C4827,517 4949,641 4977,699L4999,743L5007,710C5020,660 5043,650 5076,680C5110,711 5172,806 5201,871C5224,920 5240,927 5240,887C5240,875 5245,858 5250,850C5258,837 5263,837 5292,853C5338,878 5391,959 5410,1036L5427,1101L5444,1076C5453,1062 5469,1050 5480,1050C5504,1050 5551,1117 5590,1207C5614,1263 5621,1271 5626,1253C5635,1222 5660,1216 5690,1238C5721,1261 5788,1388 5796,1441C5801,1473 5806,1480 5819,1474C5874,1452 5885,1463 5941,1602C5971,1678 5982,1691 5995,1670C5998,1665 6010,1660 6020,1660C6050,1660 6078,1728 6098,1846C6114,1936 6118,1949 6129,1936C6145,1916 6164,1916 6179,1934C6185,1941 6215,2043 6245,2160C6275,2277 6303,2376 6306,2379C6310,2382 6310,2363 6307,2335C6292,2215 6269,1942 6262,1795C6254,1638 6258,1520 6280,1330C6313,1026 6321,946 6335,761C6344,647 6350,481 6348,384L6345,211L6409,208C6456,206 6474,209 6478,219C6481,226 6480,359 6477,514C6471,767 6465,861 6431,1180C6425,1232 6414,1340 6405,1419C6388,1584 6386,1775 6400,1940C6424,2215 6454,2480 6460,2473C6464,2469 6486,2400 6509,2320C6570,2110 6618,1967 6636,1942C6651,1920 6690,1911 6690,1930C6690,1936 6694,1940 6699,1940C6704,1940 6711,1916 6714,1888C6729,1778 6752,1697 6777,1672C6799,1650 6803,1649 6824,1663C6847,1678 6847,1678 6885,1585C6906,1533 6931,1482 6942,1470C6959,1452 6963,1451 6989,1465L7018,1479L7024,1442C7032,1394 7079,1294 7114,1253C7146,1215 7173,1211 7194,1242C7204,1256 7210,1259 7210,1250C7210,1243 7228,1199 7250,1153C7300,1050 7330,1030 7365,1074L7388,1103L7395,1061C7411,968 7504,834 7548,842C7558,844 7568,863 7575,890L7586,935L7598,899C7614,854 7693,724 7728,688C7765,648 7787,652 7801,700L7813,740L7843,688C7877,628 7981,520 8004,520C8023,520 8029,531 8038,582L8045,624L8078,573C8120,507 8246,388 8268,392C8279,394 8289,411 8295,437L8305,479L8374,421C8456,351 8545,296 8559,305C8565,308 8570,320 8570,332C8570,351 8572,351 8605,326C8655,287 8765,238 8792,242C8807,244 8814,251 8812,263C8810,272 8811,280 8814,280C8817,280 8857,256 8902,226C9060,123 9299,0 9340,0C9384,0 9256,213 9082,430C9027,499 9023,506 9042,513C9058,519 9061,526 9055,548C9046,586 9004,655 8964,700C8926,741 8923,750 8944,750C8969,750 8973,769 8954,798C8945,813 8899,864 8852,912C8780,986 8770,1000 8786,1006C8834,1021 8850,1031 8850,1044C8850,1067 8726,1174 8658,1210L8596,1243L8643,1257C8678,1267 8690,1276 8690,1290C8690,1316 8597,1395 8521,1433L8457,1464L8489,1477C8531,1495 8538,1516 8510,1545C8484,1573 8361,1635 8296,1652C8252,1664 8234,1680 8265,1680C8288,1680 8330,1702 8330,1715C8330,1732 8270,1785 8224,1808C8201,1820 8152,1834 8115,1841C8062,1850 8051,1855 8065,1862C8074,1868 8095,1870 8110,1867C8144,1860 8170,1884 8170,1923C8170,1938 8173,1950 8176,1950C8180,1950 8214,1929 8252,1904C8348,1840 8459,1797 8534,1796C8608,1795 8623,1811 8597,1864C8588,1884 8582,1900 8584,1900C8585,1900 8631,1877 8686,1850C8798,1792 8875,1767 8922,1772L8955,1775L8953,1838L8952,1900L8993,1864C9091,1781 9273,1719 9354,1741C9398,1753 9399,1769 9360,1835C9344,1863 9330,1887 9330,1890C9330,1893 9364,1879 9406,1859C9547,1790 9736,1742 9788,1761C9817,1772 9816,1802 9784,1857C9770,1882 9760,1903 9762,1906C9765,1908 9785,1901 9808,1890C9876,1857 9978,1837 10088,1836C10227,1835 10231,1843 10145,1975C10125,2004 10125,2004 10145,1996C10246,1956 10509,1925 10584,1944C10610,1950 10620,1985 10602,2006C10597,2011 10584,2031 10572,2050L10551,2085L10680,2086C10824,2088 10970,2105 10996,2124C11011,2136 11011,2139 10996,2168C10987,2185 10980,2201 10980,2205C10980,2208 11009,2210 11043,2210C11145,2210 11322,2264 11346,2301C11350,2308 11344,2321 11332,2331C11320,2340 11310,2350 11310,2353C11310,2355 11343,2361 11383,2364C11479,2374 11809,2434 11929,2465C12090,2506 12170,2537 12170,2560C12170,2594 11745,2714 11445,2765C11309,2788 11313,2786 11339,2814L11361,2838L11335,2858C11283,2899 11113,2949 11027,2950L10988,2950L11009,2984C11026,3010 11027,3020 11017,3028C10996,3046 10838,3071 10701,3078L10572,3085L10608,3144C10641,3198 10643,3203 10627,3215C10582,3247 10342,3239 10217,3200C10184,3189 10155,3182 10154,3183C10152,3184 10169,3211 10191,3244C10255,3339 10246,3350 10102,3350C10009,3350 9887,3328 9822,3300L9779,3281L9809,3334C9865,3432 9845,3452 9710,3432C9607,3417 9475,3372 9357,3312C9353,3310 9366,3336 9387,3370C9429,3441 9425,3460 9369,3472C9279,3491 9121,3436 9005,3346C8974,3321 8968,3319 8973,3335C8978,3345 8984,3373 8987,3397C8992,3435 8990,3440 8968,3451C8933,3466 8843,3442 8722,3385C8670,3360 8624,3340 8619,3340C8615,3340 8619,3354 8628,3370C8643,3396 8659,3405 8745,3431C8977,3502 9060,3530 9084,3546C9121,3569 9118,3607 9075,3664L9039,3710L9084,3710C9149,3710 9313,3744 9400,3775C9655,3868 9744,3979 9598,4025C9569,4034 9538,4044 9530,4047C9522,4049 9574,4066 9645,4085C9842,4135 9999,4200 10048,4253C10085,4292 10074,4318 9997,4375L9929,4425L10027,4433C10231,4448 10409,4517 10512,4621C10569,4678 10582,4708 10558,4727C10551,4733 10501,4752 10447,4770C10394,4787 10352,4806 10356,4811C10359,4816 10367,4820 10374,4820C10405,4820 10564,4872 10665,4915C10864,5000 11010,5098 11010,5145C11010,5177 10981,5195 10883,5225C10837,5239 10800,5254 10800,5258C10800,5263 10826,5271 10858,5278C10926,5292 11048,5353 11139,5417C11234,5485 11332,5573 11352,5607C11369,5636 11369,5638 11352,5653C11342,5662 11289,5681 11235,5695C11180,5709 11128,5723 11120,5726C11112,5729 11142,5746 11187,5764C11232,5782 11307,5821 11355,5851C11515,5951 11700,6118 11700,6163C11700,6187 11664,6206 11577,6228C11534,6239 11496,6250 11494,6253C11491,6255 11501,6265 11514,6274C11640,6356 11960,6705 11960,6760C11960,6772 11945,6780 11905,6790C11875,6797 11850,6806 11850,6809C11850,6812 11875,6839 11906,6869C11936,6898 11984,6952 12011,6989C12070,7066 12150,7222 12153,7265C12155,7294 12154,7295 12103,7298C12074,7300 12050,7303 12050,7306C12050,7309 12078,7343 12113,7383C12254,7546 12505,7882 12638,8090C12712,8204 12800,8371 12800,8397C12800,8474 12234,8188 11751,7868L11617,7779L11624,7830C11633,7894 11622,7899 11534,7875C11413,7842 11242,7749 11155,7668C11130,7646 11108,7629 11106,7631C11105,7633 11098,7661 11091,7693C11082,7736 11074,7750 11061,7750C11016,7750 10731,7546 10589,7413C10547,7373 10510,7340 10508,7340C10505,7340 10500,7373 10496,7412C10488,7501 10464,7556 10435,7552C10399,7546 10337,7497 10235,7395C10119,7280 10046,7186 9991,7081L9952,7007L9940,7096C9918,7264 9902,7295 9853,7269C9811,7247 9645,7084 9589,7011C9537,6942 9460,6796 9460,6766C9460,6727 9441,6764 9430,6827C9406,6954 9378,6996 9332,6971C9245,6924 9054,6626 8985,6427C8970,6384 8955,6351 8953,6354C8950,6356 8940,6398 8929,6447C8919,6495 8908,6545 8905,6558C8901,6573 8892,6580 8874,6580C8834,6580 8798,6556 8736,6490C8642,6387 8563,6203 8544,6038C8540,6006 8534,5983 8530,5985C8526,5988 8504,6021 8481,6060C8435,6138 8414,6147 8367,6110C8311,6066 8201,5853 8145,5680C8136,5650 8124,5621 8120,5617C8116,5613 8108,5635 8101,5666C8090,5725 8068,5760 8043,5760C7948,5760 7779,5467 7738,5232L7726,5161L7683,5201C7620,5259 7589,5256 7551,5188C7517,5126 7503,5110 7489,5110C7470,5110 7489,5159 7589,5370C7699,5600 7733,5686 7728,5721C7724,5754 7668,5780 7602,5780L7550,5780L7603,5853C7678,5953 7734,6051 7776,6156C7850,6339 7871,6489 7829,6531C7802,6558 7766,6552 7691,6506C7660,6487 7634,6473 7632,6475C7630,6477 7655,6527 7688,6587C7822,6830 7899,7061 7869,7131C7859,7156 7852,7160 7816,7160C7794,7159 7748,7153 7715,7145C7616,7121 7610,7124 7657,7173C7753,7274 7832,7405 7881,7550C7911,7636 7914,7657 7915,7762C7915,7870 7913,7881 7893,7901L7871,7923L7756,7857C7651,7796 7620,7782 7620,7795C7620,7797 7633,7821 7648,7847C7786,8084 7909,8539 7860,8631C7843,8662 7801,8654 7709,8601C7623,8552 7575,8531 7581,8546C7583,8551 7599,8582 7616,8615C7674,8725 7709,8874 7725,9078C7733,9177 7723,9302 7705,9326C7687,9352 7656,9339 7529,9256C7467,9215 7414,9182 7413,9184C7412,9185 7424,9221 7441,9265C7500,9417 7531,9609 7531,9830C7531,9978 7520,10044 7494,10054C7474,10062 7401,10024 7322,9966C7288,9941 7259,9920 7257,9920C7255,9920 7258,9959 7262,10008C7281,10212 7225,10717 7180,10745C7171,10751 7119,10723 7061,10682C7037,10665 7037,10665 7044,10693C7052,10727 7035,10909 7015,10994C6982,11135 6905,11315 6871,11328C6862,11331 6841,11316 6814,11287L6772,11241L6760,11338C6733,11561 6645,12008 6574,12295C6511,12546 6429,12770 6400,12770C6395,12770 6377,12744 6361,12713Z" style="fill:rgb(211,255,217);fill-rule:nonzero;"/>
                </g>
                <g transform="matrix(0.0818067,0,0,0.0818067,-1185,989.848)">
                    <path d="M671.504,577.829L781.989,145.22L902.86,145.22L902.86,77.22L729.174,77.22L703.128,179.2L0,178.697L74.753,577.826L671.504,577.826L671.504,577.829ZM685.766,247.188L618.689,509.828L131.199,509.828L81.928,246.756L685.766,247.188Z" style="fill:rgb(211,255,217);fill-rule:nonzero;"/>
                    <path d="M578.418,825.641C638.379,825.641 687.161,776.858 687.161,716.897C687.161,656.936 638.379,608.155 578.418,608.155L168.717,608.155C108.756,608.155 59.973,656.936 59.973,716.897C59.973,776.858 108.755,825.641 168.717,825.641C228.679,825.641 277.46,776.858 277.46,716.897C277.46,702.497 274.639,688.745 269.533,676.155L477.602,676.155C472.495,688.745 469.674,702.497 469.674,716.897C469.675,776.858 518.457,825.641 578.418,825.641ZM209.46,716.897C209.46,739.364 191.183,757.641 168.717,757.641C146.251,757.641 127.973,739.364 127.973,716.897C127.973,694.432 146.25,676.155 168.717,676.155C191.183,676.155 209.46,694.432 209.46,716.897ZM619.162,716.897C619.162,739.364 600.885,757.641 578.419,757.641C555.953,757.641 537.676,739.364 537.676,716.897C537.676,694.432 555.953,676.155 578.419,676.155C600.885,676.155 619.162,694.432 619.162,716.897Z" style="fill:rgb(211,255,217);fill-rule:nonzero;"/>
                </g>
            </g>
        </g>
    </g>
</svg>
