<?xml version="1.0" encoding="UTF-8" standalone="no"?>
<!DOCTYPE svg PUBLIC "-//W3C//DTD SVG 1.1//EN" "http://www.w3.org/Graphics/SVG/1.1/DTD/svg11.dtd">
<svg width="100%" height="100%" viewBox="0 0 32 30" version="1.1" xmlns="http://www.w3.org/2000/svg" xmlns:xlink="http://www.w3.org/1999/xlink" xml:space="preserve" xmlns:serif="http://www.serif.com/" style="fill-rule:evenodd;clip-rule:evenodd;stroke-linejoin:round;stroke-miterlimit:2;">
    <g transform="matrix(1,0,0,1,-977.339,-981.319)">
        <g transform="matrix(1.07728,0,0,1.72663,114,968.369)">
            <g transform="matrix(0.367081,0,0,0.22903,1224.28,-121.728)">
                <g transform="matrix(0.160271,0,0,0.160271,-1152,561.51)">
                    <path d="M487.083,225.514L412.003,150.434L412.003,63.704C412.003,48.022 399.295,35.313 383.59,35.313C367.921,35.313 355.213,48.022 355.213,63.704L355.213,93.645L299.31,37.74C271.671,10.116 223.616,10.165 196.04,37.79L8.312,225.514C-2.77,236.618 -2.77,254.585 8.312,265.672C19.399,276.773 37.401,276.773 48.484,265.672L236.194,77.943C242.309,71.86 253.087,71.86 259.17,77.925L446.912,265.672C452.479,271.223 459.737,273.984 466.993,273.984C474.264,273.984 481.534,271.22 487.084,265.672C498.17,254.586 498.17,236.619 487.083,225.514Z" style="fill:rgb(211,255,217);fill-rule:nonzero;"/>
                </g>
                <path d="M-1120.49,638.176L-1132.8,638.176C-1137.33,638.176 -1141,634.505 -1141,629.976L-1141,610.68C-1141,610.085 -1140.76,609.514 -1140.35,609.097L-1113.88,582.64C-1113.01,581.766 -1111.59,581.766 -1110.72,582.64L-1084.26,609.097C-1083.84,609.514 -1083.6,610.085 -1083.6,610.68L-1083.6,629.977C-1083.6,634.505 -1087.28,638.176 -1091.8,638.176L-1104.16,638.176C-1104.11,638.176 -1104.1,638.165 -1104.12,638.098C-1104.15,637.986 -1104.39,637.61 -1104.69,637.209C-1104.84,637.017 -1104.97,636.836 -1105,636.805C-1105.03,636.761 -1105.03,636.755 -1104.99,636.755C-1104.88,636.755 -1104.96,636.516 -1105.16,636.26C-1105.29,636.101 -1105.29,636.087 -1105.24,636.087C-1105.11,636.087 -1105.23,635.889 -1105.55,635.58L-1105.74,635.393L-1105.63,635.354C-1105.57,635.335 -1105.51,635.301 -1105.51,635.282C-1105.48,635.207 -1106.05,634.75 -1106.16,634.75C-1106.24,634.75 -1106.18,634.703 -1106.07,634.672C-1105.99,634.65 -1105.94,634.625 -1105.94,634.594C-1105.94,634.521 -1106.19,634.313 -1106.41,634.198L-1106.61,634.095L-1106.52,634.065C-1106.4,634.023 -1106.37,633.959 -1106.43,633.886C-1106.5,633.814 -1106.94,633.588 -1107.07,633.563C-1107.18,633.544 -1107.21,633.496 -1107.12,633.496C-1107.09,633.496 -1107.04,633.474 -1107,633.446L-1106.94,633.396L-1107.02,633.307C-1107.12,633.185 -1107.32,633.09 -1107.55,633.048C-1107.71,633.02 -1107.73,633.012 -1107.69,632.981C-1107.66,632.956 -1107.61,632.953 -1107.56,632.967C-1107.45,632.998 -1107.4,632.953 -1107.38,632.828L-1107.36,632.722L-1107.23,632.82C-1106.91,633.068 -1106.4,633.243 -1106.21,633.173C-1106.16,633.151 -1106.15,633.045 -1106.21,632.939C-1106.25,632.861 -1106.25,632.861 -1105.99,632.998C-1105.56,633.226 -1105.27,633.299 -1105.19,633.204C-1105.16,633.168 -1105.17,633.084 -1105.21,632.928C-1105.23,632.878 -1105.22,632.878 -1105.15,632.937C-1104.94,633.095 -1104.73,633.221 -1104.56,633.274C-1104.34,633.349 -1104.07,633.357 -1104,633.293C-1103.96,633.254 -1103.97,633.235 -1104.06,633.065L-1104.17,632.881L-1103.95,632.99C-1103.59,633.171 -1103.07,633.313 -1102.89,633.279C-1102.79,633.26 -1102.78,633.179 -1102.88,633.003C-1102.96,632.873 -1102.96,632.85 -1102.92,632.87C-1102.48,633.062 -1101.77,633.143 -1101.72,633.009C-1101.71,632.973 -1101.78,632.836 -1101.9,632.641L-1101.94,632.58L-1101.8,632.633C-1101.57,632.722 -1101.25,632.772 -1100.94,632.772C-1100.53,632.772 -1100.51,632.742 -1100.68,632.48L-1100.76,632.368L-1100.39,632.363C-1100.02,632.36 -1099.66,632.321 -1099.53,632.271L-1099.45,632.243L-1099.51,632.143C-1099.54,632.09 -1099.57,632.04 -1099.57,632.031C-1099.57,632.026 -1099.49,632.02 -1099.39,632.02C-1099.11,632.02 -1098.54,631.848 -1098.54,631.761C-1098.54,631.744 -1098.56,631.708 -1098.58,631.68C-1098.61,631.653 -1098.62,631.628 -1098.62,631.622C-1098.61,631.616 -1098.44,631.591 -1098.24,631.563C-1097.53,631.466 -1096.67,631.277 -1096.38,631.151C-1096.2,631.073 -1096.22,631.023 -1096.45,630.931C-1096.8,630.789 -1097.83,630.533 -1098.34,630.46C-1098.63,630.419 -1098.64,630.413 -1098.57,630.36C-1098.54,630.338 -1098.51,630.302 -1098.51,630.282C-1098.51,630.187 -1098.89,630.032 -1099.25,629.984C-1099.39,629.965 -1099.5,629.945 -1099.51,629.94C-1099.51,629.937 -1099.5,629.901 -1099.47,629.864C-1099.41,629.764 -1099.42,629.745 -1099.52,629.708C-1099.67,629.661 -1100.2,629.597 -1100.46,629.597L-1100.71,629.597L-1100.61,629.455C-1100.5,629.293 -1100.49,629.249 -1100.56,629.213C-1100.75,629.118 -1101.49,629.174 -1101.83,629.305C-1101.86,629.318 -1101.83,629.26 -1101.75,629.137C-1101.68,629.034 -1101.63,628.94 -1101.63,628.929C-1101.63,628.795 -1102.36,628.823 -1102.72,628.968C-1102.81,629.004 -1102.88,629.029 -1102.88,629.023C-1102.88,629.015 -1102.85,628.94 -1102.8,628.856C-1102.73,628.728 -1102.72,628.689 -1102.75,628.644C-1102.77,628.591 -1102.8,628.589 -1102.98,628.603C-1103.22,628.622 -1103.61,628.734 -1103.88,628.859C-1103.99,628.912 -1104.08,628.948 -1104.08,628.942C-1104.08,628.937 -1104.03,628.856 -1103.98,628.764C-1103.92,628.672 -1103.89,628.583 -1103.9,628.569C-1103.91,628.552 -1103.96,628.527 -1104.02,628.511C-1104.26,628.449 -1104.74,628.608 -1105.02,628.839L-1105.15,628.94L-1105.1,628.703C-1105.07,628.597 -1105.12,628.552 -1105.25,628.558C-1105.39,628.564 -1105.71,628.672 -1105.96,628.795C-1106.05,628.839 -1106.12,628.873 -1106.13,628.864C-1106.13,628.859 -1106.12,628.82 -1106.1,628.778C-1106.08,628.714 -1106.03,628.692 -1105.75,628.605C-1104.65,628.268 -1104.65,628.271 -1104.84,627.987L-1104.93,627.851L-1104.66,627.817C-1104.15,627.756 -1103.56,627.539 -1103.33,627.324C-1103.12,627.14 -1103.15,627.043 -1103.42,626.951C-1103.53,626.917 -1103.61,626.887 -1103.61,626.881C-1103.61,626.879 -1103.48,626.845 -1103.34,626.812C-1102.83,626.695 -1102.34,626.505 -1102.16,626.352C-1102.01,626.224 -1102.06,626.124 -1102.36,625.92C-1102.42,625.881 -1102.46,625.845 -1102.46,625.837C-1102.46,625.828 -1102.36,625.82 -1102.22,625.815C-1101.78,625.801 -1101.39,625.686 -1101.06,625.475C-1100.86,625.347 -1100.72,625.205 -1100.69,625.096C-1100.67,625.007 -1100.69,624.993 -1100.96,624.906C-1101.38,624.773 -1101.37,624.781 -1101.08,624.709C-1100.6,624.586 -1100.02,624.324 -1099.66,624.065C-1099.36,623.851 -1099.39,623.753 -1099.78,623.622C-1099.91,623.583 -1100.02,623.539 -1100.03,623.528C-1100.03,623.514 -1099.97,623.492 -1099.89,623.472C-1099.68,623.425 -1099.34,623.255 -1099.06,623.054C-1098.77,622.845 -1098.44,622.519 -1098.47,622.458C-1098.49,622.405 -1098.62,622.35 -1098.9,622.285C-1099.18,622.219 -1099.21,622.202 -1099.08,622.16C-1098.54,621.987 -1097.53,621.219 -1097.53,620.985C-1097.53,620.935 -1097.68,620.868 -1097.93,620.806L-1098.13,620.759L-1098.05,620.701C-1097.64,620.405 -1096.81,619.5 -1096.81,619.35C-1096.81,619.302 -1096.96,619.236 -1097.07,619.236C-1097.1,619.236 -1097.12,619.227 -1097.12,619.219C-1097.12,619.208 -1097.02,619.105 -1096.91,618.985C-1096.8,618.868 -1096.65,618.692 -1096.59,618.598C-1096.45,618.403 -1096.29,618.068 -1096.27,617.938C-1096.25,617.857 -1096.26,617.848 -1096.34,617.832C-1096.39,617.823 -1096.46,617.815 -1096.49,617.815C-1096.56,617.815 -1096.56,617.804 -1096.41,617.64C-1095.81,616.949 -1094.8,615.517 -1094.56,615.013C-1094.44,614.762 -1094.45,614.718 -1094.61,614.754C-1095,614.843 -1096.28,615.525 -1097.29,616.188C-1097.53,616.347 -1097.74,616.478 -1097.75,616.478C-1097.75,616.478 -1097.75,616.414 -1097.74,616.339L-1097.72,616.2L-1097.82,616.2C-1098.07,616.2 -1098.62,616.459 -1098.98,616.743L-1099.2,616.915L-1099.23,616.754C-1099.25,616.642 -1099.28,616.589 -1099.31,616.589C-1099.46,616.589 -1100.31,617.194 -1100.68,617.575C-1100.76,617.662 -1100.84,617.731 -1100.86,617.731C-1100.87,617.731 -1100.88,617.692 -1100.88,617.642C-1100.88,617.497 -1100.93,617.211 -1100.97,617.155C-1101.01,617.108 -1101.02,617.108 -1101.14,617.172C-1101.38,617.3 -1101.95,617.887 -1102.18,618.247C-1102.22,618.308 -1102.29,618.425 -1102.33,618.506L-1102.4,618.656L-1102.44,618.45C-1102.54,617.801 -1102.55,617.796 -1102.92,618.113C-1103.27,618.422 -1103.63,618.89 -1103.73,619.199C-1103.76,619.28 -1103.8,619.347 -1103.8,619.347C-1103.81,619.347 -1103.85,619.233 -1103.88,619.091C-1103.98,618.687 -1104.05,618.648 -1104.28,618.879C-1104.55,619.16 -1104.93,619.804 -1105.11,620.277L-1105.18,620.497L-1105.21,620.403C-1105.23,620.35 -1105.26,620.227 -1105.28,620.127C-1105.3,620.027 -1105.32,619.924 -1105.34,619.896C-1105.43,619.723 -1105.83,620.043 -1106.06,620.467C-1106.2,620.742 -1106.34,621.194 -1106.34,621.425C-1106.34,621.55 -1106.37,621.545 -1106.45,621.4C-1106.56,621.194 -1106.64,621.102 -1106.71,621.102C-1106.86,621.102 -1107.16,621.592 -1107.38,622.174C-1107.53,622.603 -1107.52,622.586 -1107.56,622.397C-1107.6,622.207 -1107.65,622.132 -1107.75,622.132C-1107.9,622.132 -1108.2,622.528 -1108.38,622.976C-1108.49,623.227 -1108.59,623.6 -1108.59,623.712C-1108.59,623.795 -1108.62,623.792 -1108.71,623.695C-1108.76,623.65 -1108.83,623.597 -1108.88,623.578C-1108.95,623.547 -1108.96,623.55 -1109.02,623.603C-1109.05,623.634 -1109.11,623.72 -1109.14,623.792C-1109.23,623.948 -1109.31,623.996 -1109.28,623.873C-1109.27,623.831 -1109.12,623.505 -1108.95,623.149C-1108.65,622.506 -1108.57,622.285 -1108.6,622.202C-1108.63,622.135 -1108.79,622.077 -1108.95,622.077L-1109.09,622.077L-1108.94,621.873C-1108.74,621.595 -1108.58,621.322 -1108.46,621.029C-1108.26,620.52 -1108.2,620.102 -1108.32,619.985C-1108.39,619.91 -1108.47,619.926 -1108.69,620.054C-1108.78,620.107 -1108.86,620.149 -1108.86,620.144C-1108.87,620.138 -1108.79,619.985 -1108.69,619.804C-1108.46,619.375 -1108.27,618.921 -1108.21,618.62C-1108.16,618.392 -1108.16,618.375 -1108.21,618.305C-1108.27,618.219 -1108.35,618.213 -1108.61,618.275C-1108.7,618.297 -1108.8,618.316 -1108.84,618.316C-1108.9,618.316 -1108.89,618.302 -1108.76,618.163C-1108.49,617.868 -1108.29,617.514 -1108.16,617.119C-1108.09,616.915 -1108.08,616.835 -1108.08,616.556C-1108.08,616.258 -1108.08,616.225 -1108.13,616.169C-1108.2,616.102 -1108.21,616.105 -1108.61,616.342C-1108.73,616.417 -1108.85,616.478 -1108.86,616.478C-1108.88,616.478 -1108.82,616.33 -1108.73,616.149C-1108.45,615.595 -1108.24,614.879 -1108.21,614.442C-1108.19,614.163 -1108.22,614.083 -1108.34,614.083C-1108.41,614.083 -1108.46,614.105 -1108.79,614.289C-1108.9,614.347 -1108.99,614.389 -1109,614.383C-1109,614.375 -1108.97,614.303 -1108.92,614.219C-1108.7,613.824 -1108.56,612.98 -1108.61,612.442C-1108.64,612.088 -1108.68,612.086 -1109.15,612.395C-1109.32,612.509 -1109.47,612.601 -1109.47,612.595C-1109.48,612.592 -1109.45,612.512 -1109.41,612.417C-1109.24,612.002 -1109.14,611.42 -1109.14,610.824C-1109.14,610.395 -1109.18,610.2 -1109.25,610.172C-1109.3,610.153 -1109.47,610.233 -1109.69,610.389C-1109.78,610.453 -1109.87,610.515 -1109.89,610.523C-1109.91,610.534 -1109.91,610.464 -1109.89,610.3C-1109.84,609.732 -1110,608.325 -1110.12,608.247C-1110.15,608.233 -1110.3,608.309 -1110.44,608.414C-1110.5,608.453 -1110.5,608.448 -1110.51,608.178C-1110.52,607.724 -1110.64,607.203 -1110.83,606.844C-1110.96,606.585 -1110.99,606.573 -1111.14,606.735L-1111.26,606.866L-1111.28,606.679C-1111.4,605.559 -1111.92,603.295 -1112.19,602.766C-1112.23,602.679 -1112.28,602.607 -1112.3,602.607C-1112.38,602.607 -1112.61,603.231 -1112.78,603.93C-1112.98,604.729 -1113.22,605.975 -1113.3,606.596L-1113.33,606.866L-1113.45,606.738C-1113.52,606.657 -1113.58,606.615 -1113.61,606.623C-1113.7,606.66 -1113.92,607.161 -1114.01,607.554C-1114.06,607.791 -1114.11,608.297 -1114.09,608.392C-1114.07,608.47 -1114.07,608.47 -1114.14,608.423C-1114.3,608.309 -1114.44,608.231 -1114.47,608.247C-1114.59,608.325 -1114.75,609.732 -1114.7,610.3C-1114.68,610.437 -1114.68,610.545 -1114.68,610.545C-1114.69,610.545 -1114.77,610.487 -1114.86,610.417C-1115.08,610.256 -1115.29,610.15 -1115.34,610.172C-1115.41,610.2 -1115.45,610.384 -1115.45,610.796C-1115.45,611.412 -1115.36,611.946 -1115.19,612.37C-1115.15,612.492 -1115.11,612.592 -1115.12,612.595C-1115.12,612.601 -1115.27,612.509 -1115.44,612.395C-1115.79,612.164 -1115.88,612.127 -1115.93,612.2C-1115.98,612.267 -1116.01,612.615 -1115.99,612.891C-1115.94,613.459 -1115.84,613.874 -1115.68,614.18C-1115.63,614.272 -1115.59,614.358 -1115.59,614.372C-1115.57,614.414 -1115.7,614.356 -1115.94,614.219C-1116.2,614.072 -1116.32,614.049 -1116.36,614.136C-1116.5,614.392 -1116.16,615.659 -1115.77,616.319C-1115.73,616.392 -1115.69,616.459 -1115.69,616.464C-1115.69,616.5 -1115.78,616.461 -1116.07,616.291L-1116.39,616.108L-1116.45,616.169C-1116.51,616.225 -1116.52,616.255 -1116.52,616.556C-1116.51,616.848 -1116.5,616.907 -1116.42,617.147C-1116.28,617.55 -1116.06,617.915 -1115.8,618.197C-1115.67,618.333 -1115.68,618.341 -1115.96,618.275C-1116.05,618.252 -1116.18,618.236 -1116.24,618.233C-1116.34,618.233 -1116.36,618.244 -1116.39,618.314C-1116.47,618.509 -1116.26,619.152 -1115.88,619.829C-1115.79,619.996 -1115.72,620.135 -1115.73,620.141C-1115.73,620.146 -1115.81,620.107 -1115.89,620.054C-1116.1,619.926 -1116.2,619.91 -1116.28,619.985C-1116.39,620.102 -1116.33,620.52 -1116.13,621.029C-1116.01,621.322 -1115.86,621.595 -1115.65,621.873L-1115.5,622.077L-1115.64,622.077C-1115.83,622.077 -1115.98,622.149 -1116,622.241C-1116.01,622.338 -1115.91,622.578 -1115.61,623.219C-1115.33,623.806 -1115.28,623.943 -1115.33,623.943C-1115.37,623.943 -1115.41,623.898 -1115.5,623.725C-1115.61,623.536 -1115.69,623.528 -1115.87,623.689L-1115.99,623.801L-1116.02,623.603C-1116.14,622.948 -1116.61,622.132 -1116.87,622.132C-1116.94,622.132 -1117,622.23 -1117.03,622.394C-1117.05,622.48 -1117.08,622.542 -1117.09,622.531C-1117.1,622.519 -1117.13,622.439 -1117.16,622.355C-1117.31,621.873 -1117.62,621.28 -1117.77,621.157C-1117.9,621.054 -1117.96,621.079 -1118.09,621.297C-1118.16,621.405 -1118.22,621.497 -1118.23,621.506C-1118.24,621.511 -1118.26,621.447 -1118.27,621.358C-1118.32,620.898 -1118.54,620.386 -1118.8,620.099C-1118.98,619.915 -1119.08,619.848 -1119.19,619.848C-1119.24,619.848 -1119.26,619.868 -1119.27,619.91C-1119.28,619.946 -1119.31,620.085 -1119.34,620.219C-1119.37,620.355 -1119.4,620.472 -1119.41,620.478C-1119.41,620.486 -1119.45,620.394 -1119.5,620.274C-1119.69,619.72 -1120.22,618.89 -1120.46,618.759C-1120.59,618.69 -1120.67,618.807 -1120.74,619.16C-1120.77,619.336 -1120.82,619.439 -1120.82,619.33C-1120.82,619.247 -1121.03,618.84 -1121.18,618.648C-1121.33,618.444 -1121.8,617.99 -1121.91,617.929C-1122.05,617.857 -1122.09,617.943 -1122.16,618.411L-1122.19,618.659L-1122.3,618.453C-1122.45,618.16 -1122.65,617.899 -1122.98,617.578C-1123.26,617.294 -1123.43,617.158 -1123.53,617.141C-1123.62,617.13 -1123.68,617.283 -1123.7,617.531C-1123.72,617.64 -1123.73,617.731 -1123.74,617.731C-1123.74,617.731 -1123.85,617.64 -1123.96,617.528C-1124.36,617.158 -1125.15,616.589 -1125.28,616.589C-1125.31,616.589 -1125.34,616.628 -1125.36,616.748C-1125.38,616.837 -1125.4,616.915 -1125.4,616.921C-1125.41,616.926 -1125.47,616.879 -1125.54,616.818C-1125.78,616.592 -1126.26,616.333 -1126.6,616.241C-1126.84,616.174 -1126.87,616.188 -1126.85,616.367L-1126.83,616.509L-1127.2,616.261C-1128.55,615.369 -1130.12,614.573 -1130.12,614.787C-1130.12,614.86 -1129.88,615.325 -1129.67,615.642C-1129.3,616.222 -1128.6,617.158 -1128.21,617.612C-1128.11,617.723 -1128.03,617.818 -1128.03,617.826C-1128.03,617.834 -1128.1,617.843 -1128.18,617.848C-1128.32,617.857 -1128.33,617.86 -1128.32,617.94C-1128.31,618.06 -1128.09,618.495 -1127.92,618.709C-1127.85,618.812 -1127.71,618.963 -1127.63,619.043C-1127.55,619.127 -1127.48,619.202 -1127.48,619.21C-1127.48,619.219 -1127.55,619.244 -1127.63,619.263C-1127.74,619.291 -1127.78,619.314 -1127.78,619.347C-1127.78,619.5 -1126.89,620.472 -1126.54,620.701C-1126.5,620.726 -1126.48,620.754 -1126.48,620.759C-1126.49,620.767 -1126.6,620.798 -1126.71,620.829C-1126.96,620.89 -1127.06,620.943 -1127.06,621.01C-1127.06,621.135 -1126.54,621.6 -1126.1,621.879C-1125.96,621.962 -1125.75,622.071 -1125.63,622.121C-1125.5,622.171 -1125.42,622.219 -1125.44,622.227C-1125.46,622.235 -1125.61,622.274 -1125.76,622.313C-1125.91,622.352 -1126.06,622.405 -1126.09,622.43C-1126.14,622.472 -1126.14,622.478 -1126.09,622.558C-1126.03,622.653 -1125.76,622.898 -1125.5,623.088C-1125.24,623.266 -1124.9,623.436 -1124.71,623.475C-1124.62,623.494 -1124.55,623.517 -1124.55,623.531C-1124.55,623.542 -1124.65,623.583 -1124.78,623.622C-1125.06,623.706 -1125.14,623.756 -1125.14,623.845C-1125.14,623.976 -1124.73,624.249 -1124.17,624.486C-1123.89,624.606 -1123.45,624.751 -1123.37,624.751C-1123.35,624.751 -1123.32,624.762 -1123.31,624.776C-1123.3,624.789 -1123.42,624.842 -1123.57,624.89C-1123.72,624.94 -1123.86,624.993 -1123.88,625.01C-1123.94,625.062 -1123.91,625.146 -1123.75,625.305C-1123.46,625.594 -1122.97,625.787 -1122.4,625.828L-1122.12,625.851L-1122.32,625.99C-1122.53,626.149 -1122.56,626.221 -1122.46,626.33C-1122.32,626.477 -1121.88,626.658 -1121.33,626.798C-1121.14,626.851 -1120.99,626.898 -1121.01,626.904C-1121.04,626.912 -1121.12,626.94 -1121.2,626.965C-1121.61,627.093 -1121.36,627.402 -1120.65,627.661C-1120.41,627.748 -1119.95,627.842 -1119.77,627.842L-1119.65,627.842L-1119.75,627.97C-1119.87,628.129 -1119.88,628.235 -1119.77,628.299C-1119.7,628.344 -1119.47,628.422 -1118.83,628.619C-1118.59,628.692 -1118.54,628.717 -1118.5,628.789C-1118.48,628.834 -1118.46,628.873 -1118.48,628.873C-1118.49,628.873 -1118.62,628.817 -1118.76,628.747C-1119.1,628.589 -1119.35,628.522 -1119.45,628.564C-1119.51,628.594 -1119.52,628.608 -1119.5,628.714C-1119.49,628.781 -1119.48,628.859 -1119.46,628.887C-1119.45,628.931 -1119.46,628.926 -1119.55,628.856C-1119.88,628.605 -1120.32,628.452 -1120.57,628.505C-1120.72,628.539 -1120.73,628.591 -1120.62,628.789C-1120.56,628.884 -1120.52,628.956 -1120.53,628.951C-1120.86,628.784 -1121.23,628.658 -1121.52,628.617C-1121.89,628.561 -1121.95,628.617 -1121.79,628.89L-1121.71,629.037L-1121.83,628.984C-1122.01,628.906 -1122.35,628.845 -1122.61,628.845C-1123.01,628.845 -1123.03,628.876 -1122.86,629.14C-1122.79,629.232 -1122.75,629.307 -1122.75,629.31C-1122.76,629.313 -1122.84,629.293 -1122.93,629.263C-1123.28,629.154 -1123.94,629.132 -1124.07,629.221C-1124.11,629.254 -1124.11,629.268 -1124.02,629.419L-1123.92,629.583L-1124.28,629.603C-1124.66,629.622 -1125.1,629.692 -1125.16,629.742C-1125.18,629.764 -1125.18,629.792 -1125.13,629.864L-1125.08,629.959L-1125.18,629.959C-1125.42,629.962 -1125.9,630.101 -1126.04,630.215L-1126.11,630.271L-1126.05,630.338C-1125.98,630.416 -1125.97,630.41 -1126.35,630.474C-1127.18,630.616 -1128.37,630.951 -1128.37,631.045C-1128.37,631.109 -1128.14,631.196 -1127.7,631.31C-1127.36,631.396 -1126.44,631.563 -1126.17,631.591C-1126.06,631.6 -1125.97,631.616 -1125.97,631.622C-1125.97,631.63 -1126,631.658 -1126.03,631.683C-1126.07,631.711 -1126.08,631.747 -1126.07,631.767C-1126.01,631.87 -1125.51,632.02 -1125.23,632.02C-1125.13,632.02 -1125.05,632.026 -1125.05,632.034C-1125.05,632.045 -1125.07,632.09 -1125.1,632.137C-1125.14,632.218 -1125.14,632.226 -1125.1,632.26C-1125.03,632.313 -1124.62,632.36 -1124.22,632.366L-1123.86,632.368L-1123.92,632.466C-1123.95,632.519 -1123.99,632.575 -1124,632.588C-1124.05,632.647 -1124.02,632.744 -1123.95,632.761C-1123.74,632.814 -1123.01,632.728 -1122.73,632.616C-1122.67,632.594 -1122.67,632.594 -1122.73,632.675C-1122.97,633.042 -1122.95,633.065 -1122.57,633.062C-1122.26,633.059 -1121.98,633.003 -1121.79,632.912C-1121.72,632.881 -1121.67,632.861 -1121.66,632.867C-1121.65,632.875 -1121.68,632.934 -1121.72,633.003C-1121.81,633.157 -1121.81,633.24 -1121.73,633.271C-1121.59,633.324 -1121.06,633.19 -1120.67,632.998C-1120.55,632.942 -1120.46,632.903 -1120.46,632.912C-1120.46,632.92 -1120.5,632.987 -1120.54,633.065C-1120.65,633.249 -1120.65,633.293 -1120.52,633.327C-1120.3,633.388 -1119.79,633.215 -1119.52,632.984L-1119.4,632.884L-1119.41,633.232L-1119.32,633.24C-1119.19,633.254 -1118.98,633.185 -1118.66,633.023C-1118.51,632.948 -1118.38,632.884 -1118.38,632.884C-1118.37,632.884 -1118.39,632.928 -1118.41,632.984C-1118.49,633.132 -1118.45,633.176 -1118.24,633.173C-1118.03,633.171 -1117.72,633.051 -1117.45,632.873C-1117.35,632.803 -1117.25,632.744 -1117.24,632.744C-1117.23,632.744 -1117.23,632.778 -1117.23,632.82C-1117.23,632.928 -1117.15,632.995 -1117.06,632.976C-1117.02,632.967 -1116.96,632.973 -1116.93,632.99C-1116.89,633.009 -1116.92,633.023 -1117.07,633.048C-1117.18,633.068 -1117.31,633.107 -1117.38,633.14C-1117.5,633.204 -1117.67,633.352 -1117.67,633.399C-1117.67,633.435 -1117.55,633.496 -1117.49,633.496C-1117.4,633.496 -1117.45,633.541 -1117.58,633.574C-1117.76,633.622 -1118.1,633.795 -1118.17,633.872C-1118.25,633.953 -1118.23,634.012 -1118.11,634.062L-1118.03,634.098L-1118.2,634.184C-1118.41,634.29 -1118.67,634.51 -1118.67,634.583C-1118.67,634.622 -1118.64,634.647 -1118.54,634.675L-1118.41,634.714L-1118.59,634.806C-1118.77,634.906 -1119.12,635.204 -1119.12,635.268C-1119.12,635.304 -1119.08,635.332 -1118.94,635.374C-1118.9,635.391 -1118.92,635.43 -1119.12,635.636C-1119.26,635.769 -1119.38,635.911 -1119.41,635.953C-1119.46,636.034 -1119.45,636.087 -1119.38,636.087C-1119.32,636.087 -1119.33,636.112 -1119.44,636.226C-1119.55,636.351 -1119.67,636.544 -1119.69,636.649C-1119.71,636.711 -1119.7,636.73 -1119.65,636.747C-1119.6,636.766 -1119.61,636.786 -1119.77,636.978C-1120.25,637.583 -1120.61,638.176 -1120.49,638.176ZM-1104.16,638.176L-1120.49,638.176C-1120.37,638.176 -1119.7,637.833 -1119.27,637.546C-1119.14,637.463 -1119.03,637.396 -1119.02,637.396C-1119.01,637.396 -1119.01,637.418 -1119.01,637.443C-1119.02,637.477 -1119,637.496 -1118.96,637.502C-1118.88,637.513 -1118.58,637.376 -1118.44,637.268C-1118.35,637.198 -1118.34,637.198 -1118.34,637.251C-1118.34,637.285 -1118.33,637.318 -1118.31,637.326C-1118.27,637.351 -1118.02,637.198 -1117.79,637.003L-1117.6,636.842L-1117.57,636.959C-1117.56,637.031 -1117.53,637.078 -1117.5,637.084C-1117.44,637.095 -1117.09,636.764 -1116.97,636.58L-1116.88,636.438L-1116.86,636.555C-1116.83,636.697 -1116.82,636.727 -1116.76,636.727C-1116.7,636.727 -1116.41,636.427 -1116.32,636.26L-1116.23,636.115L-1116.2,636.226C-1116.16,636.36 -1116.1,636.371 -1116,636.26C-1115.9,636.159 -1115.68,635.797 -1115.63,635.672L-1115.6,635.572L-1115.57,635.697C-1115.55,635.772 -1115.52,635.825 -1115.49,635.831C-1115.37,635.853 -1115.11,635.48 -1115.07,635.221L-1115.05,635.104L-1114.98,635.184C-1114.89,635.307 -1114.8,635.251 -1114.66,634.964C-1114.6,634.836 -1114.55,634.714 -1114.55,634.694C-1114.55,634.669 -1114.54,634.677 -1114.51,634.716C-1114.45,634.803 -1114.37,634.792 -1114.28,634.686C-1114.19,634.572 -1114.06,634.293 -1114.03,634.159L-1114.02,634.056L-1113.94,634.095C-1113.86,634.134 -1113.85,634.132 -1113.81,634.081C-1113.78,634.048 -1113.7,633.906 -1113.65,633.761C-1113.54,633.502 -1113.54,633.502 -1113.48,633.544C-1113.42,633.583 -1113.41,633.58 -1113.35,633.519C-1113.28,633.449 -1113.21,633.224 -1113.17,632.917C-1113.16,632.839 -1113.14,632.772 -1113.13,632.772C-1113.12,632.772 -1113.1,632.783 -1113.1,632.8C-1113.1,632.853 -1113,632.828 -1112.95,632.767C-1112.9,632.697 -1112.77,632.299 -1112.6,631.714C-1112.54,631.491 -1112.47,631.299 -1112.46,631.288C-1112.45,631.268 -1112.36,632.006 -1112.3,632.772C-1112.26,633.232 -1112.26,633.764 -1112.31,634.223C-1112.34,634.443 -1112.37,634.744 -1112.38,634.889C-1112.48,635.778 -1112.49,636.039 -1112.51,636.744C-1112.52,637.176 -1112.52,637.546 -1112.51,637.566C-1112.5,637.594 -1112.45,637.602 -1112.32,637.597L-1112.14,637.588L-1112.15,637.106C-1112.16,636.836 -1112.14,636.374 -1112.12,636.056C-1112.08,635.541 -1112.05,635.318 -1111.96,634.471C-1111.9,633.942 -1111.89,633.613 -1111.91,633.176C-1111.93,632.767 -1112,632.006 -1112.04,631.672C-1112.05,631.594 -1112.05,631.541 -1112.03,631.55C-1112.03,631.558 -1111.95,631.834 -1111.86,632.16C-1111.78,632.485 -1111.7,632.77 -1111.68,632.789C-1111.64,632.839 -1111.59,632.839 -1111.54,632.783C-1111.51,632.747 -1111.5,632.783 -1111.45,633.034C-1111.4,633.363 -1111.32,633.552 -1111.24,633.552C-1111.21,633.552 -1111.18,633.538 -1111.17,633.524C-1111.13,633.466 -1111.1,633.502 -1111.02,633.714C-1110.86,634.101 -1110.83,634.132 -1110.68,634.07C-1110.64,634.054 -1110.63,634.073 -1110.61,634.162C-1110.59,634.31 -1110.4,634.664 -1110.32,634.728C-1110.23,634.789 -1110.16,634.772 -1110.14,634.686C-1110.13,634.636 -1110.11,634.658 -1110.04,634.814C-1109.93,635.065 -1109.8,635.251 -1109.73,635.251C-1109.7,635.251 -1109.66,635.218 -1109.63,635.179L-1109.59,635.109L-1109.54,635.29C-1109.49,635.505 -1109.34,635.73 -1109.21,635.8C-1109.13,635.845 -1109.12,635.845 -1109.09,635.808C-1109.08,635.786 -1109.07,635.739 -1109.07,635.705C-1109.07,635.594 -1109.02,635.613 -1108.96,635.75C-1108.88,635.931 -1108.7,636.195 -1108.61,636.282C-1108.52,636.365 -1108.45,636.338 -1108.42,636.198L-1108.39,636.106L-1108.33,636.229C-1108.25,636.39 -1107.91,636.736 -1107.85,636.722C-1107.81,636.716 -1107.79,636.672 -1107.77,636.58L-1107.74,636.446L-1107.69,636.53C-1107.56,636.747 -1107.22,637.09 -1107.13,637.09C-1107.1,637.09 -1107.07,637.034 -1107.06,636.964L-1107.03,636.839L-1106.92,636.931C-1106.78,637.059 -1106.54,637.237 -1106.42,637.296C-1106.33,637.346 -1106.28,637.329 -1106.28,637.237C-1106.28,637.22 -1106.21,637.251 -1106.12,637.31C-1105.84,637.493 -1105.62,637.555 -1105.61,637.454C-1105.6,637.407 -1105.55,637.429 -1105.26,637.61C-1104.88,637.85 -1104.24,638.176 -1104.16,638.176Z" style="fill:rgb(211,255,217);fill-rule:nonzero;"/>
            </g>
        </g>
    </g>
</svg>
