<?xml version="1.0" encoding="UTF-8" standalone="no"?>
<!DOCTYPE svg PUBLIC "-//W3C//DTD SVG 1.1//EN" "http://www.w3.org/Graphics/SVG/1.1/DTD/svg11.dtd">
<svg width="100%" height="100%" viewBox="0 0 1028 664" version="1.1" xmlns="http://www.w3.org/2000/svg" xmlns:xlink="http://www.w3.org/1999/xlink" xml:space="preserve" xmlns:serif="http://www.serif.com/" style="fill-rule:evenodd;clip-rule:evenodd;stroke-linecap:square;stroke-linejoin:round;stroke-miterlimit:1.5;">
    <g transform="matrix(1,0,0,1,0,-324)">
        <g id="word">
        </g>
        <g id="Artboard2" transform="matrix(1.22232,0,0,1,1120.87,0)">
            <rect x="-917" y="324" width="841" height="664" style="fill:none;"/>
            <clipPath id="_clip1">
                <rect x="-917" y="324" width="841" height="664"/>
            </clipPath>
            <g clip-path="url(#_clip1)">
                <g transform="matrix(0.8489,0,0,1.66306,-1277.89,313.913)">
                    <g transform="matrix(0.928261,0,0,0.579164,-23.9432,10.1263)">
                        <path d="M835.302,-64.642L423.56,679.505" style="fill:none;stroke:rgb(2,202,114);stroke-width:0.47px;"/>
                    </g>
                    <g transform="matrix(0.928261,0,0,0.579164,-3.16495,10.7976)">
                        <path d="M835.302,-64.642L423.56,679.505" style="fill:none;stroke:rgb(2,202,114);stroke-width:0.47px;"/>
                    </g>
                    <g transform="matrix(0.928261,0,0,0.579164,17.6133,11.4689)">
                        <path d="M835.302,-64.642L423.56,679.505" style="fill:none;stroke:rgb(2,202,114);stroke-width:0.47px;"/>
                    </g>
                    <g transform="matrix(0.928261,0,0,0.579164,38.3916,12.1402)">
                        <path d="M835.302,-64.642L423.56,679.505" style="fill:none;stroke:rgb(2,202,114);stroke-width:0.47px;"/>
                    </g>
                    <g transform="matrix(0.928261,0,0,0.579164,59.1699,12.8115)">
                        <path d="M835.302,-64.642L423.56,679.505" style="fill:none;stroke:rgb(2,202,114);stroke-width:0.47px;"/>
                    </g>
                    <g transform="matrix(0.928261,0,0,0.579164,79.9482,13.4828)">
                        <path d="M835.302,-64.642L423.56,679.505" style="fill:none;stroke:rgb(2,202,114);stroke-width:0.47px;"/>
                    </g>
                    <g transform="matrix(0.928261,0,0,0.579164,100.726,14.1541)">
                        <path d="M835.302,-64.642L423.56,679.505" style="fill:none;stroke:rgb(2,202,114);stroke-width:0.47px;"/>
                    </g>
                    <g transform="matrix(0.928261,0,0,0.579164,121.505,14.8254)">
                        <path d="M835.302,-64.642L423.56,679.505" style="fill:none;stroke:rgb(2,202,114);stroke-width:0.47px;"/>
                    </g>
                    <g transform="matrix(0.928261,0,0,0.579164,142.283,15.4967)">
                        <path d="M835.302,-64.642L423.56,679.505" style="fill:none;stroke:rgb(2,202,114);stroke-width:0.47px;"/>
                    </g>
                    <g transform="matrix(0.928261,0,0,0.579164,163.061,16.168)">
                        <path d="M835.302,-64.642L423.56,679.505" style="fill:none;stroke:rgb(2,202,114);stroke-width:0.47px;"/>
                    </g>
                    <g transform="matrix(0.928261,0,0,0.579164,183.84,16.8393)">
                        <path d="M835.302,-64.642L423.56,679.505" style="fill:none;stroke:rgb(2,202,114);stroke-width:0.47px;"/>
                    </g>
                    <g transform="matrix(0.928261,0,0,0.579164,204.618,17.5107)">
                        <path d="M835.302,-64.642L423.56,679.505" style="fill:none;stroke:rgb(2,202,114);stroke-width:0.47px;"/>
                    </g>
                    <g transform="matrix(0.928261,0,0,0.579164,225.396,18.182)">
                        <path d="M835.302,-64.642L423.56,679.505" style="fill:none;stroke:rgb(2,202,114);stroke-width:0.47px;"/>
                    </g>
                    <g transform="matrix(0.928261,0,0,0.579164,246.174,18.8533)">
                        <path d="M835.302,-64.642L423.56,679.505" style="fill:none;stroke:rgb(2,202,114);stroke-width:0.47px;"/>
                    </g>
                    <g transform="matrix(0.928261,0,0,0.579164,266.953,19.5246)">
                        <path d="M835.302,-64.642L423.56,679.505" style="fill:none;stroke:rgb(2,202,114);stroke-width:0.47px;"/>
                    </g>
                    <g transform="matrix(0.928261,0,0,0.579164,287.731,20.1959)">
                        <path d="M835.302,-64.642L423.56,679.505" style="fill:none;stroke:rgb(2,202,114);stroke-width:0.47px;"/>
                    </g>
                    <g transform="matrix(0.928261,0,0,0.579164,308.509,20.8672)">
                        <path d="M835.302,-64.642L423.56,679.505" style="fill:none;stroke:rgb(2,202,114);stroke-width:0.47px;"/>
                    </g>
                    <g transform="matrix(0.928261,0,0,0.579164,329.288,21.5385)">
                        <path d="M835.302,-64.642L423.56,679.505" style="fill:none;stroke:rgb(2,202,114);stroke-width:0.47px;"/>
                    </g>
                    <g transform="matrix(0.928261,0,0,0.579164,350.066,22.2098)">
                        <path d="M835.302,-64.642L423.56,679.505" style="fill:none;stroke:rgb(2,202,114);stroke-width:0.47px;"/>
                    </g>
                    <g transform="matrix(0.928261,0,0,0.579164,370.844,22.8811)">
                        <path d="M835.302,-64.642L423.56,679.505" style="fill:none;stroke:rgb(2,202,114);stroke-width:0.47px;"/>
                    </g>
                    <g transform="matrix(0.928261,0,0,0.579164,391.622,23.5524)">
                        <path d="M835.302,-64.642L423.56,679.505" style="fill:none;stroke:rgb(2,202,114);stroke-width:0.47px;"/>
                    </g>
                    <g transform="matrix(0.928261,0,0,0.579164,412.401,24.2237)">
                        <path d="M835.302,-64.642L423.56,679.505" style="fill:none;stroke:rgb(2,202,114);stroke-width:0.47px;"/>
                    </g>
                    <g transform="matrix(0.928261,0,0,0.579164,433.179,24.895)">
                        <path d="M835.302,-64.642L423.56,679.505" style="fill:none;stroke:rgb(2,202,114);stroke-width:0.47px;"/>
                    </g>
                    <g transform="matrix(0.928261,0,0,0.579164,453.957,25.5663)">
                        <path d="M835.302,-64.642L423.56,679.505" style="fill:none;stroke:rgb(2,202,114);stroke-width:0.47px;"/>
                    </g>
                    <g transform="matrix(0.928261,0,0,0.579164,474.736,26.2376)">
                        <path d="M835.302,-64.642L423.56,679.505" style="fill:none;stroke:rgb(2,202,114);stroke-width:0.47px;"/>
                    </g>
                    <g transform="matrix(0.928261,0,0,0.579164,495.514,26.9089)">
                        <path d="M835.302,-64.642L423.56,679.505" style="fill:none;stroke:rgb(2,202,114);stroke-width:0.47px;"/>
                    </g>
                    <g transform="matrix(0.928261,0,0,0.579164,516.292,27.5803)">
                        <path d="M835.302,-64.642L423.56,679.505" style="fill:none;stroke:rgb(2,202,114);stroke-width:0.47px;"/>
                    </g>
                    <g transform="matrix(0.928261,0,0,0.579164,537.07,28.2516)">
                        <path d="M835.302,-64.642L423.56,679.505" style="fill:none;stroke:rgb(2,202,114);stroke-width:0.47px;"/>
                    </g>
                    <g transform="matrix(0.928261,0,0,0.579164,557.849,28.9229)">
                        <path d="M835.302,-64.642L423.56,679.505" style="fill:none;stroke:rgb(2,202,114);stroke-width:0.47px;"/>
                    </g>
                    <g transform="matrix(0.928261,0,0,0.579164,578.627,29.5942)">
                        <path d="M835.302,-64.642L423.56,679.505" style="fill:none;stroke:rgb(2,202,114);stroke-width:0.47px;"/>
                    </g>
                    <g transform="matrix(0.928261,0,0,0.579164,599.405,30.2655)">
                        <path d="M835.302,-64.642L423.56,679.505" style="fill:none;stroke:rgb(2,202,114);stroke-width:0.47px;"/>
                    </g>
                    <g transform="matrix(0.928261,0,0,0.579164,620.184,30.9368)">
                        <path d="M835.302,-64.642L423.56,679.505" style="fill:none;stroke:rgb(2,202,114);stroke-width:0.47px;"/>
                    </g>
                    <g transform="matrix(0.928261,0,0,0.579164,640.962,31.6081)">
                        <path d="M835.302,-64.642L423.56,679.505" style="fill:none;stroke:rgb(2,202,114);stroke-width:0.47px;"/>
                    </g>
                    <g transform="matrix(0.928261,0,0,0.579164,661.74,32.2794)">
                        <path d="M835.302,-64.642L423.56,679.505" style="fill:none;stroke:rgb(2,202,114);stroke-width:0.47px;"/>
                    </g>
                    <g transform="matrix(0.928261,0,0,0.579164,682.518,32.9507)">
                        <path d="M835.302,-64.642L423.56,679.505" style="fill:none;stroke:rgb(2,202,114);stroke-width:0.47px;"/>
                    </g>
                    <g transform="matrix(0.928261,0,0,0.579164,703.297,33.622)">
                        <path d="M835.302,-64.642L423.56,679.505" style="fill:none;stroke:rgb(2,202,114);stroke-width:0.47px;"/>
                    </g>
                    <g transform="matrix(0.928261,0,0,0.579164,724.075,34.2933)">
                        <path d="M835.302,-64.642L423.56,679.505" style="fill:none;stroke:rgb(2,202,114);stroke-width:0.47px;"/>
                    </g>
                </g>
            </g>
        </g>
    </g>
</svg>
