<?xml version="1.0" encoding="UTF-8" standalone="no"?>
<!DOCTYPE svg PUBLIC "-//W3C//DTD SVG 1.1//EN" "http://www.w3.org/Graphics/SVG/1.1/DTD/svg11.dtd">
<svg width="100%" height="100%" viewBox="0 0 1706 1301" version="1.1" xmlns="http://www.w3.org/2000/svg" xmlns:xlink="http://www.w3.org/1999/xlink" xml:space="preserve" xmlns:serif="http://www.serif.com/" style="fill-rule:evenodd;clip-rule:evenodd;stroke-linecap:round;stroke-linejoin:round;stroke-miterlimit:1.5;">
    <g transform="matrix(1,0,0,1,0,-1469)">
        <g id="Artboard2" transform="matrix(1,0,0,1,711,0)">
            <rect x="-711" y="1469" width="1706" height="1301" style="fill:none;"/>
            <clipPath id="_clip1">
                <rect x="-711" y="1469" width="1706" height="1301"/>
            </clipPath>
            <g clip-path="url(#_clip1)">
                <g transform="matrix(1,0,0,1,-711,0)">
                    <path d="M-131,1895C-58.611,1721.11 86.167,1373.33 292,1405C497.833,1436.67 853.667,2066.83 1104,2085C1354.33,2103.17 1641.17,1466.33 1794,1514C1946.83,1561.67 1996.28,2101.22 2021,2371" style="fill:none;stroke:rgb(67,115,56);stroke-width:0.5px;"/>
                </g>
                <g transform="matrix(1,0,0,1,-711,281.395)">
                    <path d="M-131,1895C-58.611,1721.11 86.167,1373.33 292,1405C497.833,1436.67 853.667,2066.83 1104,2085C1354.33,2103.17 1641.17,1466.33 1794,1514C1946.83,1561.67 1996.28,2101.22 2021,2371" style="fill:none;stroke:rgb(67,115,56);stroke-width:0.5px;"/>
                </g>
                <g transform="matrix(1,0,0,1,-711,562.791)">
                    <path d="M-131,1895C-58.611,1721.11 86.167,1373.33 292,1405C497.833,1436.67 853.667,2066.83 1104,2085C1354.33,2103.17 1641.17,1466.33 1794,1514C1946.83,1561.67 1996.28,2101.22 2021,2371" style="fill:none;stroke:rgb(67,115,56);stroke-width:0.5px;"/>
                </g>
                <g transform="matrix(1,0,0,1,-711,844.186)">
                    <path d="M-131,1895C-58.611,1721.11 86.167,1373.33 292,1405C497.833,1436.67 853.667,2066.83 1104,2085C1354.33,2103.17 1641.17,1466.33 1794,1514C1946.83,1561.67 1996.28,2101.22 2021,2371" style="fill:none;stroke:rgb(67,115,56);stroke-width:0.5px;"/>
                </g>
            </g>
        </g>
    </g>
</svg>
