<?xml version="1.0" encoding="UTF-8" standalone="no"?>
<!DOCTYPE svg PUBLIC "-//W3C//DTD SVG 1.1//EN" "http://www.w3.org/Graphics/SVG/1.1/DTD/svg11.dtd">
<svg width="100%" height="100%" viewBox="0 0 866 1489" version="1.1" xmlns="http://www.w3.org/2000/svg" xmlns:xlink="http://www.w3.org/1999/xlink" xml:space="preserve" xmlns:serif="http://www.serif.com/" style="fill-rule:evenodd;clip-rule:evenodd;stroke-linecap:round;stroke-miterlimit:10;">
    <g transform="matrix(1,0,0,1,-11099.8,-47375.9)">
        <g id="_1-io-processing" serif:id="1-io-processing" transform="matrix(38.6998,-3.12881e-31,0,11.6951,-145481,-21806.2)">
            <g transform="matrix(0.181042,4.84342e-33,0,0.599077,-992.459,4487.31)">
                <path d="M27932.8,2463.11C27931.3,2462.96 27929.7,2462.96 27928.2,2463.11L27927.5,2466.76C27926,2466.98 27924.6,2467.36 27923.2,2467.89L27920.8,2465.11C27919.4,2465.74 27918.1,2466.5 27916.8,2467.38L27918,2470.91C27916.9,2471.83 27915.8,2472.87 27914.9,2474.01L27911.4,2472.84C27910.5,2474.07 27909.7,2475.39 27909.1,2476.77L27911.9,2479.24C27911.4,2480.61 27911,2482.03 27910.8,2483.48L27907.1,2484.23C27907,2485.74 27907,2487.26 27907.1,2488.77L27910.8,2489.52C27911,2490.97 27911.4,2492.39 27911.9,2493.76L27909.1,2496.23C27909.7,2497.61 27910.5,2498.93 27911.4,2500.16L27914.9,2498.99C27915.8,2500.13 27916.9,2501.17 27918,2502.09L27916.8,2505.62C27918.1,2506.5 27919.4,2507.26 27920.8,2507.89L27923.2,2505.11C27924.6,2505.64 27926,2506.02 27927.5,2506.24L27928.2,2509.89C27929.7,2510.04 27931.3,2510.04 27932.8,2509.89L27933.5,2506.24C27935,2506.02 27936.4,2505.64 27937.8,2505.11L27940.2,2507.89C27941.6,2507.26 27942.9,2506.5 27944.2,2505.62L27943,2502.09C27944.1,2501.17 27945.2,2500.13 27946.1,2498.99L27949.6,2500.16C27950.5,2498.93 27951.3,2497.61 27951.9,2496.23L27949.1,2493.76C27949.6,2492.39 27950,2490.97 27950.2,2489.52L27953.9,2488.77C27954,2487.26 27954,2485.74 27953.9,2484.23L27950.2,2483.48C27950,2482.03 27949.6,2480.61 27949.1,2479.24L27951.9,2476.77C27951.3,2475.39 27950.5,2474.07 27949.6,2472.84L27946.1,2474.01C27945.2,2472.87 27944.1,2471.83 27943,2470.91L27944.2,2467.38C27942.9,2466.5 27941.6,2465.74 27940.2,2465.11L27937.8,2467.89C27936.4,2467.36 27935,2466.98 27933.5,2466.76L27932.8,2463.11ZM27930.5,2481.8C27933.1,2481.8 27935.2,2483.91 27935.2,2486.5C27935.2,2489.09 27933.1,2491.2 27930.5,2491.2C27927.9,2491.2 27925.8,2489.09 27925.8,2486.5C27925.8,2483.91 27927.9,2481.8 27930.5,2481.8Z" style="fill:rgb(229,180,131);"/>
            </g>
            <g transform="matrix(0.181042,4.84342e-33,0,0.599077,-998.976,4501.39)">
                <path d="M27932.8,2463.11C27931.3,2462.96 27929.7,2462.96 27928.2,2463.11L27927.5,2466.76C27926,2466.98 27924.6,2467.36 27923.2,2467.89L27920.8,2465.11C27919.4,2465.74 27918.1,2466.5 27916.8,2467.38L27918,2470.91C27916.9,2471.83 27915.8,2472.87 27914.9,2474.01L27911.4,2472.84C27910.5,2474.07 27909.7,2475.39 27909.1,2476.77L27911.9,2479.24C27911.4,2480.61 27911,2482.03 27910.8,2483.48L27907.1,2484.23C27907,2485.74 27907,2487.26 27907.1,2488.77L27910.8,2489.52C27911,2490.97 27911.4,2492.39 27911.9,2493.76L27909.1,2496.23C27909.7,2497.61 27910.5,2498.93 27911.4,2500.16L27914.9,2498.99C27915.8,2500.13 27916.9,2501.17 27918,2502.09L27916.8,2505.62C27918.1,2506.5 27919.4,2507.26 27920.8,2507.89L27923.2,2505.11C27924.6,2505.64 27926,2506.02 27927.5,2506.24L27928.2,2509.89C27929.7,2510.04 27931.3,2510.04 27932.8,2509.89L27933.5,2506.24C27935,2506.02 27936.4,2505.64 27937.8,2505.11L27940.2,2507.89C27941.6,2507.26 27942.9,2506.5 27944.2,2505.62L27943,2502.09C27944.1,2501.17 27945.2,2500.13 27946.1,2498.99L27949.6,2500.16C27950.5,2498.93 27951.3,2497.61 27951.9,2496.23L27949.1,2493.76C27949.6,2492.39 27950,2490.97 27950.2,2489.52L27953.9,2488.77C27954,2487.26 27954,2485.74 27953.9,2484.23L27950.2,2483.48C27950,2482.03 27949.6,2480.61 27949.1,2479.24L27951.9,2476.77C27951.3,2475.39 27950.5,2474.07 27949.6,2472.84L27946.1,2474.01C27945.2,2472.87 27944.1,2471.83 27943,2470.91L27944.2,2467.38C27942.9,2466.5 27941.6,2465.74 27940.2,2465.11L27937.8,2467.89C27936.4,2467.36 27935,2466.98 27933.5,2466.76L27932.8,2463.11ZM27930.5,2481.8C27933.1,2481.8 27935.2,2483.91 27935.2,2486.5C27935.2,2489.09 27933.1,2491.2 27930.5,2491.2C27927.9,2491.2 27925.8,2489.09 27925.8,2486.5C27925.8,2483.91 27927.9,2481.8 27930.5,2481.8Z" style="fill:rgb(229,180,131);"/>
            </g>
            <g transform="matrix(0.181042,4.84342e-33,0,0.599077,-992.459,4515.47)">
                <path d="M27932.8,2463.11C27931.3,2462.96 27929.7,2462.96 27928.2,2463.11L27927.5,2466.76C27926,2466.98 27924.6,2467.36 27923.2,2467.89L27920.8,2465.11C27919.4,2465.74 27918.1,2466.5 27916.8,2467.38L27918,2470.91C27916.9,2471.83 27915.8,2472.87 27914.9,2474.01L27911.4,2472.84C27910.5,2474.07 27909.7,2475.39 27909.1,2476.77L27911.9,2479.24C27911.4,2480.61 27911,2482.03 27910.8,2483.48L27907.1,2484.23C27907,2485.74 27907,2487.26 27907.1,2488.77L27910.8,2489.52C27911,2490.97 27911.4,2492.39 27911.9,2493.76L27909.1,2496.23C27909.7,2497.61 27910.5,2498.93 27911.4,2500.16L27914.9,2498.99C27915.8,2500.13 27916.9,2501.17 27918,2502.09L27916.8,2505.62C27918.1,2506.5 27919.4,2507.26 27920.8,2507.89L27923.2,2505.11C27924.6,2505.64 27926,2506.02 27927.5,2506.24L27928.2,2509.89C27929.7,2510.04 27931.3,2510.04 27932.8,2509.89L27933.5,2506.24C27935,2506.02 27936.4,2505.64 27937.8,2505.11L27940.2,2507.89C27941.6,2507.26 27942.9,2506.5 27944.2,2505.62L27943,2502.09C27944.1,2501.17 27945.2,2500.13 27946.1,2498.99L27949.6,2500.16C27950.5,2498.93 27951.3,2497.61 27951.9,2496.23L27949.1,2493.76C27949.6,2492.39 27950,2490.97 27950.2,2489.52L27953.9,2488.77C27954,2487.26 27954,2485.74 27953.9,2484.23L27950.2,2483.48C27950,2482.03 27949.6,2480.61 27949.1,2479.24L27951.9,2476.77C27951.3,2475.39 27950.5,2474.07 27949.6,2472.84L27946.1,2474.01C27945.2,2472.87 27944.1,2471.83 27943,2470.91L27944.2,2467.38C27942.9,2466.5 27941.6,2465.74 27940.2,2465.11L27937.8,2467.89C27936.4,2467.36 27935,2466.98 27933.5,2466.76L27932.8,2463.11ZM27930.5,2481.8C27933.1,2481.8 27935.2,2483.91 27935.2,2486.5C27935.2,2489.09 27933.1,2491.2 27930.5,2491.2C27927.9,2491.2 27925.8,2489.09 27925.8,2486.5C27925.8,2483.91 27927.9,2481.8 27930.5,2481.8Z" style="fill:rgb(229,180,131);"/>
            </g>
            <g transform="matrix(0.0789157,2.11124e-33,0,0.290462,1857.58,5242.5)">
                <g transform="matrix(0.327437,-0,-0,0.294378,27731.5,2316.85)">
                    <path d="M570.514,400.641L534.738,431.682L492.324,410.598" style="fill:none;stroke:black;stroke-width:17.52px;"/>
                    <path d="M178.747,105.822C178.747,105.822 494.772,147.274 534.738,431.682" style="fill:none;stroke:black;stroke-width:17.52px;stroke-miterlimit:5;"/>
                </g>
            </g>
            <g transform="matrix(-0.0141179,0.174349,-0.0727545,-0.0645083,4620.78,1325.45)">
                <g transform="matrix(-0.122607,-0.331374,0.457574,-0.0887914,27290,2604.31)">
                    <path d="M135.97,1421.4L116.217,1378.35L148.357,1343.56" style="fill:none;stroke:black;stroke-width:17.52px;"/>
                    <path d="M448.489,1212.82C448.489,1212.82 357.97,1413.77 116.217,1378.35" style="fill:none;stroke:black;stroke-width:17.52px;stroke-miterlimit:5;"/>
                </g>
            </g>
        </g>
    </g>
</svg>
