<?xml version="1.0" encoding="UTF-8" standalone="no"?>
<!DOCTYPE svg PUBLIC "-//W3C//DTD SVG 1.1//EN" "http://www.w3.org/Graphics/SVG/1.1/DTD/svg11.dtd">
<svg width="100%" height="100%" viewBox="0 0 2367 2572" version="1.1" xmlns="http://www.w3.org/2000/svg" xmlns:xlink="http://www.w3.org/1999/xlink" xml:space="preserve" xmlns:serif="http://www.serif.com/" style="fill-rule:evenodd;clip-rule:evenodd;stroke-linejoin:round;stroke-miterlimit:2;">
    <g transform="matrix(1,0,0,1,-10782,-50364.8)">
        <g id="_6-data-structures" serif:id="6-data-structures" transform="matrix(3.72246,0,0,3.57998,-69327.3,-81785.1)">
            <g transform="matrix(0.627674,0,0,0.652655,21612.4,37139.5)">
                <path d="M244.32,215.18C253.761,215.18 261.445,207.453 261.445,197.961C261.445,188.465 253.761,180.738 244.32,180.738C234.879,180.738 227.195,188.465 227.195,197.961C227.195,207.457 234.875,215.18 244.32,215.18ZM244.32,189.629C248.863,189.629 252.558,193.367 252.558,197.961C252.558,202.555 248.863,206.293 244.32,206.293C239.777,206.293 236.082,202.555 236.082,197.961C236.082,193.367 239.777,189.629 244.32,189.629ZM286.593,215.18C296.034,215.18 303.718,207.453 303.718,197.961C303.718,188.465 296.034,180.738 286.593,180.738C277.152,180.738 269.468,188.465 269.468,197.961C269.468,207.457 277.148,215.18 286.593,215.18ZM286.593,189.629C291.136,189.629 294.831,193.367 294.831,197.961C294.831,202.555 291.136,206.293 286.593,206.293C282.05,206.293 278.355,202.555 278.355,197.961C278.355,193.367 282.05,189.629 286.593,189.629ZM315.968,197.961C315.968,195.508 317.956,193.516 320.413,193.516L468.373,193.516C470.826,193.516 472.819,195.504 472.819,197.961C472.819,200.414 470.83,202.406 468.373,202.406L320.413,202.406C317.96,202.406 315.972,200.414 315.972,197.961L315.968,197.961ZM244.32,265.918C234.879,265.918 227.195,273.645 227.195,283.141C227.195,292.637 234.879,300.36 244.32,300.36C253.761,300.36 261.445,292.637 261.445,283.141C261.445,273.645 253.761,265.918 244.32,265.918ZM244.32,291.473C239.777,291.473 236.082,287.735 236.082,283.141C236.082,278.547 239.777,274.809 244.32,274.809C248.863,274.809 252.558,278.547 252.558,283.141C252.558,287.735 248.859,291.473 244.32,291.473ZM286.593,265.918C277.152,265.918 269.468,273.645 269.468,283.141C269.468,292.637 277.152,300.36 286.593,300.36C296.034,300.36 303.718,292.637 303.718,283.141C303.718,273.645 296.034,265.918 286.593,265.918ZM286.593,291.473C282.05,291.473 278.355,287.735 278.355,283.141C278.355,278.547 282.05,274.809 286.593,274.809C291.136,274.809 294.831,278.547 294.831,283.141C294.831,287.735 291.136,291.473 286.593,291.473ZM472.813,283.141C472.813,285.594 470.825,287.586 468.368,287.586L320.408,287.586C317.955,287.586 315.962,285.598 315.962,283.141C315.962,280.688 317.951,278.696 320.408,278.696L468.368,278.696C470.825,278.696 472.813,280.688 472.813,283.141ZM244.323,385.541C253.764,385.541 261.448,377.814 261.448,368.318C261.448,358.822 253.764,351.099 244.323,351.099C234.882,351.099 227.198,358.822 227.198,368.318C227.198,377.814 234.878,385.541 244.323,385.541ZM244.323,359.99C248.866,359.99 252.561,363.728 252.561,368.322C252.561,372.916 248.866,376.654 244.323,376.654C239.78,376.654 236.085,372.916 236.085,368.322C236.085,363.724 239.78,359.99 244.323,359.99ZM286.596,385.541C296.037,385.541 303.721,377.814 303.721,368.318C303.721,358.822 296.037,351.099 286.596,351.099C277.155,351.099 269.471,358.822 269.471,368.318C269.471,377.814 277.151,385.541 286.596,385.541ZM286.596,359.99C291.139,359.99 294.834,363.728 294.834,368.322C294.834,372.916 291.139,376.654 286.596,376.654C282.053,376.654 278.358,372.916 278.358,368.322C278.358,363.724 282.053,359.99 286.596,359.99ZM315.971,368.322C315.971,365.869 317.959,363.877 320.416,363.877L468.376,363.877C470.829,363.877 472.822,365.865 472.822,368.322C472.822,370.775 470.833,372.767 468.376,372.767L320.416,372.763C317.963,372.763 315.975,370.775 315.975,368.322L315.971,368.322ZM603.311,282.912C603.311,263.31 587.362,247.361 567.76,247.361C549.584,247.361 534.557,261.076 532.467,278.701L498.186,278.701L498.186,262.482C498.186,253.345 493.541,245.283 486.51,240.548C493.545,235.825 498.186,227.798 498.186,218.704L498.186,177.22C498.186,162.724 486.393,150.927 471.893,150.927L354.453,150.931L354.449,111.033L507.709,111.177L507.713,111.177C510.162,111.177 512.15,109.193 512.158,106.744L512.24,71.189L538.892,71.189C541.345,71.189 543.338,69.201 543.338,66.744L543.338,4.514C543.338,2.06 541.349,0.068 538.892,0.068L476.712,0.068C474.259,0.068 472.267,2.057 472.267,4.514L472.267,66.744C472.267,69.197 474.255,71.189 476.712,71.189L503.349,71.189L503.279,102.287L354.449,102.146L354.449,71.044C372.144,68.712 385.761,53.634 385.578,35.575C385.48,26.013 381.758,17.063 375.098,10.376C368.383,3.634 359.485,-0.026 349.965,0.071C330.153,0.278 314.199,16.286 314.395,35.762C314.493,45.325 318.223,54.289 324.895,61.008C330.551,66.704 337.77,70.2 345.563,71.117L345.563,102.144L196.833,102.14L196.833,68.859L227.798,6.414C228.482,5.035 228.403,3.407 227.591,2.098C226.782,0.789 225.353,-0.004 223.818,-0.004L160.791,-0.004C159.251,-0.004 157.822,0.793 157.013,2.102C156.205,3.41 156.13,5.047 156.814,6.422L187.947,68.863L187.947,106.582C187.947,109.035 189.935,111.027 192.392,111.027L345.562,111.027L345.562,150.925L228.122,150.925C213.626,150.925 201.829,162.718 201.829,177.218L201.829,218.702C201.829,227.796 206.47,235.823 213.505,240.546C206.47,245.281 201.829,253.343 201.829,262.48L201.829,303.805C201.829,312.937 206.47,321 213.497,325.735C206.466,330.469 201.829,338.532 201.829,347.665L201.829,388.985C201.829,403.528 213.587,415.36 228.04,415.36L345.56,415.352L345.56,449.856L192.08,449.856C189.627,449.856 187.635,451.844 187.635,454.301L187.635,491.832L156.99,553.578C156.306,554.957 156.385,556.59 157.193,557.894C158.002,559.199 159.431,559.996 160.97,559.996L223.185,559.996C224.725,559.996 226.15,559.199 226.963,557.894C227.771,556.586 227.85,554.953 227.166,553.578L196.521,491.832L196.521,458.746L345.561,458.746L345.561,488.719C328.049,490.93 314.456,505.996 314.456,524.211C314.456,543.941 330.405,559.996 350.007,559.996C369.609,559.996 385.558,543.945 385.558,524.211C385.558,505.996 371.964,490.926 354.453,488.719L354.453,458.746L503.493,458.746L503.834,493.683L512.071,493.584L512.38,455.301C512.38,452.848 510.392,449.856 507.935,449.856L354.455,449.856L354.455,415.352L471.975,415.352C486.428,415.352 498.186,403.52 498.186,388.977L498.186,347.657C498.186,338.524 493.545,330.462 486.518,325.727C493.549,320.992 498.186,312.93 498.186,303.797L498.186,287.578L532.467,287.578C534.556,305.203 549.584,318.918 567.76,318.918C587.362,318.918 603.311,302.969 603.311,283.367L603.311,282.912ZM481.161,8.952L534.454,8.952L534.454,62.296L481.161,62.296L481.161,8.952ZM216.661,8.882L192.384,57.835L167.978,8.882L216.661,8.882ZM323.281,35.667C323.133,21.089 335.144,9.105 350.054,8.952L350.331,8.952C357.304,8.952 363.854,11.674 368.796,16.639C373.812,21.674 376.613,28.428 376.687,35.659C376.835,50.292 364.843,62.319 349.957,62.471C342.91,62.565 336.223,59.799 331.195,54.741C326.168,49.674 323.355,42.901 323.281,35.667L323.281,35.667ZM168.136,551.107L192.077,502.869L216.018,551.107L168.136,551.107ZM376.676,524.209C376.676,539.041 364.715,551.104 350.012,551.104C335.309,551.104 323.348,539.038 323.348,524.209C323.348,509.377 335.309,497.314 350.012,497.314C364.715,497.314 376.676,509.38 376.676,524.209ZM210.726,177.217C210.726,167.619 218.534,159.815 228.132,159.815L471.902,159.815C481.499,159.815 489.308,167.623 489.308,177.217L489.308,218.701C489.308,228.298 481.499,236.103 471.902,236.103L228.132,236.103C218.534,236.103 210.726,228.294 210.726,218.701L210.726,177.217ZM489.306,347.657L489.306,388.977C489.306,398.617 481.536,406.461 471.982,406.461L228.052,406.465C218.501,406.465 210.728,398.621 210.728,388.981L210.728,347.661C210.728,338.02 218.497,330.177 228.052,330.177L471.982,330.177C481.533,330.173 489.306,338.016 489.306,347.657ZM489.306,303.802C489.306,313.442 481.536,321.286 471.982,321.286L228.052,321.286C218.501,321.286 210.728,313.442 210.728,303.802L210.728,262.482C210.728,252.841 218.497,244.998 228.052,244.998L471.982,244.998C481.533,244.998 489.306,252.841 489.306,262.482L489.302,303.802L489.306,303.802ZM594.426,283.372C594.426,298.075 582.465,310.036 567.762,310.036C553.059,310.036 541.098,298.075 541.098,283.372L541.098,282.907C541.098,268.204 553.059,256.243 567.762,256.243C582.465,256.243 594.426,268.204 594.426,282.907L594.426,283.372Z" style="fill:rgb(229,181,132);fill-rule:nonzero;"/>
            </g>
            <g>
                <g transform="matrix(0.592805,0,0,0.591971,21799.3,37362.2)">
                    <path d="M236.91,185.93L208.316,185.93C206.293,185.93 204.652,187.567 204.652,189.594L204.652,214.11C204.652,216.134 206.293,217.774 208.316,217.774L236.91,217.774C238.933,217.774 240.574,216.137 240.574,214.11L240.574,189.594C240.57,187.571 238.93,185.93 236.91,185.93ZM233.254,210.45L211.981,210.45L211.977,193.259L233.25,193.259L233.254,210.45Z" style="fill:rgb(52,90,159);fill-rule:nonzero;"/>
                </g>
                <g transform="matrix(0.592805,0,0,0.591971,21799.3,37362.2)">
                    <path d="M262.28,385.31L290.874,385.31C292.897,385.31 294.538,383.673 294.538,381.646L294.538,357.134C294.538,355.111 292.898,353.47 290.874,353.47L262.28,353.47C260.257,353.47 258.616,355.107 258.616,357.134L258.616,381.646C258.616,383.669 260.256,385.31 262.28,385.31ZM265.936,360.794L287.209,360.794L287.209,377.985L265.936,377.985L265.936,360.794Z" style="fill:rgb(52,90,159);fill-rule:nonzero;"/>
                </g>
                <g transform="matrix(0.592805,0,0,0.591971,21799.3,37362.2)">
                    <path d="M439.6,289.83L468.194,289.83C470.217,289.83 471.858,288.193 471.858,286.166L471.858,261.654C471.858,259.63 470.218,257.99 468.194,257.99L439.6,257.994C437.577,257.994 435.936,259.63 435.936,261.658L435.936,286.17C435.936,288.189 437.577,289.83 439.6,289.83L439.6,289.83ZM443.26,265.314L464.533,265.314L464.533,282.505L443.26,282.505L443.26,265.314Z" style="fill:rgb(52,90,159);fill-rule:nonzero;"/>
                </g>
                <g transform="matrix(0.592805,0,0,0.591971,21799.3,37362.2)">
                    <path d="M598.34,224.52L559.902,224.52C557.879,224.52 556.238,226.157 556.238,228.184L556.238,250.344C551.804,252.149 548.578,256.231 547.918,261.137L489.168,261.133C489.082,261.133 489.015,261.172 488.937,261.176L488.937,240.508C488.937,238.485 487.297,236.844 485.273,236.844L475.707,236.844L475.707,222.149L516.109,222.973C518.249,223.048 519.804,221.407 519.843,219.387C519.882,217.364 518.277,215.696 516.257,215.653L472.116,214.758C471.151,214.731 470.183,215.118 469.479,215.805C468.78,216.493 468.382,217.434 468.382,218.419L468.382,236.849L461.061,236.849L461.061,202.439C465.698,200.267 468.94,195.591 468.94,190.142C468.94,182.638 462.835,176.533 455.331,176.533C447.828,176.533 441.722,182.638 441.722,190.142C441.722,197.099 446.992,202.787 453.734,203.587L453.734,236.853L439.089,236.853L439.089,224.529C439.089,222.505 437.449,220.865 435.425,220.865L404.323,220.865C402.3,220.865 400.659,222.501 400.659,224.529C400.659,226.556 402.3,228.193 404.323,228.193L431.78,228.193L431.78,236.857L422.53,236.857C420.507,236.857 418.866,238.494 418.866,240.521L418.866,250.165L380.53,250.165L380.53,223.474C385.526,221.459 389.069,216.58 389.069,210.869C389.069,203.366 382.964,197.26 375.46,197.26C369.593,197.26 364.624,201.018 362.722,206.233L336.601,206.233L336.601,202.749C340.797,200.428 343.676,196.01 343.676,190.89C343.676,184.148 338.738,178.578 332.289,177.507L332.289,159.8L367.066,159.8C369.089,159.8 370.73,158.163 370.73,156.136C370.73,154.108 369.089,152.472 367.066,152.472L328.628,152.472C326.604,152.472 324.963,154.108 324.963,156.136L324.963,178.296C320.53,180.1 317.295,184.182 316.643,189.089L257.889,189.081C257.803,189.081 257.737,189.12 257.655,189.124L257.655,168.456C257.655,166.432 256.014,164.792 253.991,164.792L244.424,164.792L244.424,-62.064L237.103,-61.994L237.103,164.791L229.783,164.791L222.46,164.787L207.815,164.787L207.815,152.467C207.815,150.444 206.174,148.803 204.151,148.803L173.038,148.803C171.014,148.803 169.374,150.44 169.374,152.467C169.374,154.495 171.014,156.132 173.038,156.132L200.495,156.132L200.495,164.796L191.237,164.796C189.214,164.796 187.573,166.432 187.573,168.46L187.581,178.085L149.249,178.085L141.938,181.757C141.938,183.781 143.578,185.421 145.602,185.421L187.598,185.421L187.598,198.632L68.174,198.234C66.573,192.504 61.358,188.265 55.127,188.265C47.623,188.265 41.518,194.371 41.518,201.874C41.518,209.378 47.624,215.483 55.127,215.483C61.342,215.483 66.545,211.264 68.162,205.561L187.601,205.964L187.601,222.034L152.925,222.034C150.901,222.034 149.261,223.67 149.261,225.698L149.261,243.999L132.781,243.995C130.757,243.995 129.117,245.632 129.117,247.659C129.117,249.686 130.757,251.323 132.781,251.323L152.914,251.323C154.937,251.323 156.578,249.686 156.578,247.659L156.578,229.358L187.59,229.358L187.59,235.295C187.59,237.319 189.23,238.96 191.254,238.96L204.168,238.96L204.168,258.179C198.449,259.784 194.223,264.995 194.223,271.222C194.223,278.725 200.328,284.831 207.832,284.831C215.335,284.831 221.441,278.725 221.441,271.222C221.441,264.995 217.214,259.792 211.495,258.179L211.495,238.96L218.816,238.96L218.816,249.499C218.816,251.522 220.456,253.163 222.48,253.163C224.503,253.163 226.144,251.526 226.144,249.499L226.144,238.96L237.124,238.96L237.124,254.987C237.124,257.01 238.764,258.651 240.788,258.651L273.733,258.651L273.733,272.796C268.346,274.604 264.424,279.651 264.424,285.644C264.424,292.601 269.694,298.289 276.436,299.089L276.436,332.355L261.791,332.355L261.791,320.031C261.791,318.007 260.151,316.367 258.127,316.367L227.014,316.367C224.991,316.367 223.35,318.003 223.35,320.031C223.35,322.058 224.991,323.695 227.014,323.695L254.471,323.695L254.471,332.359L245.213,332.359C243.19,332.359 241.549,333.996 241.549,336.023L241.549,345.667L203.217,345.667L203.217,318.976C208.213,316.961 211.756,312.082 211.756,306.371C211.756,298.868 205.651,292.762 198.147,292.762C192.28,292.762 187.311,296.52 185.409,301.735L159.289,301.735L159.289,277.942C159.289,275.919 157.648,274.278 155.624,274.278C153.601,274.278 151.96,275.915 151.96,277.942L151.96,305.399C151.96,307.423 153.601,309.063 155.624,309.063L184.804,309.044C185.906,314.532 190.336,318.798 195.886,319.735L195.886,349.313C195.886,351.336 197.527,352.977 199.551,352.977L241.547,352.977L241.547,366.188L183.535,365.789C181.933,360.059 176.718,355.821 170.488,355.821C162.984,355.821 156.879,361.926 156.879,369.43C156.879,376.933 162.984,383.039 170.488,383.039C176.702,383.039 181.906,378.82 183.523,373.117L241.55,373.515L241.55,389.593L206.866,389.589C204.842,389.589 203.201,391.226 203.201,393.253L203.201,411.554L186.724,411.554C184.701,411.554 183.06,413.191 183.06,415.218C183.06,417.246 184.701,418.883 186.724,418.883L206.857,418.883C208.881,418.883 210.522,417.246 210.522,415.218L210.522,396.917L241.534,396.917L241.534,402.855C241.534,404.878 243.174,406.519 245.198,406.519L258.112,406.519L258.112,425.734C252.393,427.347 248.166,432.554 248.166,438.781C248.166,446.285 254.272,452.39 261.775,452.39C269.279,452.39 275.384,446.285 275.384,438.781C275.384,432.554 271.158,427.347 265.439,425.734L265.439,406.519L272.759,406.519L272.759,417.058C272.759,419.081 274.4,420.722 276.423,420.722C278.447,420.722 280.088,419.085 280.088,417.058L280.088,406.519L291.068,406.519L291.068,422.546C291.068,424.569 292.708,426.21 294.732,426.21L327.677,426.21L327.677,442.687C327.677,444.711 329.317,446.351 331.341,446.351C333.364,446.351 335.005,444.715 335.005,442.687L335.005,422.554C335.005,420.531 333.364,418.89 331.341,418.89L298.396,418.89L298.396,406.519L307.962,406.519C309.986,406.519 311.626,404.882 311.626,402.855L311.626,389.601L345.993,389.601L345.993,418.89C345.993,420.913 347.634,422.554 349.657,422.554L360.637,422.554L360.637,428.956C354.919,430.57 350.692,435.773 350.692,441.999C350.692,449.503 356.798,455.608 364.301,455.608C371.805,455.608 377.91,449.503 377.91,441.999C377.91,435.773 373.683,430.569 367.965,428.956L367.965,418.894C367.965,416.871 366.324,415.23 364.301,415.23L353.321,415.23L353.321,385.941C353.321,383.918 351.68,382.277 349.657,382.277L311.634,382.277L311.634,363.925C311.719,363.929 311.786,363.968 311.868,363.968L371.63,363.968C373.751,368.73 378.505,372.062 384.044,372.062C391.548,372.062 397.653,365.956 397.653,358.453C397.653,351.711 392.715,346.141 386.266,345.07L386.266,327.363L421.043,327.363C423.066,327.363 424.707,325.726 424.707,323.699C424.707,321.671 423.066,320.035 421.043,320.035L386.266,320.035L386.254,301.398L416.234,301.398C417.281,301.398 418.211,300.948 418.879,300.245L418.879,307.335C418.879,309.359 420.519,310.999 422.543,310.999L435.457,310.999L435.457,330.214C429.738,331.828 425.512,337.035 425.512,343.261C425.512,350.765 431.617,356.87 439.121,356.87C446.624,356.87 452.73,350.765 452.73,343.261C452.73,337.035 448.503,331.827 442.784,330.214L442.784,310.999L450.105,310.999L450.105,321.538C450.105,323.562 451.745,325.202 453.769,325.202C455.792,325.202 457.433,323.566 457.433,321.538L457.433,310.999L468.413,310.999L468.413,327.026C468.413,329.05 470.053,330.69 472.077,330.69L505.022,330.69L505.022,347.167C505.022,349.191 506.662,350.832 508.686,350.832C510.709,350.832 512.35,349.195 512.35,347.167L512.35,327.034C512.35,325.011 510.709,323.37 508.686,323.37L475.741,323.37L475.741,310.999L485.307,310.999C487.331,310.999 488.971,309.363 488.971,307.335L488.971,294.081L523.334,294.081L523.334,323.37C523.334,325.394 524.975,327.034 526.999,327.034L537.979,327.034L537.979,333.437C532.26,335.05 528.033,340.253 528.033,346.48C528.033,353.984 534.139,360.089 541.642,360.089C549.146,360.089 555.251,353.983 555.251,346.48C555.251,340.253 551.025,335.046 545.306,333.437L545.306,323.375C545.306,321.351 543.665,319.711 541.642,319.711L530.662,319.711L530.662,290.422C530.662,288.398 529.021,286.757 526.998,286.757L488.975,286.757L488.975,268.405C489.053,268.409 489.127,268.448 489.205,268.448L548.967,268.448C551.088,273.21 555.842,276.542 561.381,276.542C568.885,276.542 574.99,270.437 574.99,262.933C574.99,256.191 570.045,250.621 563.603,249.55L563.588,231.847L598.365,231.847C600.388,231.847 602.029,230.21 602.029,228.183C602.025,226.16 600.357,224.523 598.333,224.523L598.34,224.52ZM449.05,190.137C449.05,186.672 451.874,183.848 455.339,183.848C458.804,183.848 461.62,186.672 461.62,190.137C461.62,193.602 458.804,196.418 455.339,196.418C451.874,196.418 449.05,193.598 449.05,190.137ZM55.114,208.142C51.65,208.142 48.825,205.318 48.825,201.861C48.825,198.396 51.65,195.572 55.114,195.572C58.579,195.572 61.396,198.396 61.396,201.861C61.403,205.326 58.579,208.142 55.114,208.142ZM214.112,271.193C214.112,274.658 211.296,277.474 207.831,277.474C204.366,277.474 201.542,274.65 201.542,271.193C201.542,267.728 204.366,264.912 207.831,264.912C211.296,264.908 214.112,267.724 214.112,271.193ZM191.858,306.326C191.858,302.861 194.682,300.045 198.147,300.045C201.612,300.045 204.428,302.869 204.428,306.326C204.428,309.787 201.612,312.607 198.147,312.607C194.678,312.607 191.858,309.791 191.858,306.326ZM170.483,375.681C167.018,375.681 164.194,372.857 164.194,369.4C164.194,365.935 167.018,363.111 170.483,363.111C173.948,363.111 176.764,365.935 176.764,369.4C176.764,372.861 173.948,375.681 170.483,375.681ZM268.069,438.728C268.069,442.193 265.253,445.009 261.788,445.009C258.323,445.009 255.499,442.185 255.499,438.728C255.499,435.263 258.323,432.439 261.788,432.439C265.249,432.439 268.069,435.259 268.069,438.728ZM370.569,441.939C370.569,445.404 367.753,448.22 364.288,448.22C360.823,448.22 357.999,445.396 357.999,441.939C357.999,438.474 360.823,435.658 364.288,435.658C367.753,435.658 370.569,438.478 370.569,441.939ZM445.397,343.251C445.397,346.716 442.573,349.532 439.108,349.532C435.643,349.532 432.827,346.708 432.827,343.251C432.827,339.786 435.643,336.962 439.108,336.962C442.573,336.962 445.397,339.786 445.397,343.251ZM547.897,346.466C547.897,349.931 545.073,352.747 541.608,352.747C538.143,352.747 535.327,349.923 535.327,346.466C535.327,343.001 538.143,340.184 541.608,340.184C545.077,340.181 547.897,343.001 547.897,346.466ZM375.477,204.566C378.942,204.566 381.766,207.39 381.766,210.847C381.766,214.308 378.942,217.128 375.477,217.128C372.012,217.128 369.196,214.304 369.196,210.847C369.192,207.39 372.008,204.566 375.477,204.566ZM330.075,184.586C333.54,184.586 336.364,187.41 336.364,190.875C336.364,194.34 333.54,197.156 330.075,197.156C326.61,197.156 323.794,194.332 323.794,190.875C323.794,187.406 326.61,184.586 330.075,184.586ZM194.915,172.102L250.337,172.102L250.337,231.606L194.915,231.606L194.915,172.102ZM271.735,285.612C271.735,282.147 274.551,279.323 278.016,279.323C281.481,279.323 284.305,282.147 284.305,285.612C284.305,289.077 281.481,291.893 278.016,291.893C274.559,291.897 271.735,289.077 271.735,285.612ZM304.294,399.152L248.872,399.152L248.872,339.644L304.294,339.644L304.294,399.152ZM390.317,358.418C390.317,361.883 387.493,364.699 384.028,364.699C380.563,364.699 377.747,361.875 377.747,358.418C377.747,354.953 380.563,352.129 384.028,352.129C387.493,352.129 390.317,354.949 390.317,358.418ZM416.231,294.086L382.59,294.086C380.567,294.086 378.926,295.722 378.926,297.75L378.926,345.832C374.492,347.637 371.266,351.719 370.606,356.625L311.852,356.621C311.766,356.621 311.699,356.66 311.617,356.664L311.617,335.996C311.617,333.972 309.977,332.332 307.953,332.332L298.387,332.332L298.387,317.637L338.785,318.461C340.855,318.426 342.476,316.895 342.519,314.875C342.558,312.852 340.953,311.184 338.933,311.141L294.8,310.246C293.828,310.211 292.867,310.606 292.164,311.293C291.464,311.981 291.066,312.922 291.066,313.906L291.066,332.336L283.746,332.336L283.746,297.926C288.382,295.754 291.624,291.079 291.624,285.629C291.624,279.168 287.089,273.77 281.038,272.387L281.038,254.981C281.038,252.958 279.398,251.317 277.374,251.317L244.429,251.317L244.429,238.946L253.996,238.946C256.019,238.946 257.66,237.31 257.66,235.282L257.66,222.028L292.027,222.028L292.027,251.317C292.027,253.341 293.667,254.981 295.691,254.981L306.671,254.981L306.671,261.384C300.952,262.989 296.726,268.2 296.726,274.427C296.726,281.93 302.831,288.036 310.335,288.036C317.839,288.036 323.944,281.93 323.944,274.427C323.944,268.2 319.717,262.997 313.998,261.384L313.998,251.322C313.998,249.298 312.358,247.657 310.334,247.657L299.354,247.657L299.354,218.368C299.354,216.345 297.714,214.704 295.69,214.704L257.667,214.704L257.671,196.349C257.757,196.353 257.823,196.392 257.905,196.392L317.667,196.392C319.691,200.916 324.101,204.103 329.3,204.404L329.3,209.881C329.3,211.904 330.941,213.545 332.965,213.545L362.153,213.545C363.254,219.033 367.684,223.299 373.231,224.236L373.231,253.814C373.231,255.837 374.871,257.478 376.895,257.478L418.891,257.478L418.891,270.689L360.879,270.29C359.277,264.56 354.062,260.322 347.824,260.322C340.32,260.322 334.215,266.427 334.215,273.931C334.215,281.434 340.32,287.54 347.824,287.54C354.046,287.54 359.242,283.321 360.859,277.618L418.886,278.016L418.886,295.246C418.206,294.531 417.276,294.086 416.229,294.086L416.231,294.086ZM310.331,268.121C313.796,268.121 316.612,270.945 316.612,274.402C316.612,277.863 313.796,280.683 310.331,280.683C306.862,280.687 304.046,277.871 304.046,274.41C304.046,270.949 306.862,268.121 310.331,268.121L310.331,268.121ZM354.101,273.925C354.101,277.39 351.277,280.207 347.812,280.207C344.347,280.207 341.531,277.382 341.531,273.925C341.531,270.461 344.347,267.636 347.812,267.636C351.277,267.636 354.101,270.457 354.101,273.925ZM481.621,303.675L426.199,303.675L426.199,244.171L481.621,244.171L481.621,303.675ZM567.641,262.941C567.641,266.406 564.825,269.223 561.36,269.223C557.895,269.223 555.071,266.398 555.071,262.941C555.071,259.477 557.895,256.652 561.36,256.652C564.821,256.652 567.641,259.477 567.641,262.941Z" style="fill:rgb(52,90,159);fill-rule:nonzero;"/>
                </g>
            </g>
            <g transform="matrix(3.89941e-17,0.662166,-0.611585,3.89392e-17,21799.1,37163.5)">
                <path d="M236.91,185.93L208.316,185.93C206.293,185.93 204.652,187.567 204.652,189.594L204.652,214.11C204.652,216.134 206.293,217.774 208.316,217.774L236.91,217.774C238.933,217.774 240.574,216.137 240.574,214.11L240.574,189.594C240.57,187.571 238.93,185.93 236.91,185.93ZM233.254,210.45L211.981,210.45L211.977,193.259L233.25,193.259L233.254,210.45Z" style="fill:rgb(180,94,89);fill-rule:nonzero;"/>
            </g>
            <g transform="matrix(-0.636821,-8.1092e-17,7.48976e-17,-0.635926,22025.6,37203.3)">
                <path d="M236.91,185.93L208.316,185.93C206.293,185.93 204.652,187.567 204.652,189.594L204.652,214.11C204.652,216.134 206.293,217.774 208.316,217.774L236.91,217.774C238.933,217.774 240.574,216.137 240.574,214.11L240.574,189.594C240.57,187.571 238.93,185.93 236.91,185.93ZM233.254,210.45L211.981,210.45L211.977,193.259L233.25,193.259L233.254,210.45Z" style="fill:rgb(125,38,33);fill-rule:nonzero;"/>
            </g>
            <g transform="matrix(3.89941e-17,0.662166,-0.611585,3.89392e-17,21799.1,37163.5)">
                <path d="M262.28,385.31L290.874,385.31C292.897,385.31 294.538,383.673 294.538,381.646L294.538,357.134C294.538,355.111 292.898,353.47 290.874,353.47L262.28,353.47C260.257,353.47 258.616,355.107 258.616,357.134L258.616,381.646C258.616,383.669 260.256,385.31 262.28,385.31ZM265.936,360.794L287.209,360.794L287.209,377.985L265.936,377.985L265.936,360.794Z" style="fill:rgb(180,94,89);fill-rule:nonzero;"/>
            </g>
            <g transform="matrix(-0.636821,-8.1092e-17,7.48976e-17,-0.635926,22025.6,37203.3)">
                <path d="M262.28,385.31L290.874,385.31C292.897,385.31 294.538,383.673 294.538,381.646L294.538,357.134C294.538,355.111 292.898,353.47 290.874,353.47L262.28,353.47C260.257,353.47 258.616,355.107 258.616,357.134L258.616,381.646C258.616,383.669 260.256,385.31 262.28,385.31ZM265.936,360.794L287.209,360.794L287.209,377.985L265.936,377.985L265.936,360.794Z" style="fill:rgb(125,38,33);fill-rule:nonzero;"/>
            </g>
            <g transform="matrix(3.89941e-17,0.662166,-0.611585,3.89392e-17,21799.1,37163.5)">
                <path d="M439.6,289.83L468.194,289.83C470.217,289.83 471.858,288.193 471.858,286.166L471.858,261.654C471.858,259.63 470.218,257.99 468.194,257.99L439.6,257.994C437.577,257.994 435.936,259.63 435.936,261.658L435.936,286.17C435.936,288.189 437.577,289.83 439.6,289.83L439.6,289.83ZM443.26,265.314L464.533,265.314L464.533,282.505L443.26,282.505L443.26,265.314Z" style="fill:rgb(180,94,89);fill-rule:nonzero;"/>
            </g>
            <g transform="matrix(-0.636821,-8.1092e-17,7.48976e-17,-0.635926,22025.6,37203.3)">
                <path d="M439.6,289.83L468.194,289.83C470.217,289.83 471.858,288.193 471.858,286.166L471.858,261.654C471.858,259.63 470.218,257.99 468.194,257.99L439.6,257.994C437.577,257.994 435.936,259.63 435.936,261.658L435.936,286.17C435.936,288.189 437.577,289.83 439.6,289.83L439.6,289.83ZM443.26,265.314L464.533,265.314L464.533,282.505L443.26,282.505L443.26,265.314Z" style="fill:rgb(125,38,33);fill-rule:nonzero;"/>
            </g>
            <g transform="matrix(3.89941e-17,0.662166,-0.611585,3.89392e-17,21799.1,37164.9)">
                <path d="M273.733,272.796C268.346,274.604 264.424,279.651 264.424,285.644C264.424,292.601 269.694,298.289 276.436,299.089L276.436,332.355L261.791,332.355L261.791,320.031C261.791,318.007 260.151,316.367 258.127,316.367L227.014,316.367C224.991,316.367 223.35,318.003 223.35,320.031C223.35,322.058 224.991,323.695 227.014,323.695L254.471,323.695L254.471,332.359L245.213,332.359C243.19,332.359 241.549,333.996 241.549,336.023L241.549,345.667L203.217,345.667L203.217,318.976C208.213,316.961 211.756,312.082 211.756,306.371C211.756,298.868 205.651,292.762 198.147,292.762C192.28,292.762 187.311,296.52 185.409,301.735L159.289,301.735L159.289,277.942C159.289,275.919 157.648,274.278 155.624,274.278C153.601,274.278 151.96,275.915 151.96,277.942L151.96,305.399C151.96,307.423 153.601,309.063 155.624,309.063L184.804,309.044C185.906,314.532 190.336,318.798 195.886,319.735L195.886,349.313C195.886,351.336 197.527,352.977 199.551,352.977L241.547,352.977L241.547,366.188L183.535,365.789C181.933,360.059 176.718,355.821 170.488,355.821C162.984,355.821 156.879,361.926 156.879,369.43C156.879,376.933 162.984,383.039 170.488,383.039C176.702,383.039 181.906,378.82 183.523,373.117L241.55,373.515L241.55,389.593L206.866,389.589C204.842,389.589 203.201,391.226 203.201,393.253L203.201,411.554L186.724,411.554C184.701,411.554 183.06,413.191 183.06,415.218C183.06,417.246 184.701,418.883 186.724,418.883L206.857,418.883C208.881,418.883 210.522,417.246 210.522,415.218L210.522,396.917L241.534,396.917L241.534,402.855C241.534,404.878 243.174,406.519 245.198,406.519L258.112,406.519L258.112,425.734C252.393,427.347 248.166,432.554 248.166,438.781C248.166,446.285 254.272,452.39 261.775,452.39C269.279,452.39 275.384,446.285 275.384,438.781C275.384,432.554 271.158,427.347 265.439,425.734L265.439,406.519L272.759,406.519L272.759,417.058C272.759,419.081 274.4,420.722 276.423,420.722C278.447,420.722 280.088,419.085 280.088,417.058L280.088,406.519L291.068,406.519L291.068,422.546C291.068,424.569 292.708,426.21 294.732,426.21L327.677,426.21L327.677,442.687C327.677,444.711 329.317,446.351 331.341,446.351C333.364,446.351 335.005,444.715 335.005,442.687L335.005,422.554C335.005,420.531 333.364,418.89 331.341,418.89L298.396,418.89L298.396,406.519L307.962,406.519C309.986,406.519 311.626,404.882 311.626,402.855L311.626,389.601L345.993,389.601L345.993,418.89C345.993,420.913 347.634,422.554 349.657,422.554L360.637,422.554L360.637,428.956C354.919,430.57 350.692,435.773 350.692,441.999C350.692,449.503 356.798,455.608 364.301,455.608C371.805,455.608 377.91,449.503 377.91,441.999C377.91,435.773 373.683,430.569 367.965,428.956L367.965,418.894C367.965,416.871 366.324,415.23 364.301,415.23L353.321,415.23L353.321,385.941C353.321,383.918 351.68,382.277 349.657,382.277L311.634,382.277L311.634,363.925C311.719,363.929 311.786,363.968 311.868,363.968L371.63,363.968C373.751,368.73 378.505,372.062 384.044,372.062C391.548,372.062 397.653,365.956 397.653,358.453C397.653,351.711 392.715,346.141 386.266,345.07L386.266,327.363L421.043,327.363C423.066,327.363 424.707,325.726 424.707,323.699C424.707,321.671 423.066,320.035 421.043,320.035L386.266,320.035L386.254,301.398L416.234,301.398C417.281,301.398 418.211,300.948 418.879,300.245L418.879,307.335C418.879,309.359 420.519,310.999 422.543,310.999L435.457,310.999L435.457,330.214C429.738,331.828 425.512,337.035 425.512,343.261C425.512,350.765 431.617,356.87 439.121,356.87C446.624,356.87 452.73,350.765 452.73,343.261C452.73,337.035 448.503,331.827 442.784,330.214L442.784,310.999L450.105,310.999L450.105,321.538C450.105,323.562 451.745,325.202 453.769,325.202C455.792,325.202 457.433,323.566 457.433,321.538L457.433,310.999L468.413,310.999L468.413,327.026C468.413,329.05 470.053,330.69 472.077,330.69L505.022,330.69L505.022,347.167C505.022,349.191 506.662,350.832 508.686,350.832C510.709,350.832 512.35,349.195 512.35,347.167L512.35,327.034C512.35,325.011 510.709,323.37 508.686,323.37L475.741,323.37L475.741,310.999L485.307,310.999C487.331,310.999 488.971,309.363 488.971,307.335L488.971,294.081L523.334,294.081L523.334,323.37C523.334,325.394 524.975,327.034 526.999,327.034L537.979,327.034L537.979,333.437C532.26,335.05 528.033,340.253 528.033,346.48C528.033,353.984 534.139,360.089 541.642,360.089C549.146,360.089 555.251,353.983 555.251,346.48C555.251,340.253 551.025,335.046 545.306,333.437L545.306,323.375C545.306,321.351 543.665,319.711 541.642,319.711L530.662,319.711L530.662,290.422C530.662,288.398 529.021,286.757 526.998,286.757L488.975,286.757L488.975,268.405C489.053,268.409 489.127,268.448 489.205,268.448L548.967,268.448C551.088,273.21 555.842,276.542 561.381,276.542C568.885,276.542 574.99,270.437 574.99,262.933C574.99,256.191 570.045,250.621 563.603,249.55L563.588,231.847L598.365,231.847C600.388,231.847 602.029,230.21 602.029,228.183C602.025,226.16 600.357,224.523 598.333,224.523L598.34,224.52L559.902,224.52C557.879,224.52 556.238,226.157 556.238,228.184L556.238,250.344C551.804,252.149 548.578,256.231 547.918,261.137L489.168,261.133C489.082,261.133 489.015,261.172 488.937,261.176L488.937,240.508C488.937,238.485 487.297,236.844 485.273,236.844L475.707,236.844L475.707,222.149L516.109,222.973C518.249,223.048 519.804,221.407 519.843,219.387C519.882,217.364 518.277,215.696 516.257,215.653L472.116,214.758C471.151,214.731 470.183,215.118 469.479,215.805C468.78,216.493 468.382,217.434 468.382,218.419L468.382,236.849L461.061,236.849L461.061,202.439C465.698,200.267 468.94,195.591 468.94,190.142C468.94,182.638 462.835,176.533 455.331,176.533C447.828,176.533 441.722,182.638 441.722,190.142C441.722,197.099 446.992,202.787 453.734,203.587L453.734,236.853L439.089,236.853L439.089,224.529C439.089,222.505 437.449,220.865 435.425,220.865L404.323,220.865C402.3,220.865 400.659,222.501 400.659,224.529C400.659,226.556 402.3,228.193 404.323,228.193L431.78,228.193L431.78,236.857L422.53,236.857C420.507,236.857 418.866,238.494 418.866,240.521L418.866,250.165L380.53,250.165L380.53,223.474C385.526,221.459 389.069,216.58 389.069,210.869C389.069,203.366 382.964,197.26 375.46,197.26C369.593,197.26 364.624,201.018 362.722,206.233L336.601,206.233L336.601,202.749C340.797,200.428 343.676,196.01 343.676,190.89C343.676,184.148 338.738,178.578 332.289,177.507L332.289,96.149L324.963,95.579L324.963,178.296C320.53,180.1 317.295,184.182 316.643,189.089L257.889,189.081C257.803,189.081 257.737,189.12 257.655,189.124L257.655,168.456C257.655,166.432 256.014,164.792 253.991,164.792L244.424,164.792L244.424,95.178C244.424,95.178 237.103,94.866 237.103,95.85L237.103,164.791L229.783,164.791L222.46,164.787L207.815,164.787L207.815,152.467C207.815,150.444 206.174,148.803 204.151,148.803L173.038,148.803C171.014,148.803 169.374,150.44 169.374,152.467C169.374,154.495 171.014,156.132 173.038,156.132L200.495,156.132L200.495,164.796L191.237,164.796C189.214,164.796 187.573,166.432 187.573,168.46L187.581,178.085L149.249,178.085L148.507,94.883L141.703,95.206L141.938,181.757C141.938,183.781 143.578,185.421 145.602,185.421L187.598,185.421L187.598,198.632L129.586,198.234C127.984,192.504 122.769,188.265 116.539,188.265C109.035,188.265 102.93,194.371 102.93,201.874C102.93,209.378 109.035,215.483 116.539,215.483C122.754,215.483 127.957,211.264 129.574,205.561L187.601,205.964L187.601,222.034L152.925,222.034C150.901,222.034 149.261,223.67 149.261,225.698L149.261,243.999L132.781,243.995C130.757,243.995 129.117,245.632 129.117,247.659C129.117,249.686 130.757,251.323 132.781,251.323L152.914,251.323C154.937,251.323 156.578,249.686 156.578,247.659L156.578,229.358L187.59,229.358L187.59,235.295C187.59,237.319 189.23,238.96 191.254,238.96L204.168,238.96L204.168,258.179C198.449,259.784 194.223,264.995 194.223,271.222C194.223,278.725 200.328,284.831 207.832,284.831C215.335,284.831 221.441,278.725 221.441,271.222C221.441,264.995 217.214,259.792 211.495,258.179L211.495,238.96L218.816,238.96L218.816,249.499C218.816,251.522 220.456,253.163 222.48,253.163C224.503,253.163 226.144,251.526 226.144,249.499L226.144,238.96L237.124,238.96L237.124,254.987C237.124,257.01 238.764,258.651 240.788,258.651L273.733,258.651L273.733,272.796M449.05,190.137C449.05,186.672 451.874,183.848 455.339,183.848C458.804,183.848 461.62,186.672 461.62,190.137C461.62,193.602 458.804,196.418 455.339,196.418C451.874,196.418 449.05,193.598 449.05,190.137ZM116.526,208.142C113.061,208.142 110.237,205.318 110.237,201.861C110.237,198.396 113.061,195.572 116.526,195.572C119.991,195.572 122.807,198.396 122.807,201.861C122.815,205.326 119.991,208.142 116.526,208.142ZM214.112,271.193C214.112,274.658 211.296,277.474 207.831,277.474C204.366,277.474 201.542,274.65 201.542,271.193C201.542,267.728 204.366,264.912 207.831,264.912C211.296,264.908 214.112,267.724 214.112,271.193ZM191.858,306.326C191.858,302.861 194.682,300.045 198.147,300.045C201.612,300.045 204.428,302.869 204.428,306.326C204.428,309.787 201.612,312.607 198.147,312.607C194.678,312.607 191.858,309.791 191.858,306.326ZM170.483,375.681C167.018,375.681 164.194,372.857 164.194,369.4C164.194,365.935 167.018,363.111 170.483,363.111C173.948,363.111 176.764,365.935 176.764,369.4C176.764,372.861 173.948,375.681 170.483,375.681ZM268.069,438.728C268.069,442.193 265.253,445.009 261.788,445.009C258.323,445.009 255.499,442.185 255.499,438.728C255.499,435.263 258.323,432.439 261.788,432.439C265.249,432.439 268.069,435.259 268.069,438.728ZM370.569,441.939C370.569,445.404 367.753,448.22 364.288,448.22C360.823,448.22 357.999,445.396 357.999,441.939C357.999,438.474 360.823,435.658 364.288,435.658C367.753,435.658 370.569,438.478 370.569,441.939ZM445.397,343.251C445.397,346.716 442.573,349.532 439.108,349.532C435.643,349.532 432.827,346.708 432.827,343.251C432.827,339.786 435.643,336.962 439.108,336.962C442.573,336.962 445.397,339.786 445.397,343.251ZM547.897,346.466C547.897,349.931 545.073,352.747 541.608,352.747C538.143,352.747 535.327,349.923 535.327,346.466C535.327,343.001 538.143,340.184 541.608,340.184C545.077,340.181 547.897,343.001 547.897,346.466ZM375.477,204.566C378.942,204.566 381.766,207.39 381.766,210.847C381.766,214.308 378.942,217.128 375.477,217.128C372.012,217.128 369.196,214.304 369.196,210.847C369.192,207.39 372.008,204.566 375.477,204.566ZM330.075,184.586C333.54,184.586 336.364,187.41 336.364,190.875C336.364,194.34 333.54,197.156 330.075,197.156C326.61,197.156 323.794,194.332 323.794,190.875C323.794,187.406 326.61,184.586 330.075,184.586ZM194.915,172.102L250.337,172.102L250.337,231.606L194.915,231.606L194.915,172.102ZM271.735,285.612C271.735,282.147 274.551,279.323 278.016,279.323C281.481,279.323 284.305,282.147 284.305,285.612C284.305,289.077 281.481,291.893 278.016,291.893C274.559,291.897 271.735,289.077 271.735,285.612ZM304.294,399.152L248.872,399.152L248.872,339.644L304.294,339.644L304.294,399.152ZM390.317,358.418C390.317,361.883 387.493,364.699 384.028,364.699C380.563,364.699 377.747,361.875 377.747,358.418C377.747,354.953 380.563,352.129 384.028,352.129C387.493,352.129 390.317,354.949 390.317,358.418ZM281.038,272.387L281.038,254.981C281.038,252.958 279.398,251.317 277.374,251.317L244.429,251.317L244.429,238.946L253.996,238.946C256.019,238.946 257.66,237.31 257.66,235.282L257.66,222.028L292.027,222.028L292.027,251.317C292.027,253.341 293.667,254.981 295.691,254.981L306.671,254.981L306.671,261.384C300.952,262.989 296.726,268.2 296.726,274.427C296.726,281.93 302.831,288.036 310.335,288.036C317.839,288.036 323.944,281.93 323.944,274.427C323.944,268.2 319.717,262.997 313.998,261.384L313.998,251.322C313.998,249.298 312.358,247.657 310.334,247.657L299.354,247.657L299.354,218.368C299.354,216.345 297.714,214.704 295.69,214.704L257.667,214.704L257.671,196.349C257.757,196.353 257.823,196.392 257.905,196.392L317.667,196.392C319.691,200.916 324.101,204.103 329.3,204.404L329.3,209.881C329.3,211.904 330.941,213.545 332.965,213.545L362.153,213.545C363.254,219.033 367.684,223.299 373.231,224.236L373.231,253.814C373.231,255.837 374.871,257.478 376.895,257.478L418.891,257.478L418.891,270.689L360.879,270.29C359.277,264.56 354.062,260.322 347.824,260.322C340.32,260.322 334.215,266.427 334.215,273.931C334.215,281.434 340.32,287.54 347.824,287.54C354.046,287.54 359.242,283.321 360.859,277.618L418.886,278.016L418.886,295.246C418.206,294.531 417.276,294.086 416.229,294.086L416.231,294.086L382.59,294.086C380.567,294.086 378.926,295.722 378.926,297.75L378.926,345.832C374.492,347.637 371.266,351.719 370.606,356.625L311.852,356.621C311.766,356.621 311.699,356.66 311.617,356.664L311.617,335.996C311.617,333.972 309.977,332.332 307.953,332.332L298.387,332.332L298.387,317.637L338.785,318.461C340.855,318.426 342.476,316.895 342.519,314.875C342.558,312.852 340.953,311.184 338.933,311.141L294.8,310.246C293.828,310.211 292.867,310.606 292.164,311.293C291.464,311.981 291.066,312.922 291.066,313.906L291.066,332.336L283.746,332.336L283.746,297.926C288.382,295.754 291.624,291.079 291.624,285.629C291.624,279.168 287.089,273.77 281.038,272.387M310.331,268.121C313.796,268.121 316.612,270.945 316.612,274.402C316.612,277.863 313.796,280.683 310.331,280.683C306.862,280.687 304.046,277.871 304.046,274.41C304.046,270.949 306.862,268.121 310.331,268.121L310.331,268.121ZM354.101,273.925C354.101,277.39 351.277,280.207 347.812,280.207C344.347,280.207 341.531,277.382 341.531,273.925C341.531,270.461 344.347,267.636 347.812,267.636C351.277,267.636 354.101,270.457 354.101,273.925ZM481.621,303.675L426.199,303.675L426.199,244.171L481.621,244.171L481.621,303.675ZM567.641,262.941C567.641,266.406 564.825,269.223 561.36,269.223C557.895,269.223 555.071,266.398 555.071,262.941C555.071,259.477 557.895,256.652 561.36,256.652C564.821,256.652 567.641,259.477 567.641,262.941Z" style="fill:rgb(180,94,89);fill-rule:nonzero;"/>
            </g>
            <g transform="matrix(-0.636821,-8.1092e-17,7.48976e-17,-0.635926,22024.3,37203.3)">
                <path d="M273.733,272.796C268.346,274.604 264.424,279.651 264.424,285.644C264.424,292.601 269.694,298.289 276.436,299.089L276.436,332.355L261.791,332.355L261.791,320.031C261.791,318.007 260.151,316.367 258.127,316.367L227.014,316.367C224.991,316.367 223.35,318.003 223.35,320.031C223.35,322.058 224.991,323.695 227.014,323.695L254.471,323.695L254.471,332.359L245.213,332.359C243.19,332.359 241.549,333.996 241.549,336.023L241.549,345.667L203.217,345.667L203.217,318.976C208.213,316.961 211.756,312.082 211.756,306.371C211.756,298.868 205.651,292.762 198.147,292.762C192.28,292.762 187.311,296.52 185.409,301.735L159.289,301.735L159.289,277.942C159.289,275.919 157.648,274.278 155.624,274.278C153.601,274.278 151.96,275.915 151.96,277.942L151.96,305.399C151.96,307.423 153.601,309.063 155.624,309.063L184.804,309.044C185.906,314.532 190.336,318.798 195.886,319.735L195.886,349.313C195.886,351.336 197.527,352.977 199.551,352.977L241.547,352.977L241.547,366.188L183.535,365.789C181.933,360.059 176.718,355.821 170.488,355.821C162.984,355.821 156.879,361.926 156.879,369.43C156.879,376.933 162.984,383.039 170.488,383.039C176.702,383.039 181.906,378.82 183.523,373.117L241.55,373.515L241.55,389.593L206.866,389.589C204.842,389.589 203.201,391.226 203.201,393.253L203.201,411.554L186.724,411.554C184.701,411.554 183.06,413.191 183.06,415.218C183.06,417.246 184.701,418.883 186.724,418.883L206.857,418.883C208.881,418.883 210.522,417.246 210.522,415.218L210.522,396.917L241.534,396.917L241.534,402.855C241.534,404.878 243.174,406.519 245.198,406.519L258.112,406.519L258.112,425.734C252.393,427.347 248.166,432.554 248.166,438.781C248.166,446.285 254.272,452.39 261.775,452.39C269.279,452.39 275.384,446.285 275.384,438.781C275.384,432.554 271.158,427.347 265.439,425.734L265.439,406.519L272.759,406.519L272.759,417.058C272.759,419.081 274.4,420.722 276.423,420.722C278.447,420.722 280.088,419.085 280.088,417.058L280.088,406.519L291.068,406.519L291.068,422.546C291.068,424.569 292.708,426.21 294.732,426.21L327.677,426.21L327.677,442.687C327.677,444.711 329.317,446.351 331.341,446.351C333.364,446.351 335.005,444.715 335.005,442.687L335.005,422.554C335.005,420.531 333.364,418.89 331.341,418.89L298.396,418.89L298.396,406.519L307.962,406.519C309.986,406.519 311.626,404.882 311.626,402.855L311.626,389.601L345.993,389.601L345.993,418.89C345.993,420.913 347.634,422.554 349.657,422.554L360.637,422.554L360.637,428.956C354.919,430.57 350.692,435.773 350.692,441.999C350.692,449.503 356.798,455.608 364.301,455.608C371.805,455.608 377.91,449.503 377.91,441.999C377.91,435.773 373.683,430.569 367.965,428.956L367.965,418.894C367.965,416.871 366.324,415.23 364.301,415.23L353.321,415.23L353.321,385.941C353.321,383.918 351.68,382.277 349.657,382.277L311.634,382.277L311.634,363.925C311.719,363.929 311.786,363.968 311.868,363.968L371.63,363.968C373.751,368.73 378.505,372.062 384.044,372.062C391.548,372.062 397.653,365.956 397.653,358.453C397.653,351.711 392.715,346.141 386.266,345.07L386.266,327.363L421.043,327.363C423.066,327.363 424.707,325.726 424.707,323.699C424.707,321.671 423.066,320.035 421.043,320.035L386.266,320.035L386.254,301.398L416.234,301.398C417.281,301.398 418.211,300.948 418.879,300.245L418.879,307.335C418.879,309.359 420.519,310.999 422.543,310.999L435.457,310.999L435.457,330.214C429.738,331.828 425.512,337.035 425.512,343.261C425.512,350.765 431.617,356.87 439.121,356.87C446.624,356.87 452.73,350.765 452.73,343.261C452.73,337.035 448.503,331.827 442.784,330.214L442.784,310.999L450.105,310.999L450.105,321.538C450.105,323.562 451.745,325.202 453.769,325.202C455.792,325.202 457.433,323.566 457.433,321.538L457.433,310.999L468.413,310.999L468.413,327.026C468.413,329.05 470.053,330.69 472.077,330.69L505.022,330.69L505.022,347.167C505.022,349.191 506.662,350.832 508.686,350.832C510.709,350.832 512.35,349.195 512.35,347.167L512.35,327.034C512.35,325.011 510.709,323.37 508.686,323.37L475.741,323.37L475.741,310.999L485.307,310.999C487.331,310.999 488.971,309.363 488.971,307.335L488.971,294.081L523.334,294.081L523.334,323.37C523.334,325.394 524.975,327.034 526.999,327.034L537.979,327.034L537.979,333.437C532.26,335.05 528.033,340.253 528.033,346.48C528.033,353.984 534.139,360.089 541.642,360.089C549.146,360.089 555.251,353.983 555.251,346.48C555.251,340.253 551.025,335.046 545.306,333.437L545.306,323.375C545.306,321.351 543.665,319.711 541.642,319.711L530.662,319.711L530.662,290.422C530.662,288.398 529.021,286.757 526.998,286.757L488.975,286.757L488.975,268.405C489.053,268.409 489.127,268.448 489.205,268.448L548.967,268.448C551.088,273.21 555.842,276.542 561.381,276.542C568.885,276.542 574.99,270.437 574.99,262.933C574.99,256.191 570.045,250.621 563.603,249.55L563.588,231.847L598.365,231.847C600.388,231.847 602.029,230.21 602.029,228.183C602.025,226.16 600.357,224.523 598.333,224.523L598.34,224.52L559.902,224.52C557.879,224.52 556.238,226.157 556.238,228.184L556.238,250.344C551.804,252.149 548.578,256.231 547.918,261.137L489.168,261.133C489.082,261.133 489.015,261.172 488.937,261.176L488.937,240.508C488.937,238.485 487.297,236.844 485.273,236.844L475.707,236.844L475.707,222.149L516.109,222.973C518.249,223.048 519.804,221.407 519.843,219.387C519.882,217.364 518.277,215.696 516.257,215.653L472.116,214.758C471.151,214.731 470.183,215.118 469.479,215.805C468.78,216.493 468.382,217.434 468.382,218.419L468.382,236.849L461.061,236.849L461.061,88.519C465.698,86.347 468.94,81.671 468.94,76.222C468.94,68.718 462.835,62.613 455.331,62.613C447.828,62.613 441.722,68.718 441.722,76.222C441.722,83.179 446.992,88.867 453.734,89.667L453.734,236.853L439.089,236.853L439.089,224.529C439.089,222.505 437.449,220.865 435.425,220.865L404.323,220.865C402.3,220.865 400.659,222.501 400.659,224.529C400.659,226.556 402.3,228.193 404.323,228.193L431.78,228.193L431.78,236.857L422.53,236.857C420.507,236.857 418.866,238.494 418.866,240.521L418.866,250.165L380.53,250.165L380.53,223.474C385.526,221.459 389.069,216.58 389.069,210.869C389.069,203.366 382.964,197.26 375.46,197.26C369.593,197.26 364.624,201.018 362.722,206.233L309.989,206.233L309.989,202.749C314.184,200.428 317.063,196.01 317.063,190.89C317.063,184.148 312.126,178.578 305.676,177.507L305.676,96.149L298.351,95.579L298.351,178.296C293.918,180.1 290.683,184.182 290.031,189.089L257.889,189.081C257.803,189.081 257.737,189.12 257.655,189.124L257.655,168.456C257.655,166.432 256.014,164.792 253.991,164.792L244.424,164.792L244.424,-5.4C244.424,-5.4 237.103,-5.712 237.103,-4.728L237.103,164.791L229.783,164.791L222.46,164.787L207.815,164.787L207.815,152.467C207.815,150.444 206.174,148.803 204.151,148.803L149.383,148.803C147.359,148.803 145.718,150.44 145.718,152.467C145.718,154.495 147.359,156.132 149.383,156.132L200.495,156.132L200.495,164.796L191.237,164.796C189.214,164.796 187.573,166.432 187.573,168.46L187.581,178.085L149.249,178.085L148.507,94.883L141.703,95.206L141.938,181.757C141.938,183.781 143.578,185.421 145.602,185.421L187.598,185.421L187.598,198.632L129.586,198.234C127.984,192.504 122.769,188.265 116.539,188.265C109.035,188.265 102.93,194.371 102.93,201.874C102.93,209.378 109.035,215.483 116.539,215.483C122.754,215.483 127.957,211.264 129.574,205.561L187.601,205.964L187.601,222.034L152.925,222.034C150.901,222.034 149.261,223.67 149.261,225.698L149.261,243.999L132.781,243.995C130.757,243.995 129.117,245.632 129.117,247.659C129.117,249.686 130.757,251.323 132.781,251.323L152.914,251.323C154.937,251.323 156.578,249.686 156.578,247.659L156.578,229.358L187.59,229.358L187.59,235.295C187.59,237.319 189.23,238.96 191.254,238.96L204.168,238.96L204.168,258.179C198.449,259.784 194.223,264.995 194.223,271.222C194.223,278.725 200.328,284.831 207.832,284.831C215.335,284.831 221.441,278.725 221.441,271.222C221.441,264.995 217.214,259.792 211.495,258.179L211.495,238.96L218.816,238.96L218.816,249.499C218.816,251.522 220.456,253.163 222.48,253.163C224.503,253.163 226.144,251.526 226.144,249.499L226.144,238.96L237.124,238.96L237.124,254.987C237.124,257.01 238.764,258.651 240.788,258.651L273.733,258.651L273.733,272.796M449.05,76.217C449.05,72.752 451.874,69.928 455.339,69.928C458.804,69.928 461.62,72.752 461.62,76.217C461.62,79.682 458.804,82.498 455.339,82.498C451.874,82.498 449.05,79.678 449.05,76.217ZM116.526,208.142C113.061,208.142 110.237,205.318 110.237,201.861C110.237,198.396 113.061,195.572 116.526,195.572C119.991,195.572 122.807,198.396 122.807,201.861C122.815,205.326 119.991,208.142 116.526,208.142ZM214.112,271.193C214.112,274.658 211.296,277.474 207.831,277.474C204.366,277.474 201.542,274.65 201.542,271.193C201.542,267.728 204.366,264.912 207.831,264.912C211.296,264.908 214.112,267.724 214.112,271.193ZM191.858,306.326C191.858,302.861 194.682,300.045 198.147,300.045C201.612,300.045 204.428,302.869 204.428,306.326C204.428,309.787 201.612,312.607 198.147,312.607C194.678,312.607 191.858,309.791 191.858,306.326ZM170.483,375.681C167.018,375.681 164.194,372.857 164.194,369.4C164.194,365.935 167.018,363.111 170.483,363.111C173.948,363.111 176.764,365.935 176.764,369.4C176.764,372.861 173.948,375.681 170.483,375.681ZM268.069,438.728C268.069,442.193 265.253,445.009 261.788,445.009C258.323,445.009 255.499,442.185 255.499,438.728C255.499,435.263 258.323,432.439 261.788,432.439C265.249,432.439 268.069,435.259 268.069,438.728ZM370.569,441.939C370.569,445.404 367.753,448.22 364.288,448.22C360.823,448.22 357.999,445.396 357.999,441.939C357.999,438.474 360.823,435.658 364.288,435.658C367.753,435.658 370.569,438.478 370.569,441.939ZM445.397,343.251C445.397,346.716 442.573,349.532 439.108,349.532C435.643,349.532 432.827,346.708 432.827,343.251C432.827,339.786 435.643,336.962 439.108,336.962C442.573,336.962 445.397,339.786 445.397,343.251ZM547.897,346.466C547.897,349.931 545.073,352.747 541.608,352.747C538.143,352.747 535.327,349.923 535.327,346.466C535.327,343.001 538.143,340.184 541.608,340.184C545.077,340.181 547.897,343.001 547.897,346.466ZM375.477,204.566C378.942,204.566 381.766,207.39 381.766,210.847C381.766,214.308 378.942,217.128 375.477,217.128C372.012,217.128 369.196,214.304 369.196,210.847C369.192,207.39 372.008,204.566 375.477,204.566ZM303.463,184.586C306.928,184.586 309.752,187.41 309.752,190.875C309.752,194.34 306.928,197.156 303.463,197.156C299.998,197.156 297.182,194.332 297.182,190.875C297.182,187.406 299.998,184.586 303.463,184.586ZM194.915,172.102L250.337,172.102L250.337,231.606L194.915,231.606L194.915,172.102ZM271.735,285.612C271.735,282.147 274.551,279.323 278.016,279.323C281.481,279.323 284.305,282.147 284.305,285.612C284.305,289.077 281.481,291.893 278.016,291.893C274.559,291.897 271.735,289.077 271.735,285.612ZM304.294,399.152L248.872,399.152L248.872,339.644L304.294,339.644L304.294,399.152ZM390.317,358.418C390.317,361.883 387.493,364.699 384.028,364.699C380.563,364.699 377.747,361.875 377.747,358.418C377.747,354.953 380.563,352.129 384.028,352.129C387.493,352.129 390.317,354.949 390.317,358.418ZM281.038,272.387L281.038,254.981C281.038,252.958 279.398,251.317 277.374,251.317L244.429,251.317L244.429,238.946L253.996,238.946C256.019,238.946 257.66,237.31 257.66,235.282L257.66,222.028L292.027,222.028L292.027,251.317C292.027,253.341 293.667,254.981 295.691,254.981L306.671,254.981L306.671,261.384C300.952,262.989 296.726,268.2 296.726,274.427C296.726,281.93 302.831,288.036 310.335,288.036C317.839,288.036 323.944,281.93 323.944,274.427C323.944,268.2 319.717,262.997 313.998,261.384L313.998,251.322C313.998,249.298 312.358,247.657 310.334,247.657L299.354,247.657L299.354,218.368C299.354,216.345 297.714,214.704 295.69,214.704L257.667,214.704L257.671,196.349C257.757,196.353 257.823,196.392 257.905,196.392L291.055,196.392C293.079,200.916 297.489,204.103 302.688,204.404L302.688,209.881C302.688,211.904 304.329,213.545 306.352,213.545L362.153,213.545C363.254,219.033 367.684,223.299 373.231,224.236L373.231,253.814C373.231,255.837 374.871,257.478 376.895,257.478L418.891,257.478L418.891,270.689L360.879,270.29C359.277,264.56 354.062,260.322 347.824,260.322C340.32,260.322 334.215,266.427 334.215,273.931C334.215,281.434 340.32,287.54 347.824,287.54C354.046,287.54 359.242,283.321 360.859,277.618L418.886,278.016L418.886,295.246C418.206,294.531 417.276,294.086 416.229,294.086L416.231,294.086L382.59,294.086C380.567,294.086 378.926,295.722 378.926,297.75L378.926,345.832C374.492,347.637 371.266,351.719 370.606,356.625L311.852,356.621C311.766,356.621 311.699,356.66 311.617,356.664L311.617,335.996C311.617,333.972 309.977,332.332 307.953,332.332L298.387,332.332L298.387,317.637L338.785,318.461C340.855,318.426 342.476,316.895 342.519,314.875C342.558,312.852 340.953,311.184 338.933,311.141L294.8,310.246C293.828,310.211 292.867,310.606 292.164,311.293C291.464,311.981 291.066,312.922 291.066,313.906L291.066,332.336L283.746,332.336L283.746,297.926C288.382,295.754 291.624,291.079 291.624,285.629C291.624,279.168 287.089,273.77 281.038,272.387M310.331,268.121C313.796,268.121 316.612,270.945 316.612,274.402C316.612,277.863 313.796,280.683 310.331,280.683C306.862,280.687 304.046,277.871 304.046,274.41C304.046,270.949 306.862,268.121 310.331,268.121L310.331,268.121ZM354.101,273.925C354.101,277.39 351.277,280.207 347.812,280.207C344.347,280.207 341.531,277.382 341.531,273.925C341.531,270.461 344.347,267.636 347.812,267.636C351.277,267.636 354.101,270.457 354.101,273.925ZM481.621,303.675L426.199,303.675L426.199,244.171L481.621,244.171L481.621,303.675ZM567.641,262.941C567.641,266.406 564.825,269.223 561.36,269.223C557.895,269.223 555.071,266.398 555.071,262.941C555.071,259.477 557.895,256.652 561.36,256.652C564.821,256.652 567.641,259.477 567.641,262.941Z" style="fill:rgb(125,38,33);fill-rule:nonzero;"/>
            </g>
        </g>
    </g>
</svg>
