<?xml version="1.0" encoding="UTF-8" standalone="no"?>
<!DOCTYPE svg PUBLIC "-//W3C//DTD SVG 1.1//EN" "http://www.w3.org/Graphics/SVG/1.1/DTD/svg11.dtd">
<svg width="100%" height="100%" viewBox="0 0 1775 1712" version="1.1" xmlns="http://www.w3.org/2000/svg" xmlns:xlink="http://www.w3.org/1999/xlink" xml:space="preserve" xmlns:serif="http://www.serif.com/" style="fill-rule:evenodd;clip-rule:evenodd;stroke-linejoin:round;stroke-miterlimit:2;">
    <g transform="matrix(1,0,0,1,-14978.8,-50794.8)">
        <g id="_7-working-with-files" serif:id="7-working-with-files" transform="matrix(1.59318,0,0,1.5322,-20283.8,-8549.12)">
            <g transform="matrix(0.627674,0,0,0.652655,22482.5,38717)">
                <path d="M448,538.46L145.38,538.46L145.38,107.69L375.84,107.69L410.301,148.612L446.918,194.921L446.918,538.461L448,538.46ZM166.92,516.921L426.46,516.921L426.46,202.461L394.151,162.613L366.151,130.304L166.921,130.308L166.92,516.921Z" style="fill:rgb(229,181,132);fill-rule:nonzero;"/>
                <path d="M436.15,215.38L349.998,215.38L349.998,123.845L371.537,123.845L371.537,193.845L436.15,193.845L436.15,215.38Z" style="fill:rgb(229,181,132);fill-rule:nonzero;"/>
                <path d="M500.77,495.38L437.231,495.38L437.231,473.845L479.231,473.845L479.231,159.385L448.001,118.463L420.001,86.154L220.771,86.154L220.771,119.541L199.232,119.541L199.232,64.619L429.692,64.619L464.153,105.541L500.77,151.85L500.77,495.38Z" style="fill:rgb(229,181,132);fill-rule:nonzero;"/>
                <path d="M554.62,453.38L490.003,453.38L490.003,431.845L533.081,431.845L533.081,116.305L500.772,75.379L472.772,43.074L273.542,43.074L273.542,76.457L252.003,76.457L252.003,21.535L483.543,21.535L518.004,62.457L554.621,108.766L554.62,453.38Z" style="fill:rgb(229,181,132);fill-rule:nonzero;"/>
                <path d="M488.92,172.31L403.846,172.31L403.846,80.771L425.381,80.771L425.381,150.771L488.92,150.771L488.92,172.31Z" style="fill:rgb(229,181,132);fill-rule:nonzero;"/>
            </g>
            <g transform="matrix(0.516631,0.370651,-0.356464,0.537192,22999.5,39015.7)">
                <path d="M448,538.46L145.38,538.46L145.38,107.69L375.84,107.69L410.301,148.612L446.918,194.921L446.918,538.461L448,538.46ZM166.92,516.921L426.46,516.921L426.46,202.461L394.151,162.613L366.151,130.304L166.921,130.308L166.92,516.921Z" style="fill:rgb(229,181,132);fill-rule:nonzero;"/>
                <path d="M436.15,215.38L349.998,215.38L349.998,123.845L371.537,123.845L371.537,193.845L436.15,193.845L436.15,215.38Z" style="fill:rgb(229,181,132);fill-rule:nonzero;"/>
                <path d="M500.77,495.38L437.231,495.38L437.231,473.845L479.231,473.845L479.231,159.385L448.001,118.463L420.001,86.154L220.771,86.154L220.771,119.541L199.232,119.541L199.232,64.619L429.692,64.619L464.153,105.541L500.77,151.85L500.77,495.38Z" style="fill:rgb(229,181,132);fill-rule:nonzero;"/>
                <path d="M554.62,453.38L490.003,453.38L490.003,431.845L533.081,431.845L533.081,116.305L500.772,75.379L472.772,43.074L273.542,43.074L273.542,76.457L252.003,76.457L252.003,21.535L483.543,21.535L518.004,62.457L554.621,108.766L554.62,453.38Z" style="fill:rgb(229,181,132);fill-rule:nonzero;"/>
                <path d="M488.92,172.31L403.846,172.31L403.846,80.771L425.381,80.771L425.381,150.771L488.92,150.771L488.92,172.31Z" style="fill:rgb(229,181,132);fill-rule:nonzero;"/>
            </g>
            <g transform="matrix(0.497616,-0.397786,0.382561,0.517421,22019.9,39322.1)">
                <path d="M448,538.46L145.38,538.46L145.38,107.69L375.84,107.69L410.301,148.612L446.918,194.921L446.918,538.461L448,538.46ZM166.92,516.921L426.46,516.921L426.46,202.461L394.151,162.613L366.151,130.304L166.921,130.308L166.92,516.921Z" style="fill:rgb(229,181,132);fill-rule:nonzero;"/>
                <path d="M436.15,215.38L349.998,215.38L349.998,123.845L371.537,123.845L371.537,193.845L436.15,193.845L436.15,215.38Z" style="fill:rgb(229,181,132);fill-rule:nonzero;"/>
                <path d="M500.77,495.38L437.231,495.38L437.231,473.845L479.231,473.845L479.231,159.385L448.001,118.463L420.001,86.154L220.771,86.154L220.771,119.541L199.232,119.541L199.232,64.619L429.692,64.619L464.153,105.541L500.77,151.85L500.77,495.38Z" style="fill:rgb(229,181,132);fill-rule:nonzero;"/>
                <path d="M554.62,453.38L490.003,453.38L490.003,431.845L533.081,431.845L533.081,116.305L500.772,75.379L472.772,43.074L273.542,43.074L273.542,76.457L252.003,76.457L252.003,21.535L483.543,21.535L518.004,62.457L554.621,108.766L554.62,453.38Z" style="fill:rgb(229,181,132);fill-rule:nonzero;"/>
                <path d="M488.92,172.31L403.846,172.31L403.846,80.771L425.381,80.771L425.381,150.771L488.92,150.771L488.92,172.31Z" style="fill:rgb(229,181,132);fill-rule:nonzero;"/>
            </g>
            <g transform="matrix(0.619282,-0.106368,0.102297,0.643929,22452.6,39516.9)">
                <path d="M448,538.46L145.38,538.46L145.38,107.69L375.84,107.69L410.301,148.612L446.918,194.921L446.918,538.461L448,538.46ZM166.92,516.921L426.46,516.921L426.46,202.461L394.151,162.613L366.151,130.304L166.921,130.308L166.92,516.921Z" style="fill:rgb(229,181,132);fill-rule:nonzero;"/>
                <path d="M436.15,215.38L349.998,215.38L349.998,123.845L371.537,123.845L371.537,193.845L436.15,193.845L436.15,215.38Z" style="fill:rgb(229,181,132);fill-rule:nonzero;"/>
                <path d="M500.77,495.38L437.231,495.38L437.231,473.845L479.231,473.845L479.231,159.385L448.001,118.463L420.001,86.154L220.771,86.154L220.771,119.541L199.232,119.541L199.232,64.619L429.692,64.619L464.153,105.541L500.77,151.85L500.77,495.38Z" style="fill:rgb(229,181,132);fill-rule:nonzero;"/>
                <path d="M554.62,453.38L490.003,453.38L490.003,431.845L533.081,431.845L533.081,116.305L500.772,75.379L472.772,43.074L273.542,43.074L273.542,76.457L252.003,76.457L252.003,21.535L483.543,21.535L518.004,62.457L554.621,108.766L554.62,453.38Z" style="fill:rgb(229,181,132);fill-rule:nonzero;"/>
                <path d="M488.92,172.31L403.846,172.31L403.846,80.771L425.381,80.771L425.381,150.771L488.92,150.771L488.92,172.31Z" style="fill:rgb(229,181,132);fill-rule:nonzero;"/>
            </g>
            <g transform="matrix(1,0,0,1,327.018,362.471)">
                <g transform="matrix(0.627674,0,0,0.652655,22164.1,38727.7)">
                    <path d="M141.17,175C148.17,154 169.17,138.832 192.502,138.832L514.502,138.832C519.17,138.832 523.834,135.332 523.834,130.664L523.834,109.668C523.834,99.168 515.666,91 504.002,91L256.672,91C246.172,91 236.84,82.832 236.84,72.332L236.836,65.332C236.836,54.832 228.668,46.664 217.004,46.664L95.674,46.668C84.006,46.668 75.838,54.832 75.838,65.332L75.838,373.332C75.838,375.664 79.338,376.832 80.506,374.5L141.17,175Z" style="fill:rgb(229,181,132);fill-rule:nonzero;"/>
                </g>
                <g transform="matrix(0.627674,0,0,0.652655,22164.1,38727.7)">
                    <path d="M513.33,513.33L98,513.33C87.5,513.33 79.332,502.83 82.832,493.498L177.332,185.498C179.664,178.498 185.5,173.83 192.5,173.83L607.83,173.83C618.33,173.83 626.498,184.33 622.998,193.662L528.498,501.662C526.166,508.662 520.33,513.326 513.33,513.326L513.33,513.33Z" style="fill:rgb(229,181,132);fill-rule:nonzero;"/>
                </g>
            </g>
        </g>
    </g>
</svg>
